{
DisplayStrings = (
nnznnozonn
);
copyright = "Copyright 2009-2012 vernon adams.";
customParameters = (
{
name = note;
value = "";
},
{
name = openTypeNameLicenseURL;
value = "http://scripts.sil.org/OFL";
},
{
name = openTypeNameUniqueID;
value = "1.001;newt;OxygenSans-Bold";
},
{
name = openTypeNameVersion;
value = "Version 1.001;PS (version unavailable);hotconv 1.0.57;makeotf.lib2.0.21895 DEVELOPMENT";
},
{
name = openTypeOS2CodePageRanges;
value = (
    0,
    1,
    2,
    3,
    4,
    7,
    9,
    32
);
},
{
name = openTypeOS2FamilyClass;
value = (
    0,
    0
);
},
{
name = openTypeOS2Panose;
value = (
    0,
    0,
    0,
    0,
    0,
    0,
    0,
    0,
    0,
    0
);
},
{
name = openTypeOS2StrikeoutPosition;
value = 610;
},
{
name = openTypeOS2StrikeoutSize;
value = 50;
},
{
name = openTypeOS2SubscriptXOffset;
value = 0;
},
{
name = openTypeOS2SubscriptXSize;
value = 1331;
},
{
name = openTypeOS2SubscriptYOffset;
value = 153;
},
{
name = openTypeOS2SubscriptYSize;
value = 1228;
},
{
name = openTypeOS2SuperscriptXOffset;
value = 0;
},
{
name = openTypeOS2SuperscriptXSize;
value = 1331;
},
{
name = openTypeOS2SuperscriptYOffset;
value = 716;
},
{
name = openTypeOS2SuperscriptYSize;
value = 1228;
},
{
name = openTypeOS2Type;
value = (
);
},
{
name = openTypeOS2UnicodeRanges;
value = (
    0,
    1,
    2,
    3,
    7
);
},
{
name = openTypeOS2VendorID;
value = newt;
},
{
name = postscriptBlueFuzz;
value = 1;
},
{
name = postscriptBlueScale;
value = 0.039625;
},
{
name = postscriptBlueShift;
value = 7;
},
{
name = postscriptFamilyBlues;
value = (
);
},
{
name = postscriptFamilyOtherBlues;
value = (
);
},
{
name = postscriptFontName;
value = "OxygenSans-Bold";
},
{
name = postscriptForceBold;
value = 1;
},
{
name = postscriptFullName;
value = "OxygenSans Bold";
},
{
name = styleName;
value = Bold;
}
);
date = "2012-11-20 05:43:48 +0000";
designer = "Vernon Adams";
familyName = "OxygenSans";
fontMaster = (
{
alignmentZones = (
"{1326, 49}",
"{1016, 25}",

glyphs = (
{
glyphname = A;
lastChange = "2013-02-09 20:46:15 -0800";
layers = (
{
anchors = (
{
name = ogonek;
position = "{1302, 10}";
},
{
name = top;
position = "{712, 0}";
}
);
layerId = "280E06E1-9336-45D2-8B5F-14710EC8A5A0";
name = Bold;
paths = (
{
closed = 1;
nodes = (
"56 0 LINE",
"355 0 LINE",
"505 433 LINE",
"412 365 LINE",
"1010 365 LINE",
"914 429 LINE",
"1071 0 LINE",
"1367 0 LINE",
"890 1336 LINE",
"535 1336 LINE"
);
},
{
closed = 1;
nodes = (
"515 473 LINE",
"738 1162 LINE",
"694 1162 LINE",
"903 474 LINE",
"953 555 LINE",
"466 555 LINE"
);
}
);
width = 1423;
}
);
unicode = 0041;
},
{
glyphname = Aacute;
layers = (
{
layerId = "280E06E1-9336-45D2-8B5F-14710EC8A5A0";
name = Bold;
paths = (
{
closed = 1;
nodes = (
"90 0 LINE",
"378 0 LINE",
"498 365 LINE",
"924 365 LINE",
"1051 0 LINE",
"1337 0 LINE",
"883 1336 LINE",
"545 1336 LINE"
);
},
{
closed = 1;
nodes = (
"635 1479 LINE",
"792 1479 LINE",
"1087 1840 LINE",
"795 1840 LINE"
);
},
{
closed = 1;
nodes = (
"556 555 LINE",
"718 1093 LINE",
"868 555 LINE"
);
}
);
width = 1427;
}
);
unicode = 00C1;
},
{
glyphname = Abreve;
layers = (
{
layerId = "280E06E1-9336-45D2-8B5F-14710EC8A5A0";
name = Bold;
paths = (
{
closed = 1;
nodes = (
"90 0 LINE",
"378 0 LINE",
"498 365 LINE",
"924 365 LINE",
"1051 0 LINE",
"1337 0 LINE",
"883 1336 LINE",
"545 1336 LINE"
);
},
{
closed = 1;
nodes = (
"444 1557 OFFCURVE",
"560 1479 OFFCURVE",
"712 1479 CURVE SMOOTH",
"865 1479 OFFCURVE",
"982 1556 OFFCURVE",
"982 1722 CURVE",
"814 1722 LINE",
"814 1661 OFFCURVE",
"786 1637 OFFCURVE",
"712 1637 CURVE SMOOTH",
"638 1637 OFFCURVE",
"612 1661 OFFCURVE",
"612 1722 CURVE",
"444 1722 LINE"
);
},
{
closed = 1;
nodes = (
"556 555 LINE",
"718 1093 LINE",
"868 555 LINE"
);
}
);
width = 1427;
}
);
unicode = 0102;
},
{
glyphname = Acircumflex;
layers = (
{
layerId = "280E06E1-9336-45D2-8B5F-14710EC8A5A0";
name = Bold;
paths = (
{
closed = 1;
nodes = (
"90 0 LINE",
"378 0 LINE",
"498 365 LINE",
"924 365 LINE",
"1051 0 LINE",
"1337 0 LINE",
"883 1336 LINE",
"545 1336 LINE"
);
},
{
closed = 1;
nodes = (
"380 1479 LINE",
"561 1479 LINE",
"703 1673 LINE",
"861 1479 LINE",
"1047 1479 LINE",
"811 1847 LINE",
"615 1847 LINE"
);
},
{
closed = 1;
nodes = (
"556 555 LINE",
"718 1093 LINE",
"868 555 LINE"
);
}
);
width = 1427;
}
);
unicode = 00C2;
},
{
glyphname = Adieresis;
layers = (
{
layerId = "280E06E1-9336-45D2-8B5F-14710EC8A5A0";
name = Bold;
paths = (
{
closed = 1;
nodes = (
"90 0 LINE",
"378 0 LINE",
"498 365 LINE",
"924 365 LINE",
"1051 0 LINE",
"1337 0 LINE",
"883 1336 LINE",
"545 1336 LINE"
);
},
{
closed = 1;
nodes = (
"429 1479 LINE",
"623 1479 LINE",
"623 1724 LINE",
"429 1724 LINE"
);
},
{
closed = 1;
nodes = (
"805 1479 LINE",
"998 1479 LINE",
"998 1724 LINE",
"805 1724 LINE"
);
},
{
closed = 1;
nodes = (
"556 555 LINE",
"718 1093 LINE",
"868 555 LINE"
);
}
);
width = 1427;
}
);
unicode = 00C4;
},
{
glyphname = Agrave;
layers = (
{
layerId = "280E06E1-9336-45D2-8B5F-14710EC8A5A0";
name = Bold;
paths = (
{
closed = 1;
nodes = (
"90 0 LINE",
"378 0 LINE",
"498 365 LINE",
"924 365 LINE",
"1051 0 LINE",
"1337 0 LINE",
"883 1336 LINE",
"545 1336 LINE"
);
},
{
closed = 1;
nodes = (
"631 1479 LINE",
"796 1479 LINE",
"619 1840 LINE",
"320 1840 LINE"
);
},
{
closed = 1;
nodes = (
"556 555 LINE",
"718 1093 LINE",
"868 555 LINE"
);
}
);
width = 1427;
}
);
unicode = 00C0;
},
{
glyphname = Amacron;
layers = (
{
layerId = "280E06E1-9336-45D2-8B5F-14710EC8A5A0";
name = Bold;
paths = (
{
closed = 1;
nodes = (
"90 0 LINE",
"378 0 LINE",
"498 365 LINE",
"924 365 LINE",
"1051 0 LINE",
"1337 0 LINE",
"883 1336 LINE",
"545 1336 LINE"
);
},
{
closed = 1;
nodes = (
"389 1479 LINE",
"1038 1479 LINE",
"1038 1638 LINE",
"389 1638 LINE"
);
},
{
closed = 1;
nodes = (
"556 555 LINE",
"718 1093 LINE",
"868 555 LINE"
);
}
);
width = 1427;
}
);
unicode = 0100;
},
{
glyphname = Aogonek;
layers = (
{
layerId = "280E06E1-9336-45D2-8B5F-14710EC8A5A0";
name = Bold;
paths = (
{
closed = 1;
nodes = (
"540 -339 OFFCURVE",
"630 -393 OFFCURVE",
"734 -393 CURVE SMOOTH",
"793 -393 OFFCURVE",
"855 -378 OFFCURVE",
"910 -357 CURVE",
"910 -357 OFFCURVE",
"903 -216 OFFCURVE",
"902 -216 CURVE SMOOTH",
"890 -221 OFFCURVE",
"830 -247 OFFCURVE",
"778 -247 CURVE SMOOTH",
"740 -247 OFFCURVE",
"714 -212 OFFCURVE",
"714 -178 CURVE SMOOTH",
"714 -123 OFFCURVE",
"746 -59 OFFCURVE",
"820 -2 CURVE",
"714 14 LINE",
"643 -27 OFFCURVE",
"540 -102 OFFCURVE",
"540 -225 CURVE SMOOTH"
);
},
{
closed = 1;
nodes = (
"90 0 LINE",
"378 0 LINE",
"498 365 LINE",
"924 365 LINE",
"1051 0 LINE",
"1337 0 LINE",
"883 1336 LINE",
"545 1336 LINE"
);
},
{
closed = 1;
nodes = (
"556 555 LINE",
"718 1093 LINE",
"868 555 LINE"
);
}
);
width = 1427;
}
);
unicode = 0104;
},
{
glyphname = Aring;
layers = (
{
layerId = "280E06E1-9336-45D2-8B5F-14710EC8A5A0";
name = Bold;
paths = (
{
closed = 1;
nodes = (
"90 0 LINE",
"378 0 LINE",
"498 365 LINE",
"924 365 LINE",
"1051 0 LINE",
"1337 0 LINE",
"883 1336 LINE",
"545 1336 LINE"
);
},
{
closed = 1;
nodes = (
"800 1489 OFFCURVE",
"769 1445 OFFCURVE",
"714 1445 CURVE SMOOTH",
"657 1445 OFFCURVE",
"628 1488 OFFCURVE",
"628 1540 CURVE SMOOTH",
"628 1588 OFFCURVE",
"661 1635 OFFCURVE",
"714 1635 CURVE SMOOTH",
"769 1635 OFFCURVE",
"800 1589 OFFCURVE",
"800 1540 CURVE SMOOTH"
);
},
{
closed = 1;
nodes = (
"508 1437 OFFCURVE",
"585 1344 OFFCURVE",
"714 1344 CURVE SMOOTH",
"843 1344 OFFCURVE",
"920 1437 OFFCURVE",
"920 1540 CURVE SMOOTH",
"920 1642 OFFCURVE",
"845 1735 OFFCURVE",
"714 1735 CURVE SMOOTH",
"584 1735 OFFCURVE",
"508 1643 OFFCURVE",
"508 1540 CURVE SMOOTH"
);
},
{
closed = 1;
nodes = (
"556 555 LINE",
"718 1093 LINE",
"868 555 LINE"
);
}
);
width = 1427;
}
);
unicode = 00C5;
},
{
glyphname = Aringacute;
layers = (
{
layerId = "280E06E1-9336-45D2-8B5F-14710EC8A5A0";
name = Bold;
paths = (
{
closed = 1;
nodes = (
"90 0 LINE",
"378 0 LINE",
"498 365 LINE",
"924 365 LINE",
"1051 0 LINE",
"1337 0 LINE",
"883 1336 LINE",
"545 1336 LINE"
);
},
{
closed = 1;
nodes = (
"800 1489 OFFCURVE",
"769 1445 OFFCURVE",
"714 1445 CURVE SMOOTH",
"657 1445 OFFCURVE",
"628 1488 OFFCURVE",
"628 1540 CURVE SMOOTH",
"628 1588 OFFCURVE",
"661 1635 OFFCURVE",
"714 1635 CURVE SMOOTH",
"769 1635 OFFCURVE",
"800 1589 OFFCURVE",
"800 1540 CURVE SMOOTH"
);
},
{
closed = 1;
nodes = (
"508 1437 OFFCURVE",
"585 1344 OFFCURVE",
"714 1344 CURVE SMOOTH",
"843 1344 OFFCURVE",
"920 1437 OFFCURVE",
"920 1540 CURVE SMOOTH",
"920 1642 OFFCURVE",
"845 1735 OFFCURVE",
"714 1735 CURVE SMOOTH",
"584 1735 OFFCURVE",
"508 1643 OFFCURVE",
"508 1540 CURVE SMOOTH"
);
},
{
closed = 1;
nodes = (
"635 1857 LINE",
"792 1857 LINE",
"1087 2218 LINE",
"795 2218 LINE"
);
},
{
closed = 1;
nodes = (
"556 555 LINE",
"718 1093 LINE",
"868 555 LINE"
);
}
);
width = 1427;
}
);
unicode = 01FA;
},
{
glyphname = Atilde;
layers = (
{
layerId = "280E06E1-9336-45D2-8B5F-14710EC8A5A0";
name = Bold;
paths = (
{
closed = 1;
nodes = (
"90 0 LINE",
"378 0 LINE",
"498 365 LINE",
"924 365 LINE",
"1051 0 LINE",
"1337 0 LINE",
"883 1336 LINE",
"545 1336 LINE"
);
},
{
closed = 1;
nodes = (
"545 1479 LINE",
"545 1479 OFFCURVE",
"559 1569 OFFCURVE",
"580 1569 CURVE SMOOTH",
"637 1569 OFFCURVE",
"770 1479 OFFCURVE",
"871 1479 CURVE SMOOTH",
"1019 1479 OFFCURVE",
"1029 1721 OFFCURVE",
"1029 1721 CURVE",
"879 1721 LINE",
"879 1721 OFFCURVE",
"867 1637 OFFCURVE",
"847 1636 CURVE",
"816 1636 OFFCURVE",
"681 1721 OFFCURVE",
"560 1721 CURVE SMOOTH",
"412 1721 OFFCURVE",
"398 1583 OFFCURVE",
"398 1489 CURVE"
);
},
{
closed = 1;
nodes = (
"556 555 LINE",
"718 1093 LINE",
"868 555 LINE"
);
}
);
width = 1427;
}
);
unicode = 00C3;
},
{
glyphname = AE;
layers = (
{
anchors = (
{
name = top;
position = "{891, 0}";
}
);
layerId = "280E06E1-9336-45D2-8B5F-14710EC8A5A0";
name = Bold;
paths = (
{
closed = 1;
nodes = (
"23 0 LINE",
"316 0 LINE",
"495 334 LINE",
"944 334 LINE",
"971 0 LINE",
"1709 0 LINE",
"1723 194 LINE",
"1221 194 LINE",
"1188 592 LINE",
"1655 592 LINE",
"1655 785 LINE",
"1168 785 LINE",
"1141 1161 LINE",
"1676 1161 LINE",
"1692 1355 LINE",
"781 1355 LINE"
);
},
{
closed = 1;
nodes = (
"589 538 LINE",
"887 1087 LINE",
"928 538 LINE"
);
}
);
width = 1781;
}
);
unicode = 00C6;
},
{
glyphname = AEacute;
layers = (
{
layerId = "280E06E1-9336-45D2-8B5F-14710EC8A5A0";
name = Bold;
paths = (
{
closed = 1;
nodes = (
"23 0 LINE",
"316 0 LINE",
"495 334 LINE",
"944 334 LINE",
"971 0 LINE",
"1709 0 LINE",
"1723 194 LINE",
"1221 194 LINE",
"1188 592 LINE",
"1655 592 LINE",
"1655 785 LINE",
"1168 785 LINE",
"1141 1161 LINE",
"1676 1161 LINE",
"1692 1355 LINE",
"781 1355 LINE"
);
},
{
closed = 1;
nodes = (
"794 1479 LINE",
"952 1479 LINE",
"1246 1840 LINE",
"954 1840 LINE"
);
},
{
closed = 1;
nodes = (
"589 538 LINE",
"887 1087 LINE",
"928 538 LINE"
);
}
);
width = 1781;
}
);
unicode = 01FC;
},
{
glyphname = uni01E2;
layers = (
{
layerId = "280E06E1-9336-45D2-8B5F-14710EC8A5A0";
name = Bold;
paths = (
{
closed = 1;
nodes = (
"23 0 LINE",
"316 0 LINE",
"495 334 LINE",
"944 334 LINE",
"971 0 LINE",
"1709 0 LINE",
"1723 194 LINE",
"1221 194 LINE",
"1188 592 LINE",
"1655 592 LINE",
"1655 785 LINE",
"1168 785 LINE",
"1141 1161 LINE",
"1676 1161 LINE",
"1692 1355 LINE",
"781 1355 LINE"
);
},
{
closed = 1;
nodes = (
"548 1479 LINE",
"1198 1479 LINE",
"1198 1638 LINE",
"548 1638 LINE"
);
},
{
closed = 1;
nodes = (
"589 538 LINE",
"887 1087 LINE",
"928 538 LINE"
);
}
);
width = 1781;
}
);
unicode = 01E2;
},
{
glyphname = B;
layers = (
{
layerId = "280E06E1-9336-45D2-8B5F-14710EC8A5A0";
name = Bold;
paths = (
{
closed = 1;
nodes = (
"180 0 LINE",
"729 0 LINE SMOOTH",
"1030 0 OFFCURVE",
"1227 133 OFFCURVE",
"1227 393 CURVE SMOOTH",
"1227 601 OFFCURVE",
"1083 696 OFFCURVE",
"920 742 CURVE",
"920 680 LINE",
"1087 746 OFFCURVE",
"1179 850 OFFCURVE",
"1179 1000 CURVE SMOOTH",
"1179 1254 OFFCURVE",
"990 1336 OFFCURVE",
"660 1336 CURVE SMOOTH",
"180 1336 LINE"
);
},
{
closed = 1;
nodes = (
"408 216 LINE",
"468 153 LINE",
"468 678 LINE",
"408 604 LINE",
"671 604 LINE SMOOTH",
"856 604 OFFCURVE",
"939 554 OFFCURVE",
"939 412 CURVE SMOOTH",
"939 270 OFFCURVE",
"854 216 OFFCURVE",
"677 216 CURVE SMOOTH"
);
},
{
closed = 1;
nodes = (
"408 793 LINE",
"468 737 LINE",
"468 1187 LINE",
"408 1126 LINE",
"626 1126 LINE SMOOTH",
"812 1126 OFFCURVE",
"899 1093 OFFCURVE",
"899 956 CURVE SMOOTH",
"899 834 OFFCURVE",
"825 793 OFFCURVE",
"674 793 CURVE"
);
}
);
width = 1376;
}
);
unicode = 0042;
},
{
glyphname = C;
lastChange = "2013-02-09 20:47:56 -0800";
layers = (
{
anchors = (
{
name = bottom;
position = "{648, 0}";
},
{
name = top;
position = "{648, 0}";
}
);
layerId = "280E06E1-9336-45D2-8B5F-14710EC8A5A0";
name = Bold;
paths = (
{
closed = 1;
nodes = (
"122 236 OFFCURVE",
"393 -18 OFFCURVE",
"775 -18 CURVE SMOOTH",
"920 -18 OFFCURVE",
"1015 13 OFFCURVE",
"1139 75 CURVE",
"1084 293 LINE",
"984 236 OFFCURVE",
"893 210 OFFCURVE",
"794 213 CURVE SMOOTH",
"559 220 OFFCURVE",
"410 380 OFFCURVE",
"410 671 CURVE SMOOTH",
"410 963 OFFCURVE",
"585 1110 OFFCURVE",
"752 1123 CURVE SMOOTH",
"870 1132 OFFCURVE",
"986 1088 OFFCURVE",
"1082 1033 CURVE",
"1165 1247 LINE",
"1043 1318 OFFCURVE",
"905 1357 OFFCURVE",
"766 1357 CURVE SMOOTH",
"391 1357 OFFCURVE",
"122 1114 OFFCURVE",
"122 677 CURVE SMOOTH"
);
}
);
width = 1311;
}
);
unicode = 0043;
},
{
glyphname = Cacute;
layers = (
{
layerId = "280E06E1-9336-45D2-8B5F-14710EC8A5A0";
name = Bold;
paths = (
{
closed = 1;
nodes = (
"132 236 OFFCURVE",
"406 -18 OFFCURVE",
"788 -18 CURVE SMOOTH",
"933 -18 OFFCURVE",
"1025 13 OFFCURVE",
"1149 75 CURVE",
"1094 293 LINE",
"994 236 OFFCURVE",
"902 210 OFFCURVE",
"803 213 CURVE SMOOTH",
"568 220 OFFCURVE",
"420 380 OFFCURVE",
"420 671 CURVE SMOOTH",
"420 963 OFFCURVE",
"598 1110 OFFCURVE",
"765 1123 CURVE SMOOTH",
"883 1132 OFFCURVE",
"996 1088 OFFCURVE",
"1092 1033 CURVE",
"1175 1247 LINE",
"1053 1318 OFFCURVE",
"918 1357 OFFCURVE",
"779 1357 CURVE SMOOTH",
"404 1357 OFFCURVE",
"132 1114 OFFCURVE",
"132 677 CURVE SMOOTH"
);
},
{
closed = 1;
nodes = (
"575 1479 LINE",
"732 1479 LINE",
"1027 1840 LINE",
"735 1840 LINE"
);
}
);
width = 1253;
}
);
unicode = 0106;
},
{
glyphname = Ccaron;
layers = (
{
layerId = "280E06E1-9336-45D2-8B5F-14710EC8A5A0";
name = Bold;
paths = (
{
closed = 1;
nodes = (
"132 236 OFFCURVE",
"406 -18 OFFCURVE",
"788 -18 CURVE SMOOTH",
"933 -18 OFFCURVE",
"1025 13 OFFCURVE",
"1149 75 CURVE",
"1094 293 LINE",
"994 236 OFFCURVE",
"902 210 OFFCURVE",
"803 213 CURVE SMOOTH",
"568 220 OFFCURVE",
"420 380 OFFCURVE",
"420 671 CURVE SMOOTH",
"420 963 OFFCURVE",
"598 1110 OFFCURVE",
"765 1123 CURVE SMOOTH",
"883 1132 OFFCURVE",
"996 1088 OFFCURVE",
"1092 1033 CURVE",
"1175 1247 LINE",
"1053 1318 OFFCURVE",
"918 1357 OFFCURVE",
"779 1357 CURVE SMOOTH",
"404 1357 OFFCURVE",
"132 1114 OFFCURVE",
"132 677 CURVE SMOOTH"
);
},
{
closed = 1;
nodes = (
"558 1479 LINE",
"748 1479 LINE",
"996 1816 LINE",
"792 1816 LINE",
"642 1645 LINE",
"512 1816 LINE",
"310 1816 LINE"
);
}
);
width = 1253;
}
);
unicode = 010C;
},
{
glyphname = Ccedilla;
layers = (
{
layerId = "280E06E1-9336-45D2-8B5F-14710EC8A5A0";
name = Bold;
paths = (
{
closed = 1;
nodes = (
"746 -18 OFFCURVE",
"767 -18 OFFCURVE",
"788 -18 CURVE SMOOTH",
"933 -18 OFFCURVE",
"1025 13 OFFCURVE",
"1149 75 CURVE",
"1094 293 LINE",
"994 236 OFFCURVE",
"902 210 OFFCURVE",
"803 213 CURVE SMOOTH",
"568 220 OFFCURVE",
"420 380 OFFCURVE",
"420 671 CURVE SMOOTH",
"420 963 OFFCURVE",
"598 1110 OFFCURVE",
"765 1123 CURVE SMOOTH",
"883 1132 OFFCURVE",
"996 1088 OFFCURVE",
"1092 1033 CURVE",
"1175 1247 LINE",
"1053 1318 OFFCURVE",
"918 1357 OFFCURVE",
"779 1357 CURVE SMOOTH",
"404 1357 OFFCURVE",
"132 1114 OFFCURVE",
"132 677 CURVE SMOOTH",
"132 291 OFFCURVE",
"341 49 OFFCURVE",
"649 -6 CURVE",
"727 -6 LINE",
"726 -16 LINE"
);
},
{
closed = 1;
nodes = (
"464 -363 LINE",
"673 -363 LINE",
"726 -16 LINE",
"700 -14 OFFCURVE",
"674 -10 OFFCURVE",
"649 -6 CURVE",
"580 -6 LINE"
);
}
);
width = 1253;
}
);
unicode = 00C7;
},
{
glyphname = Ccircumflex;
layers = (
{
layerId = "280E06E1-9336-45D2-8B5F-14710EC8A5A0";
name = Bold;
paths = (
{
closed = 1;
nodes = (
"132 236 OFFCURVE",
"406 -18 OFFCURVE",
"788 -18 CURVE SMOOTH",
"933 -18 OFFCURVE",
"1025 13 OFFCURVE",
"1149 75 CURVE",
"1094 293 LINE",
"994 236 OFFCURVE",
"902 210 OFFCURVE",
"803 213 CURVE SMOOTH",
"568 220 OFFCURVE",
"420 380 OFFCURVE",
"420 671 CURVE SMOOTH",
"420 963 OFFCURVE",
"598 1110 OFFCURVE",
"765 1123 CURVE SMOOTH",
"883 1132 OFFCURVE",
"996 1088 OFFCURVE",
"1092 1033 CURVE",
"1175 1247 LINE",
"1053 1318 OFFCURVE",
"918 1357 OFFCURVE",
"779 1357 CURVE SMOOTH",
"404 1357 OFFCURVE",
"132 1114 OFFCURVE",
"132 677 CURVE SMOOTH"
);
},
{
closed = 1;
nodes = (
"320 1479 LINE",
"501 1479 LINE",
"643 1673 LINE",
"801 1479 LINE",
"987 1479 LINE",
"751 1847 LINE",
"555 1847 LINE"
);
}
);
width = 1253;
}
);
unicode = 0108;
},
{
glyphname = Cdotaccent;
layers = (
{
layerId = "280E06E1-9336-45D2-8B5F-14710EC8A5A0";
name = Bold;
paths = (
{
closed = 1;
nodes = (
"132 236 OFFCURVE",
"406 -18 OFFCURVE",
"788 -18 CURVE SMOOTH",
"933 -18 OFFCURVE",
"1025 13 OFFCURVE",
"1149 75 CURVE",
"1094 293 LINE",
"994 236 OFFCURVE",
"902 210 OFFCURVE",
"803 213 CURVE SMOOTH",
"568 220 OFFCURVE",
"420 380 OFFCURVE",
"420 671 CURVE SMOOTH",
"420 963 OFFCURVE",
"598 1110 OFFCURVE",
"765 1123 CURVE SMOOTH",
"883 1132 OFFCURVE",
"996 1088 OFFCURVE",
"1092 1033 CURVE",
"1175 1247 LINE",
"1053 1318 OFFCURVE",
"918 1357 OFFCURVE",
"779 1357 CURVE SMOOTH",
"404 1357 OFFCURVE",
"132 1114 OFFCURVE",
"132 677 CURVE SMOOTH"
);
},
{
closed = 1;
nodes = (
"554 1479 LINE",
"752 1479 LINE",
"752 1691 LINE",
"554 1691 LINE"
);
}
);
width = 1253;
}
);
unicode = 010A;
},
{
glyphname = D;
lastChange = "2013-02-09 20:47:51 -0800";
layers = (
{
anchors = (
{
name = center;
position = "{755, 0}";
},
{
name = top;
position = "{755, 0}";
}
);
layerId = "280E06E1-9336-45D2-8B5F-14710EC8A5A0";
name = Bold;
paths = (
{
closed = 1;
nodes = (
"468 141 LINE",
"468 1194 LINE",
"400 1126 LINE",
"608 1126 LINE SMOOTH",
"916 1126 OFFCURVE",
"1084 992 OFFCURVE",
"1084 671 CURVE SMOOTH",
"1084 377 OFFCURVE",
"924 216 OFFCURVE",
"634 216 CURVE SMOOTH",
"401 216 LINE"
);
},
{
closed = 1;
nodes = (
"180 0 LINE",
"620 0 LINE SMOOTH",
"1063 0 OFFCURVE",
"1371 238 OFFCURVE",
"1371 676 CURVE SMOOTH",
"1371 1130 OFFCURVE",
"1046 1336 OFFCURVE",
"597 1336 CURVE SMOOTH",
"180 1336 LINE"
);
}
);
width = 1493;
}
);
unicode = 0044;
},
{
glyphname = Eth;
layers = (
{
layerId = "280E06E1-9336-45D2-8B5F-14710EC8A5A0";
name = Bold;
paths = (
{
closed = 1;
nodes = (
"367 211 LINE",
"367 590 LINE",
"542 590 LINE",
"542 772 LINE",
"367 772 LINE",
"367 1135 LINE",
"484 1135 LINE SMOOTH",
"842 1135 OFFCURVE",
"1027 1025 OFFCURVE",
"1027 669 CURVE SMOOTH",
"1027 372 OFFCURVE",
"862 211 OFFCURVE",
"565 211 CURVE SMOOTH"
);
},
{
closed = 1;
nodes = (
"110 1 LINE",
"549 1 LINE SMOOTH",
"984 1 OFFCURVE",
"1288 230 OFFCURVE",
"1288 668 CURVE SMOOTH",
"1288 1163 OFFCURVE",
"948 1340 OFFCURVE",
"467 1340 CURVE SMOOTH",
"110 1340 LINE",
"110 768 LINE",
"-1 768 LINE",
"-1 586 LINE",
"110 586 LINE"
);
}
);
width = 1340;
}
);
unicode = 00D0;
},
{
glyphname = Dcaron;
layers = (
{
layerId = "280E06E1-9336-45D2-8B5F-14710EC8A5A0";
name = Bold;
paths = (
{
closed = 1;
nodes = (
"683 1479 LINE",
"873 1479 LINE",
"1121 1816 LINE",
"916 1816 LINE",
"766 1645 LINE",
"636 1816 LINE",
"435 1816 LINE"
);
},
{
closed = 1;
nodes = (
"490 216 LINE",
"490 1126 LINE",
"611 1126 LINE SMOOTH",
"919 1126 OFFCURVE",
"1067 992 OFFCURVE",
"1067 671 CURVE SMOOTH",
"1067 377 OFFCURVE",
"927 216 OFFCURVE",
"637 216 CURVE SMOOTH"
);
},
{
closed = 1;
nodes = (
"202 0 LINE",
"623 0 LINE SMOOTH",
"1066 0 OFFCURVE",
"1354 238 OFFCURVE",
"1354 676 CURVE SMOOTH",
"1354 1130 OFFCURVE",
"1049 1336 OFFCURVE",
"600 1336 CURVE SMOOTH",
"202 1336 LINE"
);
}
);
width = 1486;
}
);
unicode = 010E;
},
{
glyphname = E;
layers = (
{
anchors = (
{
name = bottom;
position = "{621, 0}";
},
{
name = ogonek;
position = "{1117, 10}";
},
{
name = top;
position = "{621, 0}";
}
);
layerId = "280E06E1-9336-45D2-8B5F-14710EC8A5A0";
name = Bold;
paths = (
{
closed = 1;
nodes = (
"180 0 LINE",
"1060 0 LINE",
"1077 216 LINE",
"1077 216 OFFCURVE",
"393 216 OFFCURVE",
"393 216 CURVE",
"468 143 LINE",
"468 676 LINE",
"392 595 LINE",
"1029 595 LINE",
"1029 805 LINE",
"393 805 LINE",
"468 731 LINE",
"468 1202 LINE",
"392 1126 LINE",
"1056 1126 LINE",
"1067 1336 LINE",
"180 1336 LINE"
);
}
);
width = 1241;
}
);
unicode = 0045;
},
{
glyphname = Eacute;
layers = (
{
layerId = "280E06E1-9336-45D2-8B5F-14710EC8A5A0";
name = Bold;
paths = (
{
closed = 1;
nodes = (
"202 0 LINE",
"1025 0 LINE",
"1042 216 LINE",
"490 216 LINE",
"490 595 LINE",
"994 595 LINE",
"994 805 LINE",
"490 805 LINE",
"490 1126 LINE",
"1021 1126 LINE",
"1032 1336 LINE",
"202 1336 LINE"
);
},
{
closed = 1;
nodes = (
"544 1479 LINE",
"700 1479 LINE",
"996 1840 LINE",
"704 1840 LINE"
);
}
);
width = 1164;
}
);
unicode = 00C9;
},
{
glyphname = Ebreve;
layers = (
{
layerId = "280E06E1-9336-45D2-8B5F-14710EC8A5A0";
name = Bold;
paths = (
{
closed = 1;
nodes = (
"202 0 LINE",
"1025 0 LINE",
"1042 216 LINE",
"490 216 LINE",
"490 595 LINE",
"994 595 LINE",
"994 805 LINE",
"490 805 LINE",
"490 1126 LINE",
"1021 1126 LINE",
"1032 1336 LINE",
"202 1336 LINE"
);
},
{
closed = 1;
nodes = (
"353 1557 OFFCURVE",
"469 1479 OFFCURVE",
"621 1479 CURVE SMOOTH",
"774 1479 OFFCURVE",
"891 1556 OFFCURVE",
"891 1722 CURVE",
"722 1722 LINE",
"722 1661 OFFCURVE",
"695 1637 OFFCURVE",
"621 1637 CURVE SMOOTH",
"547 1637 OFFCURVE",
"521 1661 OFFCURVE",
"521 1722 CURVE",
"353 1722 LINE"
);
}
);
width = 1164;
}
);
unicode = 0114;
},
{
glyphname = Ecaron;
layers = (
{
layerId = "280E06E1-9336-45D2-8B5F-14710EC8A5A0";
name = Bold;
paths = (
{
closed = 1;
nodes = (
"202 0 LINE",
"1025 0 LINE",
"1042 216 LINE",
"490 216 LINE",
"490 595 LINE",
"994 595 LINE",
"994 805 LINE",
"490 805 LINE",
"490 1126 LINE",
"1021 1126 LINE",
"1032 1336 LINE",
"202 1336 LINE"
);
},
{
closed = 1;
nodes = (
"527 1479 LINE",
"717 1479 LINE",
"965 1816 LINE",
"760 1816 LINE",
"610 1645 LINE",
"480 1816 LINE",
"279 1816 LINE"
);
}
);
width = 1164;
}
);
unicode = 011A;
},
{
glyphname = Ecircumflex;
layers = (
{
layerId = "280E06E1-9336-45D2-8B5F-14710EC8A5A0";
name = Bold;
paths = (
{
closed = 1;
nodes = (
"202 0 LINE",
"1025 0 LINE",
"1042 216 LINE",
"490 216 LINE",
"490 595 LINE",
"994 595 LINE",
"994 805 LINE",
"490 805 LINE",
"490 1126 LINE",
"1021 1126 LINE",
"1032 1336 LINE",
"202 1336 LINE"
);
},
{
closed = 1;
nodes = (
"288 1479 LINE",
"470 1479 LINE",
"612 1673 LINE",
"770 1479 LINE",
"956 1479 LINE",
"720 1847 LINE",
"524 1847 LINE"
);
}
);
width = 1164;
}
);
unicode = 00CA;
},
{
glyphname = Edieresis;
layers = (
{
layerId = "280E06E1-9336-45D2-8B5F-14710EC8A5A0";
name = Bold;
paths = (
{
closed = 1;
nodes = (
"202 0 LINE",
"1025 0 LINE",
"1042 216 LINE",
"490 216 LINE",
"490 595 LINE",
"994 595 LINE",
"994 805 LINE",
"490 805 LINE",
"490 1126 LINE",
"1021 1126 LINE",
"1032 1336 LINE",
"202 1336 LINE"
);
},
{
closed = 1;
nodes = (
"338 1479 LINE",
"532 1479 LINE",
"532 1724 LINE",
"338 1724 LINE"
);
},
{
closed = 1;
nodes = (
"714 1479 LINE",
"906 1479 LINE",
"906 1724 LINE",
"714 1724 LINE"
);
}
);
width = 1164;
}
);
unicode = 00CB;
},
{
glyphname = Edotaccent;
layers = (
{
layerId = "280E06E1-9336-45D2-8B5F-14710EC8A5A0";
name = Bold;
paths = (
{
closed = 1;
nodes = (
"202 0 LINE",
"1025 0 LINE",
"1042 216 LINE",
"490 216 LINE",
"490 595 LINE",
"994 595 LINE",
"994 805 LINE",
"490 805 LINE",
"490 1126 LINE",
"1021 1126 LINE",
"1032 1336 LINE",
"202 1336 LINE"
);
},
{
closed = 1;
nodes = (
"523 1479 LINE",
"721 1479 LINE",
"721 1691 LINE",
"523 1691 LINE"
);
}
);
width = 1164;
}
);
unicode = 0116;
},
{
glyphname = Egrave;
layers = (
{
layerId = "280E06E1-9336-45D2-8B5F-14710EC8A5A0";
name = Bold;
paths = (
{
closed = 1;
nodes = (
"202 0 LINE",
"1025 0 LINE",
"1042 216 LINE",
"490 216 LINE",
"490 595 LINE",
"994 595 LINE",
"994 805 LINE",
"490 805 LINE",
"490 1126 LINE",
"1021 1126 LINE",
"1032 1336 LINE",
"202 1336 LINE"
);
},
{
closed = 1;
nodes = (
"540 1479 LINE",
"704 1479 LINE",
"528 1840 LINE",
"228 1840 LINE"
);
}
);
width = 1164;
}
);
unicode = 00C8;
},
{
glyphname = Emacron;
layers = (
{
layerId = "280E06E1-9336-45D2-8B5F-14710EC8A5A0";
name = Bold;
paths = (
{
closed = 1;
nodes = (
"202 0 LINE",
"1025 0 LINE",
"1042 216 LINE",
"490 216 LINE",
"490 595 LINE",
"994 595 LINE",
"994 805 LINE",
"490 805 LINE",
"490 1126 LINE",
"1021 1126 LINE",
"1032 1336 LINE",
"202 1336 LINE"
);
},
{
closed = 1;
nodes = (
"298 1479 LINE",
"946 1479 LINE",
"946 1638 LINE",
"298 1638 LINE"
);
}
);
width = 1164;
}
);
unicode = 0112;
},
{
glyphname = Eogonek;
layers = (
{
layerId = "280E06E1-9336-45D2-8B5F-14710EC8A5A0";
name = Bold;
paths = (
{
closed = 1;
nodes = (
"448 -339 OFFCURVE",
"539 -393 OFFCURVE",
"643 -393 CURVE SMOOTH",
"702 -393 OFFCURVE",
"763 -378 OFFCURVE",
"818 -357 CURVE",
"818 -357 OFFCURVE",
"811 -216 OFFCURVE",
"810 -216 CURVE SMOOTH",
"798 -221 OFFCURVE",
"739 -247 OFFCURVE",
"687 -247 CURVE SMOOTH",
"649 -247 OFFCURVE",
"623 -212 OFFCURVE",
"623 -178 CURVE SMOOTH",
"623 -123 OFFCURVE",
"655 -59 OFFCURVE",
"729 -2 CURVE",
"713 0 LINE",
"1025 0 LINE",
"1042 216 LINE",
"490 216 LINE",
"490 595 LINE",
"994 595 LINE",
"994 805 LINE",
"490 805 LINE",
"490 1126 LINE",
"1021 1126 LINE",
"1032 1336 LINE",
"202 1336 LINE",
"202 0 LINE",
"600 0 LINE",
"532 -43 OFFCURVE",
"448 -114 OFFCURVE",
"448 -225 CURVE SMOOTH"
);
}
);
width = 1164;
}
);
unicode = 0118;
},
{
glyphname = F;
layers = (
{
layerId = "280E06E1-9336-45D2-8B5F-14710EC8A5A0";
name = Bold;
paths = (
{
closed = 1;
nodes = (
"180 0 LINE",
"468 0 LINE",
"468 652 LINE",
"372 556 LINE",
"1023 556 LINE",
"1023 765 LINE",
"368 765 LINE",
"468 690 LINE",
"468 1204 LINE",
"363 1116 LINE",
"1079 1116 LINE",
"1091 1336 LINE",
"180 1336 LINE"
);
}
);
width = 1175;
}
);
unicode = 0046;
},
{
glyphname = G;
layers = (
{
anchors = (
{
name = bottom;
position = "{719, 0}";
},
{
name = top;
position = "{719, 0}";
}
);
layerId = "280E06E1-9336-45D2-8B5F-14710EC8A5A0";
name = Bold;
paths = (
{
closed = 1;
nodes = (
"138 248 OFFCURVE",
"384 -18 OFFCURVE",
"784 -18 CURVE SMOOTH",
"967 -18 OFFCURVE",
"1116 17 OFFCURVE",
"1264 82 CURVE",
"1264 727 LINE",
"731 727 LINE",
"731 519 LINE",
"1085 519 LINE",
"1017 587 LINE",
"1017 159 LINE",
"1095 287 LINE",
"1034 254 OFFCURVE",
"983 213 OFFCURVE",
"795 213 CURVE SMOOTH",
"540 213 OFFCURVE",
"426 383 OFFCURVE",
"426 670 CURVE SMOOTH",
"426 964 OFFCURVE",
"553 1139 OFFCURVE",
"815 1129 CURVE SMOOTH",
"939 1124 OFFCURVE",
"1060 1090 OFFCURVE",
"1157 1042 CURVE",
"1246 1253 LINE",
"1118 1317 OFFCURVE",
"974 1357 OFFCURVE",
"810 1357 CURVE SMOOTH",
"388 1357 OFFCURVE",
"138 1105 OFFCURVE",
"138 672 CURVE SMOOTH"
);
}
);
width = 1437;
}
);
unicode = 0047;
},
{
glyphname = Gbreve;
layers = (
{
layerId = "280E06E1-9336-45D2-8B5F-14710EC8A5A0";
name = Bold;
paths = (
{
closed = 1;
nodes = (
"132 248 OFFCURVE",
"378 -18 OFFCURVE",
"778 -18 CURVE SMOOTH",
"961 -18 OFFCURVE",
"1093 17 OFFCURVE",
"1241 82 CURVE",
"1241 727 LINE",
"725 727 LINE",
"725 519 LINE",
"994 519 LINE",
"994 245 LINE",
"931 222 OFFCURVE",
"868 213 OFFCURVE",
"789 213 CURVE SMOOTH",
"534 213 OFFCURVE",
"420 383 OFFCURVE",
"420 670 CURVE SMOOTH",
"420 964 OFFCURVE",
"547 1139 OFFCURVE",
"809 1129 CURVE SMOOTH",
"933 1124 OFFCURVE",
"1037 1090 OFFCURVE",
"1134 1042 CURVE",
"1223 1253 LINE",
"1095 1317 OFFCURVE",
"968 1357 OFFCURVE",
"804 1357 CURVE SMOOTH",
"382 1357 OFFCURVE",
"132 1105 OFFCURVE",
"132 672 CURVE SMOOTH"
);
},
{
closed = 1;
nodes = (
"418 1557 OFFCURVE",
"534 1479 OFFCURVE",
"686 1479 CURVE SMOOTH",
"839 1479 OFFCURVE",
"956 1556 OFFCURVE",
"956 1722 CURVE",
"786 1722 LINE",
"786 1661 OFFCURVE",
"760 1637 OFFCURVE",
"686 1637 CURVE SMOOTH",
"612 1637 OFFCURVE",
"586 1661 OFFCURVE",
"586 1722 CURVE",
"418 1722 LINE"
);
}
);
width = 1391;
}
);
unicode = 011E;
},
{
glyphname = Gcaron;
layers = (
{
layerId = "280E06E1-9336-45D2-8B5F-14710EC8A5A0";
name = Bold;
paths = (
{
closed = 1;
nodes = (
"132 248 OFFCURVE",
"378 -18 OFFCURVE",
"778 -18 CURVE SMOOTH",
"961 -18 OFFCURVE",
"1093 17 OFFCURVE",
"1241 82 CURVE",
"1241 727 LINE",
"725 727 LINE",
"725 519 LINE",
"994 519 LINE",
"994 245 LINE",
"931 222 OFFCURVE",
"868 213 OFFCURVE",
"789 213 CURVE SMOOTH",
"534 213 OFFCURVE",
"420 383 OFFCURVE",
"420 670 CURVE SMOOTH",
"420 964 OFFCURVE",
"547 1139 OFFCURVE",
"809 1129 CURVE SMOOTH",
"933 1124 OFFCURVE",
"1037 1090 OFFCURVE",
"1134 1042 CURVE",
"1223 1253 LINE",
"1095 1317 OFFCURVE",
"968 1357 OFFCURVE",
"804 1357 CURVE SMOOTH",
"382 1357 OFFCURVE",
"132 1105 OFFCURVE",
"132 672 CURVE SMOOTH"
);
},
{
closed = 1;
nodes = (
"592 1479 LINE",
"782 1479 LINE",
"1030 1816 LINE",
"824 1816 LINE",
"674 1645 LINE",
"544 1816 LINE",
"344 1816 LINE"
);
}
);
width = 1391;
}
);
unicode = 01E6;
},
{
glyphname = Gcircumflex;
layers = (
{
layerId = "280E06E1-9336-45D2-8B5F-14710EC8A5A0";
name = Bold;
paths = (
{
closed = 1;
nodes = (
"132 248 OFFCURVE",
"378 -18 OFFCURVE",
"778 -18 CURVE SMOOTH",
"961 -18 OFFCURVE",
"1093 17 OFFCURVE",
"1241 82 CURVE",
"1241 727 LINE",
"725 727 LINE",
"725 519 LINE",
"994 519 LINE",
"994 245 LINE",
"931 222 OFFCURVE",
"868 213 OFFCURVE",
"789 213 CURVE SMOOTH",
"534 213 OFFCURVE",
"420 383 OFFCURVE",
"420 670 CURVE SMOOTH",
"420 964 OFFCURVE",
"547 1139 OFFCURVE",
"809 1129 CURVE SMOOTH",
"933 1124 OFFCURVE",
"1037 1090 OFFCURVE",
"1134 1042 CURVE",
"1223 1253 LINE",
"1095 1317 OFFCURVE",
"968 1357 OFFCURVE",
"804 1357 CURVE SMOOTH",
"382 1357 OFFCURVE",
"132 1105 OFFCURVE",
"132 672 CURVE SMOOTH"
);
},
{
closed = 1;
nodes = (
"353 1479 LINE",
"534 1479 LINE",
"676 1673 LINE",
"834 1479 LINE",
"1020 1479 LINE",
"784 1847 LINE",
"588 1847 LINE"
);
}
);
width = 1391;
}
);
unicode = 011C;
},
{
glyphname = Gcommaaccent;
layers = (
{
layerId = "280E06E1-9336-45D2-8B5F-14710EC8A5A0";
name = Bold;
paths = (
{
closed = 1;
nodes = (
"132 248 OFFCURVE",
"378 -18 OFFCURVE",
"778 -18 CURVE SMOOTH",
"961 -18 OFFCURVE",
"1093 17 OFFCURVE",
"1241 82 CURVE",
"1241 727 LINE",
"725 727 LINE",
"725 519 LINE",
"994 519 LINE",
"994 245 LINE",
"931 222 OFFCURVE",
"868 213 OFFCURVE",
"789 213 CURVE SMOOTH",
"534 213 OFFCURVE",
"420 383 OFFCURVE",
"420 670 CURVE SMOOTH",
"420 964 OFFCURVE",
"547 1139 OFFCURVE",
"809 1129 CURVE SMOOTH",
"933 1124 OFFCURVE",
"1037 1090 OFFCURVE",
"1134 1042 CURVE",
"1223 1253 LINE",
"1095 1317 OFFCURVE",
"968 1357 OFFCURVE",
"804 1357 CURVE SMOOTH",
"382 1357 OFFCURVE",
"132 1105 OFFCURVE",
"132 672 CURVE SMOOTH"
);
},
{
closed = 1;
nodes = (
"525 -619 LINE",
"693 -619 LINE",
"848 -140 LINE",
"626 -140 LINE"
);
}
);
width = 1391;
}
);
unicode = 0122;
},
{
glyphname = Gdotaccent;
layers = (
{
layerId = "280E06E1-9336-45D2-8B5F-14710EC8A5A0";
name = Bold;
paths = (
{
closed = 1;
nodes = (
"132 248 OFFCURVE",
"378 -18 OFFCURVE",
"778 -18 CURVE SMOOTH",
"961 -18 OFFCURVE",
"1093 17 OFFCURVE",
"1241 82 CURVE",
"1241 727 LINE",
"725 727 LINE",
"725 519 LINE",
"994 519 LINE",
"994 245 LINE",
"931 222 OFFCURVE",
"868 213 OFFCURVE",
"789 213 CURVE SMOOTH",
"534 213 OFFCURVE",
"420 383 OFFCURVE",
"420 670 CURVE SMOOTH",
"420 964 OFFCURVE",
"547 1139 OFFCURVE",
"809 1129 CURVE SMOOTH",
"933 1124 OFFCURVE",
"1037 1090 OFFCURVE",
"1134 1042 CURVE",
"1223 1253 LINE",
"1095 1317 OFFCURVE",
"968 1357 OFFCURVE",
"804 1357 CURVE SMOOTH",
"382 1357 OFFCURVE",
"132 1105 OFFCURVE",
"132 672 CURVE SMOOTH"
);
},
{
closed = 1;
nodes = (
"588 1479 LINE",
"786 1479 LINE",
"786 1691 LINE",
"588 1691 LINE"
);
}
);
width = 1391;
}
);
unicode = 0120;
},
{
glyphname = H;
layers = (
{
anchors = (
{
name = center;
position = "{752, 0}";
},
{
name = top;
position = "{752, 0}";
}
);
layerId = "280E06E1-9336-45D2-8B5F-14710EC8A5A0";
name = Bold;
paths = (
{
closed = 1;
nodes = (
"180 0 LINE",
"468 0 LINE",
"468 656 LINE",
"389 578 LINE",
"1116 578 LINE",
"1035 656 LINE",
"1035 0 LINE",
"1323 0 LINE",
"1323 1336 LINE",
"1035 1336 LINE",
"1035 715 LINE",
"1110 793 LINE",
"388 793 LINE",
"468 715 LINE",
"468 1336 LINE",
"180 1336 LINE"
);
}
);
width = 1503;
}
);
unicode = 0048;
},
{
glyphname = Hbar;
layers = (
{
layerId = "280E06E1-9336-45D2-8B5F-14710EC8A5A0";
name = Bold;
paths = (
{
closed = 1;
nodes = (
"110 0 LINE",
"367 0 LINE",
"367 595 LINE",
"962 595 LINE",
"962 0 LINE",
"1220 0 LINE",
"1220 1068 LINE",
"1295 1068 LINE",
"1295 1205 LINE",
"1220 1205 LINE",
"1220 1335 LINE",
"962 1335 LINE",
"962 1205 LINE",
"367 1205 LINE",
"367 1335 LINE",
"110 1335 LINE",
"110 1205 LINE",
"35 1205 LINE",
"35 1068 LINE",
"110 1068 LINE"
);
},
{
closed = 1;
nodes = (
"367 788 LINE",
"367 1068 LINE",
"962 1068 LINE",
"962 788 LINE"
);
}
);
width = 1311;
}
);
unicode = 0126;
},
{
glyphname = Hcircumflex;
layers = (
{
layerId = "280E06E1-9336-45D2-8B5F-14710EC8A5A0";
name = Bold;
paths = (
{
closed = 1;
nodes = (
"202 0 LINE",
"490 0 LINE",
"490 578 LINE",
"1057 578 LINE",
"1057 0 LINE",
"1345 0 LINE",
"1345 1336 LINE",
"1057 1336 LINE",
"1057 793 LINE",
"490 793 LINE",
"490 1336 LINE",
"202 1336 LINE"
);
},
{
closed = 1;
nodes = (
"440 1479 LINE",
"621 1479 LINE",
"763 1673 LINE",
"921 1479 LINE",
"1107 1479 LINE",
"871 1847 LINE",
"675 1847 LINE"
);
}
);
width = 1547;
}
);
unicode = 0124;
},
{
glyphname = I;
layers = (
{
anchors = (
{
name = ogonek;
position = "{582, 10}";
},
{
name = top;
position = "{324, 0}";
}
);
layerId = "280E06E1-9336-45D2-8B5F-14710EC8A5A0";
name = Bold;
paths = (
{
closed = 1;
nodes = (
"180 0 LINE",
"468 0 LINE",
"468 1336 LINE",
"180 1336 LINE"
);
}
);
width = 647;
}
);
unicode = 0049;
},
{
glyphname = IJ;
layers = (
{
layerId = "280E06E1-9336-45D2-8B5F-14710EC8A5A0";
name = Bold;
paths = (
{
closed = 1;
nodes = (
"532 -292 OFFCURVE",
"564 -293 OFFCURVE",
"594 -293 CURVE SMOOTH",
"910 -293 OFFCURVE",
"1039 -153 OFFCURVE",
"1039 144 CURVE SMOOTH",
"1039 1342 LINE",
"751 1342 LINE",
"751 126 LINE SMOOTH",
"751 -21 OFFCURVE",
"724 -84 OFFCURVE",
"592 -84 CURVE SMOOTH",
"569 -84 OFFCURVE",
"528 -82 OFFCURVE",
"489 -75 CURVE",
"501 -285 LINE"
);
},
{
closed = 1;
nodes = (
"130 0 LINE",
"418 0 LINE",
"418 1342 LINE",
"130 1342 LINE"
);
}
);
width = 1083;
}
);
unicode = 0132;
},
{
glyphname = Iacute;
layers = (
{
layerId = "280E06E1-9336-45D2-8B5F-14710EC8A5A0";
name = Bold;
paths = (
{
closed = 1;
nodes = (
"202 0 LINE",
"490 0 LINE",
"490 1336 LINE",
"202 1336 LINE"
);
},
{
closed = 1;
nodes = (
"268 1479 LINE",
"424 1479 LINE",
"720 1840 LINE",
"428 1840 LINE"
);
}
);
width = 692;
}
);
unicode = 00CD;
},
{
glyphname = Ibreve;
layers = (
{
layerId = "280E06E1-9336-45D2-8B5F-14710EC8A5A0";
name = Bold;
paths = (
{
closed = 1;
nodes = (
"77 1557 OFFCURVE",
"193 1479 OFFCURVE",
"345 1479 CURVE SMOOTH",
"498 1479 OFFCURVE",
"615 1556 OFFCURVE",
"615 1722 CURVE",
"446 1722 LINE",
"446 1661 OFFCURVE",
"419 1637 OFFCURVE",
"345 1637 CURVE SMOOTH",
"271 1637 OFFCURVE",
"245 1661 OFFCURVE",
"245 1722 CURVE",
"77 1722 LINE"
);
},
{
closed = 1;
nodes = (
"202 0 LINE",
"490 0 LINE",
"490 1336 LINE",
"202 1336 LINE"
);
}
);
width = 692;
}
);
unicode = 012C;
},
{
glyphname = Icircumflex;
layers = (
{
layerId = "280E06E1-9336-45D2-8B5F-14710EC8A5A0";
name = Bold;
paths = (
{
closed = 1;
nodes = (
"12 1479 LINE",
"194 1479 LINE",
"336 1673 LINE",
"494 1479 LINE",
"680 1479 LINE",
"444 1847 LINE",
"248 1847 LINE"
);
},
{
closed = 1;
nodes = (
"202 0 LINE",
"490 0 LINE",
"490 1336 LINE",
"202 1336 LINE"
);
}
);
width = 692;
}
);
unicode = 00CE;
},
{
glyphname = Idieresis;
layers = (
{
layerId = "280E06E1-9336-45D2-8B5F-14710EC8A5A0";
name = Bold;
paths = (
{
closed = 1;
nodes = (
"62 1479 LINE",
"256 1479 LINE",
"256 1724 LINE",
"62 1724 LINE"
);
},
{
closed = 1;
nodes = (
"202 0 LINE",
"490 0 LINE",
"490 1336 LINE",
"202 1336 LINE"
);
},
{
closed = 1;
nodes = (
"438 1479 LINE",
"630 1479 LINE",
"630 1724 LINE",
"438 1724 LINE"
);
}
);
width = 692;
}
);
unicode = 00CF;
},
{
glyphname = Idotaccent;
layers = (
{
layerId = "280E06E1-9336-45D2-8B5F-14710EC8A5A0";
name = Bold;
paths = (
{
closed = 1;
nodes = (
"202 0 LINE",
"490 0 LINE",
"490 1336 LINE",
"202 1336 LINE"
);
},
{
closed = 1;
nodes = (
"247 1479 LINE",
"445 1479 LINE",
"445 1691 LINE",
"247 1691 LINE"
);
}
);
width = 692;
}
);
unicode = 0130;
},
{
glyphname = Igrave;
layers = (
{
layerId = "280E06E1-9336-45D2-8B5F-14710EC8A5A0";
name = Bold;
paths = (
{
closed = 1;
nodes = (
"264 1479 LINE",
"428 1479 LINE",
"252 1840 LINE",
"-48 1840 LINE"
);
},
{
closed = 1;
nodes = (
"202 0 LINE",
"490 0 LINE",
"490 1336 LINE",
"202 1336 LINE"
);
}
);
width = 692;
}
);
unicode = 00CC;
},
{
glyphname = Imacron;
layers = (
{
layerId = "280E06E1-9336-45D2-8B5F-14710EC8A5A0";
name = Bold;
paths = (
{
closed = 1;
nodes = (
"202 0 LINE",
"490 0 LINE",
"490 1336 LINE",
"202 1336 LINE"
);
},
{
closed = 1;
nodes = (
"22 1479 LINE",
"670 1479 LINE",
"670 1638 LINE",
"22 1638 LINE"
);
}
);
width = 692;
}
);
unicode = 012A;
},
{
glyphname = Iogonek;
layers = (
{
layerId = "280E06E1-9336-45D2-8B5F-14710EC8A5A0";
name = Bold;
paths = (
{
closed = 1;
nodes = (
"118 -339 OFFCURVE",
"210 -393 OFFCURVE",
"314 -393 CURVE SMOOTH",
"373 -393 OFFCURVE",
"433 -378 OFFCURVE",
"488 -357 CURVE",
"488 -357 OFFCURVE",
"481 -216 OFFCURVE",
"480 -216 CURVE SMOOTH",
"468 -221 OFFCURVE",
"410 -247 OFFCURVE",
"358 -247 CURVE SMOOTH",
"320 -247 OFFCURVE",
"294 -212 OFFCURVE",
"294 -178 CURVE SMOOTH",
"294 -123 OFFCURVE",
"326 -59 OFFCURVE",
"400 -2 CURVE",
"383 0 LINE",
"490 0 LINE",
"490 1336 LINE",
"202 1336 LINE",
"202 0 LINE",
"270 0 LINE",
"202 -43 OFFCURVE",
"118 -114 OFFCURVE",
"118 -225 CURVE SMOOTH"
);
}
);
width = 692;
}
);
unicode = 012E;
},
{
glyphname = Itilde;
layers = (
{
layerId = "280E06E1-9336-45D2-8B5F-14710EC8A5A0";
name = Bold;
paths = (
{
closed = 1;
nodes = (
"178 1479 LINE",
"178 1479 OFFCURVE",
"191 1569 OFFCURVE",
"212 1569 CURVE SMOOTH",
"269 1569 OFFCURVE",
"403 1479 OFFCURVE",
"504 1479 CURVE SMOOTH",
"652 1479 OFFCURVE",
"662 1721 OFFCURVE",
"662 1721 CURVE",
"512 1721 LINE",
"512 1721 OFFCURVE",
"500 1637 OFFCURVE",
"480 1636 CURVE",
"449 1636 OFFCURVE",
"313 1721 OFFCURVE",
"192 1721 CURVE SMOOTH",
"44 1721 OFFCURVE",
"30 1583 OFFCURVE",
"30 1489 CURVE"
);
},
{
closed = 1;
nodes = (
"202 0 LINE",
"490 0 LINE",
"490 1336 LINE",
"202 1336 LINE"
);
}
);
width = 692;
}
);
unicode = 0128;
},
{
glyphname = J;
layers = (
{
anchors = (
{
name = top;
position = "{542, 0}";
}
);
layerId = "280E06E1-9336-45D2-8B5F-14710EC8A5A0";
name = Bold;
paths = (
{
closed = 1;
nodes = (
"204 7 OFFCURVE",
"331 -19 OFFCURVE",
"440 -19 CURVE SMOOTH",
"716 -19 OFFCURVE",
"909 142 OFFCURVE",
"909 354 CURVE SMOOTH",
"909 1336 LINE",
"621 1336 LINE",
"621 416 LINE SMOOTH",
"621 313 OFFCURVE",
"565 210 OFFCURVE",
"401 210 CURVE SMOOTH",
"331 210 OFFCURVE",
"240 229 OFFCURVE",
"123 275 CURVE",
"72 65 LINE"
);
}
);
width = 1083;
}
);
unicode = 004A;
},
{
glyphname = Jcircumflex;
layers = (
{
layerId = "280E06E1-9336-45D2-8B5F-14710EC8A5A0";
name = Bold;
paths = (
{
closed = 1;
nodes = (
"-30 1479 LINE",
"150 1479 LINE",
"292 1673 LINE",
"450 1479 LINE",
"636 1479 LINE",
"400 1847 LINE",
"204 1847 LINE"
);
},
{
closed = 1;
nodes = (
"40 -285 LINE",
"401 -282 OFFCURVE",
"578 -153 OFFCURVE",
"578 144 CURVE SMOOTH",
"578 1336 LINE",
"290 1336 LINE",
"290 126 LINE SMOOTH",
"290 -21 OFFCURVE",
"207 -69 OFFCURVE",
"28 -75 CURVE"
);
}
);
width = 780;
}
);
unicode = 0134;
},
{
glyphname = K;
layers = (
{
anchors = (
{
name = bottom;
position = "{700, 0}";
},
{
name = top;
position = "{700, 0}";
}
);
layerId = "280E06E1-9336-45D2-8B5F-14710EC8A5A0";
name = Bold;
paths = (
{
closed = 1;
nodes = (
"180 0 LINE",
"468 0 LINE",
"468 595 LINE",
"416 463 LINE",
"649 660 LINE",
"544 672 LINE",
"1018 0 LINE",
"1349 0 LINE",
"755 813 LINE",
"755 667 LINE",
"1317 1336 LINE",
"985 1336 LINE",
"404 673 LINE",
"468 664 LINE",
"468 1336 LINE",
"180 1336 LINE"
);
}
);
width = 1400;
}
);
unicode = 004B;
},
{
glyphname = Kcommaaccent;
layers = (
{
layerId = "280E06E1-9336-45D2-8B5F-14710EC8A5A0";
name = Bold;
paths = (
{
closed = 1;
nodes = (
"202 0 LINE",
"490 0 LINE",
"490 537 LINE",
"561 611 LINE",
"974 0 LINE",
"1300 0 LINE",
"798 732 LINE",
"1290 1336 LINE",
"958 1336 LINE",
"490 775 LINE",
"490 1336 LINE",
"202 1336 LINE"
);
},
{
closed = 1;
nodes = (
"590 -601 LINE",
"758 -601 LINE",
"912 -122 LINE",
"690 -122 LINE"
);
}
);
width = 1361;
}
);
unicode = 0136;
},
{
glyphname = L;
layers = (
{
anchors = (
{
name = bottom;
position = "{577, 0}";
},
{
name = top;
position = "{577, 0}";
}
);
layerId = "280E06E1-9336-45D2-8B5F-14710EC8A5A0";
name = Bold;
paths = (
{
closed = 1;
nodes = (
"180 0 LINE",
"1059 0 LINE",
"1073 216 LINE",
"374 216 LINE",
"468 122 LINE",
"468 1336 LINE",
"180 1336 LINE"
);
}
);
width = 1153;
}
);
unicode = 004C;
},
{
glyphname = Lacute;
layers = (
{
layerId = "280E06E1-9336-45D2-8B5F-14710EC8A5A0";
name = Bold;
paths = (
{
closed = 1;
nodes = (
"202 0 LINE",
"1009 0 LINE",
"1023 216 LINE",
"490 216 LINE",
"490 1336 LINE",
"202 1336 LINE"
);
},
{
closed = 1;
nodes = (
"534 1479 LINE",
"691 1479 LINE",
"986 1840 LINE",
"694 1840 LINE"
);
}
);
width = 1103;
}
);
unicode = 0139;
},
{
glyphname = Lcaron;
layers = (
{
layerId = "280E06E1-9336-45D2-8B5F-14710EC8A5A0";
name = Bold;
paths = (
{
closed = 1;
nodes = (
"202 0 LINE",
"1009 0 LINE",
"1023 216 LINE",
"490 216 LINE",
"490 1336 LINE",
"202 1336 LINE"
);
},
{
closed = 1;
nodes = (
"1212 877 LINE",
"1357 877 LINE",
"1408 1357 LINE",
"1206 1357 LINE"
);
}
);
width = 1103;
}
);
unicode = 013D;
},
{
glyphname = Lcommaaccent;
layers = (
{
layerId = "280E06E1-9336-45D2-8B5F-14710EC8A5A0";
name = Bold;
paths = (
{
closed = 1;
nodes = (
"202 0 LINE",
"1009 0 LINE",
"1023 216 LINE",
"490 216 LINE",
"490 1336 LINE",
"202 1336 LINE"
);
},
{
closed = 1;
nodes = (
"451 -601 LINE",
"619 -601 LINE",
"774 -122 LINE",
"552 -122 LINE"
);
}
);
width = 1103;
}
);
unicode = 013B;
},
{
glyphname = Ldot;
layers = (
{
layerId = "280E06E1-9336-45D2-8B5F-14710EC8A5A0";
name = Bold;
paths = (
{
closed = 1;
nodes = (
"128 0 LINE",
"946 0 LINE",
"953 213 LINE",
"416 213 LINE",
"416 1342 LINE",
"128 1342 LINE"
);
}
);
width = 937;
}
);
unicode = 013F;
},
{
glyphname = Lslash;
layers = (
{
layerId = "280E06E1-9336-45D2-8B5F-14710EC8A5A0";
name = Bold;
paths = (
{
closed = 1;
nodes = (
"111 0 LINE",
"898 0 LINE",
"913 203 LINE",
"366 203 LINE",
"366 678 LINE",
"649 845 LINE",
"649 1029 LINE",
"646 1032 LINE",
"366 869 LINE",
"366 1340 LINE",
"111 1340 LINE",
"111 714 LINE",
"-24 634 LINE",
"-24 443 LINE",
"111 524 LINE"
);
}
);
width = 885;
}
);
unicode = 0141;
},
{
glyphname = M;
layers = (
{
layerId = "280E06E1-9336-45D2-8B5F-14710EC8A5A0";
name = Bold;
paths = (
{
closed = 1;
nodes = (
"180 0 LINE",
"454 0 LINE",
"464 484 LINE",
"447 976 LINE",
"397 976 LINE",
"811 196 LINE",
"1018 196 LINE",
"1444 976 LINE",
"1393 976 LINE",
"1375 487 LINE",
"1385 0 LINE",
"1658 0 LINE",
"1638 1336 LINE",
"1359 1336 LINE",
"871 418 LINE",
"967 418 LINE",
"484 1336 LINE",
"200 1336 LINE"
);
}
);
width = 1838;
}
);
unicode = 004D;
},
{
glyphname = N;
layers = (
{
anchors = (
{
name = bottom;
position = "{774, 0}";
},
{
name = top;
position = "{774, 0}";
}
);
layerId = "280E06E1-9336-45D2-8B5F-14710EC8A5A0";
name = Bold;
paths = (
{
closed = 1;
nodes = (
"180 0 LINE",
"465 0 LINE",
"465 409 LINE",
"441 1050 LINE",
"384 1050 LINE",
"1050 0 LINE",
"1368 0 LINE",
"1368 1336 LINE",
"1083 1336 LINE",
"1083 795 LINE",
"1103 271 LINE",
"1153 271 LINE",
"487 1336 LINE",
"180 1336 LINE"
);
}
);
width = 1548;
}
);
unicode = 004E;
},
{
glyphname = Nacute;
layers = (
{
layerId = "280E06E1-9336-45D2-8B5F-14710EC8A5A0";
name = Bold;
paths = (
{
closed = 1;
nodes = (
"202 0 LINE",
"479 0 LINE",
"479 409 LINE SMOOTH",
"479 430 OFFCURVE",
"451 961 OFFCURVE",
"451 961 CURVE",
"1036 0 LINE",
"1339 0 LINE",
"1339 1336 LINE",
"1068 1336 LINE",
"1068 795 LINE SMOOTH",
"1068 787 OFFCURVE",
"1087 350 OFFCURVE",
"1087 350 CURVE",
"494 1336 LINE",
"202 1336 LINE"
);
},
{
closed = 1;
nodes = (
"692 1479 LINE",
"849 1479 LINE",
"1144 1840 LINE",
"852 1840 LINE"
);
}
);
width = 1541;
}
);
unicode = 0143;
},
{
glyphname = Ncaron;
layers = (
{
layerId = "280E06E1-9336-45D2-8B5F-14710EC8A5A0";
name = Bold;
paths = (
{
closed = 1;
nodes = (
"202 0 LINE",
"479 0 LINE",
"479 409 LINE SMOOTH",
"479 430 OFFCURVE",
"451 961 OFFCURVE",
"451 961 CURVE",
"1036 0 LINE",
"1339 0 LINE",
"1339 1336 LINE",
"1068 1336 LINE",
"1068 795 LINE SMOOTH",
"1068 787 OFFCURVE",
"1087 350 OFFCURVE",
"1087 350 CURVE",
"494 1336 LINE",
"202 1336 LINE"
);
},
{
closed = 1;
nodes = (
"676 1479 LINE",
"866 1479 LINE",
"1114 1816 LINE",
"908 1816 LINE",
"758 1645 LINE",
"628 1816 LINE",
"428 1816 LINE"
);
}
);
width = 1541;
}
);
unicode = 0147;
},
{
glyphname = Ncommaaccent;
layers = (
{
layerId = "280E06E1-9336-45D2-8B5F-14710EC8A5A0";
name = Bold;
paths = (
{
closed = 1;
nodes = (
"202 0 LINE",
"479 0 LINE",
"479 409 LINE SMOOTH",
"479 430 OFFCURVE",
"451 961 OFFCURVE",
"451 961 CURVE",
"1036 0 LINE",
"1339 0 LINE",
"1339 1336 LINE",
"1068 1336 LINE",
"1068 795 LINE SMOOTH",
"1068 787 OFFCURVE",
"1087 350 OFFCURVE",
"1087 350 CURVE",
"494 1336 LINE",
"202 1336 LINE"
);
},
{
closed = 1;
nodes = (
"609 -601 LINE",
"777 -601 LINE",
"932 -122 LINE",
"710 -122 LINE"
);
}
);
width = 1541;
}
);
unicode = 0145;
},
{
glyphname = Eng;
layers = (
{
layerId = "280E06E1-9336-45D2-8B5F-14710EC8A5A0";
name = Bold;
paths = (
{
closed = 1;
nodes = (
"692 -305 OFFCURVE",
"732 -305 OFFCURVE",
"738 -305 CURVE SMOOTH",
"1082 -305 OFFCURVE",
"1216 -148 OFFCURVE",
"1216 143 CURVE SMOOTH",
"1216 874 LINE SMOOTH",
"1216 1177 OFFCURVE",
"1071 1363 OFFCURVE",
"782 1363 CURVE SMOOTH",
"640 1363 OFFCURVE",
"467 1297 OFFCURVE",
"374 1195 CURVE",
"352 1342 LINE",
"96 1342 LINE",
"96 0 LINE",
"384 0 LINE",
"384 963 LINE",
"463 1099 OFFCURVE",
"616 1155 OFFCURVE",
"722 1155 CURVE SMOOTH",
"869 1155 OFFCURVE",
"928 1077 OFFCURVE",
"928 864 CURVE SMOOTH",
"928 139 LINE SMOOTH",
"928 -27 OFFCURVE",
"901 -79 OFFCURVE",
"742 -79 CURVE SMOOTH",
"737 -79 OFFCURVE",
"677 -78 OFFCURVE",
"637 -75 CURVE",
"657 -301 LINE"
);
}
);
width = 1246;
}
);
unicode = 014A;
},
{
glyphname = Ntilde;
layers = (
{
layerId = "280E06E1-9336-45D2-8B5F-14710EC8A5A0";
name = Bold;
paths = (
{
closed = 1;
nodes = (
"202 0 LINE",
"479 0 LINE",
"479 409 LINE SMOOTH",
"479 430 OFFCURVE",
"451 961 OFFCURVE",
"451 961 CURVE",
"1036 0 LINE",
"1339 0 LINE",
"1339 1336 LINE",
"1068 1336 LINE",
"1068 795 LINE SMOOTH",
"1068 787 OFFCURVE",
"1087 350 OFFCURVE",
"1087 350 CURVE",
"494 1336 LINE",
"202 1336 LINE"
);
},
{
closed = 1;
nodes = (
"602 1479 LINE",
"602 1479 OFFCURVE",
"616 1569 OFFCURVE",
"637 1569 CURVE SMOOTH",
"694 1569 OFFCURVE",
"827 1479 OFFCURVE",
"928 1479 CURVE SMOOTH",
"1076 1479 OFFCURVE",
"1086 1721 OFFCURVE",
"1086 1721 CURVE",
"936 1721 LINE",
"936 1721 OFFCURVE",
"924 1637 OFFCURVE",
"904 1636 CURVE",
"873 1636 OFFCURVE",
"738 1721 OFFCURVE",
"617 1721 CURVE SMOOTH",
"469 1721 OFFCURVE",
"455 1583 OFFCURVE",
"455 1489 CURVE"
);
}
);
width = 1541;
}
);
unicode = 00D1;
},
{
glyphname = O;
lastChange = "2013-02-09 20:47:33 -0800";
layers = (
{
anchors = (
{
name = top;
position = "{793, 0}";
}
);
layerId = "280E06E1-9336-45D2-8B5F-14710EC8A5A0";
name = Bold;
paths = (
{
closed = 1;
nodes = (
"1176 393 OFFCURVE",
"1022 210 OFFCURVE",
"794 210 CURVE SMOOTH",
"566 210 OFFCURVE",
"410 393 OFFCURVE",
"410 667 CURVE SMOOTH",
"410 946 OFFCURVE",
"567 1127 OFFCURVE",
"794 1127 CURVE SMOOTH",
"1021 1127 OFFCURVE",
"1176 946 OFFCURVE",
"1176 667 CURVE SMOOTH"
);
},
{
closed = 1;
nodes = (
"122 237 OFFCURVE",
"401 -18 OFFCURVE",
"794 -18 CURVE SMOOTH",
"1187 -18 OFFCURVE",
"1464 237 OFFCURVE",
"1464 669 CURVE SMOOTH",
"1464 1105 OFFCURVE",
"1185 1357 OFFCURVE",
"794 1357 CURVE SMOOTH",
"403 1357 OFFCURVE",
"122 1105 OFFCURVE",
"122 669 CURVE SMOOTH"
);
}
);
width = 1586;
}
);
unicode = 004F;
},
{
glyphname = Oacute;
layers = (
{
layerId = "280E06E1-9336-45D2-8B5F-14710EC8A5A0";
name = Bold;
paths = (
{
closed = 1;
nodes = (
"1146 393 OFFCURVE",
"1012 210 OFFCURVE",
"784 210 CURVE SMOOTH",
"556 210 OFFCURVE",
"420 393 OFFCURVE",
"420 667 CURVE SMOOTH",
"420 946 OFFCURVE",
"557 1127 OFFCURVE",
"784 1127 CURVE SMOOTH",
"1011 1127 OFFCURVE",
"1146 946 OFFCURVE",
"1146 667 CURVE SMOOTH"
);
},
{
closed = 1;
nodes = (
"132 237 OFFCURVE",
"391 -18 OFFCURVE",
"784 -18 CURVE SMOOTH",
"1177 -18 OFFCURVE",
"1434 237 OFFCURVE",
"1434 669 CURVE SMOOTH",
"1434 1105 OFFCURVE",
"1175 1357 OFFCURVE",
"784 1357 CURVE SMOOTH",
"393 1357 OFFCURVE",
"132 1105 OFFCURVE",
"132 669 CURVE SMOOTH"
);
},
{
closed = 1;
nodes = (
"704 1479 LINE",
"862 1479 LINE",
"1156 1840 LINE",
"864 1840 LINE"
);
}
);
width = 1566;
}
);
unicode = 00D3;
},
{
glyphname = Obreve;
layers = (
{
layerId = "280E06E1-9336-45D2-8B5F-14710EC8A5A0";
name = Bold;
paths = (
{
closed = 1;
nodes = (
"514 1557 OFFCURVE",
"630 1479 OFFCURVE",
"782 1479 CURVE SMOOTH",
"935 1479 OFFCURVE",
"1052 1556 OFFCURVE",
"1052 1722 CURVE",
"883 1722 LINE",
"883 1661 OFFCURVE",
"856 1637 OFFCURVE",
"782 1637 CURVE SMOOTH",
"708 1637 OFFCURVE",
"682 1661 OFFCURVE",
"682 1722 CURVE",
"514 1722 LINE"
);
},
{
closed = 1;
nodes = (
"1146 393 OFFCURVE",
"1012 210 OFFCURVE",
"784 210 CURVE SMOOTH",
"556 210 OFFCURVE",
"420 393 OFFCURVE",
"420 667 CURVE SMOOTH",
"420 946 OFFCURVE",
"557 1127 OFFCURVE",
"784 1127 CURVE SMOOTH",
"1011 1127 OFFCURVE",
"1146 946 OFFCURVE",
"1146 667 CURVE SMOOTH"
);
},
{
closed = 1;
nodes = (
"132 237 OFFCURVE",
"391 -18 OFFCURVE",
"784 -18 CURVE SMOOTH",
"1177 -18 OFFCURVE",
"1434 237 OFFCURVE",
"1434 669 CURVE SMOOTH",
"1434 1105 OFFCURVE",
"1175 1357 OFFCURVE",
"784 1357 CURVE SMOOTH",
"393 1357 OFFCURVE",
"132 1105 OFFCURVE",
"132 669 CURVE SMOOTH"
);
}
);
width = 1566;
}
);
unicode = 014E;
},
{
glyphname = Ocircumflex;
layers = (
{
layerId = "280E06E1-9336-45D2-8B5F-14710EC8A5A0";
name = Bold;
paths = (
{
closed = 1;
nodes = (
"450 1479 LINE",
"630 1479 LINE",
"772 1673 LINE",
"930 1479 LINE",
"1116 1479 LINE",
"880 1847 LINE",
"684 1847 LINE"
);
},
{
closed = 1;
nodes = (
"1146 393 OFFCURVE",
"1012 210 OFFCURVE",
"784 210 CURVE SMOOTH",
"556 210 OFFCURVE",
"420 393 OFFCURVE",
"420 667 CURVE SMOOTH",
"420 946 OFFCURVE",
"557 1127 OFFCURVE",
"784 1127 CURVE SMOOTH",
"1011 1127 OFFCURVE",
"1146 946 OFFCURVE",
"1146 667 CURVE SMOOTH"
);
},
{
closed = 1;
nodes = (
"132 237 OFFCURVE",
"391 -18 OFFCURVE",
"784 -18 CURVE SMOOTH",
"1177 -18 OFFCURVE",
"1434 237 OFFCURVE",
"1434 669 CURVE SMOOTH",
"1434 1105 OFFCURVE",
"1175 1357 OFFCURVE",
"784 1357 CURVE SMOOTH",
"393 1357 OFFCURVE",
"132 1105 OFFCURVE",
"132 669 CURVE SMOOTH"
);
}
);
width = 1566;
}
);
unicode = 00D4;
},
{
glyphname = Odieresis;
layers = (
{
layerId = "280E06E1-9336-45D2-8B5F-14710EC8A5A0";
name = Bold;
paths = (
{
closed = 1;
nodes = (
"498 1479 LINE",
"692 1479 LINE",
"692 1724 LINE",
"498 1724 LINE"
);
},
{
closed = 1;
nodes = (
"1146 393 OFFCURVE",
"1012 210 OFFCURVE",
"784 210 CURVE SMOOTH",
"556 210 OFFCURVE",
"420 393 OFFCURVE",
"420 667 CURVE SMOOTH",
"420 946 OFFCURVE",
"557 1127 OFFCURVE",
"784 1127 CURVE SMOOTH",
"1011 1127 OFFCURVE",
"1146 946 OFFCURVE",
"1146 667 CURVE SMOOTH"
);
},
{
closed = 1;
nodes = (
"132 237 OFFCURVE",
"391 -18 OFFCURVE",
"784 -18 CURVE SMOOTH",
"1177 -18 OFFCURVE",
"1434 237 OFFCURVE",
"1434 669 CURVE SMOOTH",
"1434 1105 OFFCURVE",
"1175 1357 OFFCURVE",
"784 1357 CURVE SMOOTH",
"393 1357 OFFCURVE",
"132 1105 OFFCURVE",
"132 669 CURVE SMOOTH"
);
},
{
closed = 1;
nodes = (
"874 1479 LINE",
"1068 1479 LINE",
"1068 1724 LINE",
"874 1724 LINE"
);
}
);
width = 1566;
}
);
unicode = 00D6;
},
{
glyphname = Ograve;
layers = (
{
layerId = "280E06E1-9336-45D2-8B5F-14710EC8A5A0";
name = Bold;
paths = (
{
closed = 1;
nodes = (
"700 1479 LINE",
"866 1479 LINE",
"688 1840 LINE",
"390 1840 LINE"
);
},
{
closed = 1;
nodes = (
"1146 393 OFFCURVE",
"1012 210 OFFCURVE",
"784 210 CURVE SMOOTH",
"556 210 OFFCURVE",
"420 393 OFFCURVE",
"420 667 CURVE SMOOTH",
"420 946 OFFCURVE",
"557 1127 OFFCURVE",
"784 1127 CURVE SMOOTH",
"1011 1127 OFFCURVE",
"1146 946 OFFCURVE",
"1146 667 CURVE SMOOTH"
);
},
{
closed = 1;
nodes = (
"132 237 OFFCURVE",
"391 -18 OFFCURVE",
"784 -18 CURVE SMOOTH",
"1177 -18 OFFCURVE",
"1434 237 OFFCURVE",
"1434 669 CURVE SMOOTH",
"1434 1105 OFFCURVE",
"1175 1357 OFFCURVE",
"784 1357 CURVE SMOOTH",
"393 1357 OFFCURVE",
"132 1105 OFFCURVE",
"132 669 CURVE SMOOTH"
);
}
);
width = 1566;
}
);
unicode = 00D2;
},
{
glyphname = Ohorn;
layers = (
{
layerId = "280E06E1-9336-45D2-8B5F-14710EC8A5A0";
name = Bold;
paths = (
{
closed = 1;
nodes = (
"1531 1034 OFFCURVE",
"1559 1031 OFFCURVE",
"1586 1031 CURVE SMOOTH",
"1683 1031 OFFCURVE",
"1730 1119 OFFCURVE",
"1730 1215 CURVE SMOOTH",
"1730 1259 OFFCURVE",
"1719 1307 OFFCURVE",
"1701 1351 CURVE",
"1700 1357 LINE",
"1575 1357 LINE",
"1580 1344 LINE SMOOTH",
"1593 1308 OFFCURVE",
"1606 1257 OFFCURVE",
"1606 1216 CURVE SMOOTH",
"1606 1169 OFFCURVE",
"1592 1138 OFFCURVE",
"1548 1138 CURVE SMOOTH",
"1534 1138 OFFCURVE",
"1518 1139 OFFCURVE",
"1504 1139 CURVE SMOOTH",
"1495 1139 LINE",
"1495 1038 LINE",
"1503 1037 LINE SMOOTH"
);
},
{
closed = 1;
nodes = (
"1146 393 OFFCURVE",
"1012 210 OFFCURVE",
"784 210 CURVE SMOOTH",
"556 210 OFFCURVE",
"420 393 OFFCURVE",
"420 667 CURVE SMOOTH",
"420 946 OFFCURVE",
"557 1127 OFFCURVE",
"784 1127 CURVE SMOOTH",
"1011 1127 OFFCURVE",
"1146 946 OFFCURVE",
"1146 667 CURVE SMOOTH"
);
},
{
closed = 1;
nodes = (
"132 237 OFFCURVE",
"391 -18 OFFCURVE",
"784 -18 CURVE SMOOTH",
"1177 -18 OFFCURVE",
"1434 237 OFFCURVE",
"1434 669 CURVE SMOOTH",
"1434 1105 OFFCURVE",
"1175 1357 OFFCURVE",
"784 1357 CURVE SMOOTH",
"393 1357 OFFCURVE",
"132 1105 OFFCURVE",
"132 669 CURVE SMOOTH"
);
}
);
width = 1566;
}
);
unicode = 01A0;
},
{
glyphname = Ohungarumlaut;
layers = (
{
layerId = "280E06E1-9336-45D2-8B5F-14710EC8A5A0";
name = Bold;
paths = (
{
closed = 1;
nodes = (
"1146 393 OFFCURVE",
"1012 210 OFFCURVE",
"784 210 CURVE SMOOTH",
"556 210 OFFCURVE",
"420 393 OFFCURVE",
"420 667 CURVE SMOOTH",
"420 946 OFFCURVE",
"557 1127 OFFCURVE",
"784 1127 CURVE SMOOTH",
"1011 1127 OFFCURVE",
"1146 946 OFFCURVE",
"1146 667 CURVE SMOOTH"
);
},
{
closed = 1;
nodes = (
"132 237 OFFCURVE",
"391 -18 OFFCURVE",
"784 -18 CURVE SMOOTH",
"1177 -18 OFFCURVE",
"1434 237 OFFCURVE",
"1434 669 CURVE SMOOTH",
"1434 1105 OFFCURVE",
"1175 1357 OFFCURVE",
"784 1357 CURVE SMOOTH",
"393 1357 OFFCURVE",
"132 1105 OFFCURVE",
"132 669 CURVE SMOOTH"
);
},
{
closed = 1;
nodes = (
"576 1479 LINE",
"718 1479 LINE",
"1034 1819 LINE",
"808 1819 LINE"
);
},
{
closed = 1;
nodes = (
"850 1479 LINE",
"990 1479 LINE",
"1316 1819 LINE",
"1086 1819 LINE"
);
}
);
width = 1566;
}
);
unicode = 0150;
},
{
glyphname = Omacron;
layers = (
{
layerId = "280E06E1-9336-45D2-8B5F-14710EC8A5A0";
name = Bold;
paths = (
{
closed = 1;
nodes = (
"1146 393 OFFCURVE",
"1012 210 OFFCURVE",
"784 210 CURVE SMOOTH",
"556 210 OFFCURVE",
"420 393 OFFCURVE",
"420 667 CURVE SMOOTH",
"420 946 OFFCURVE",
"557 1127 OFFCURVE",
"784 1127 CURVE SMOOTH",
"1011 1127 OFFCURVE",
"1146 946 OFFCURVE",
"1146 667 CURVE SMOOTH"
);
},
{
closed = 1;
nodes = (
"132 237 OFFCURVE",
"391 -18 OFFCURVE",
"784 -18 CURVE SMOOTH",
"1177 -18 OFFCURVE",
"1434 237 OFFCURVE",
"1434 669 CURVE SMOOTH",
"1434 1105 OFFCURVE",
"1175 1357 OFFCURVE",
"784 1357 CURVE SMOOTH",
"393 1357 OFFCURVE",
"132 1105 OFFCURVE",
"132 669 CURVE SMOOTH"
);
},
{
closed = 1;
nodes = (
"458 1479 LINE",
"1108 1479 LINE",
"1108 1638 LINE",
"458 1638 LINE"
);
}
);
width = 1566;
}
);
unicode = 014C;
},
{
glyphname = Oslash;
layers = (
{
anchors = (
{
name = top;
position = "{718, 0}";
}
);
layerId = "280E06E1-9336-45D2-8B5F-14710EC8A5A0";
name = Bold;
paths = (
{
closed = 1;
nodes = (
"429 -179 LINE",
"512 10 LINE",
"579 -9 OFFCURVE",
"650 -18 OFFCURVE",
"725 -18 CURVE SMOOTH",
"1116 -18 OFFCURVE",
"1388 247 OFFCURVE",
"1388 676 CURVE SMOOTH",
"1388 972 OFFCURVE",
"1264 1186 OFFCURVE",
"1065 1296 CURVE",
"1145 1486 LINE",
"1034 1530 LINE",
"954 1344 LINE",
"883 1366 OFFCURVE",
"810 1377 OFFCURVE",
"729 1377 CURVE SMOOTH",
"342 1377 OFFCURVE",
"65 1115 OFFCURVE",
"65 678 CURVE SMOOTH",
"65 381 OFFCURVE",
"196 161 OFFCURVE",
"405 54 CURVE",
"324 -134 LINE"
);
},
{
closed = 1;
nodes = (
"496 278 LINE",
"384 359 OFFCURVE",
"329 502 OFFCURVE",
"329 682 CURVE SMOOTH",
"329 959 OFFCURVE",
"461 1158 OFFCURVE",
"728 1158 CURVE SMOOTH",
"779 1158 OFFCURVE",
"828 1150 OFFCURVE",
"866 1137 CURVE"
);
},
{
closed = 1;
nodes = (
"1128 386 OFFCURVE",
"995 194 OFFCURVE",
"728 194 CURVE SMOOTH",
"681 194 OFFCURVE",
"636 201 OFFCURVE",
"601 212 CURVE",
"971 1065 LINE",
"1077 982 OFFCURVE",
"1128 840 OFFCURVE",
"1128 666 CURVE SMOOTH"
);
}
);
width = 1435;
}
);
unicode = 00D8;
},
{
glyphname = Oslashacute;
layers = (
{
layerId = "280E06E1-9336-45D2-8B5F-14710EC8A5A0";
name = Bold;
paths = (
{
closed = 1;
nodes = (
"429 -179 LINE",
"512 10 LINE",
"579 -9 OFFCURVE",
"650 -18 OFFCURVE",
"725 -18 CURVE SMOOTH",
"1116 -18 OFFCURVE",
"1388 247 OFFCURVE",
"1388 676 CURVE SMOOTH",
"1388 972 OFFCURVE",
"1264 1186 OFFCURVE",
"1065 1296 CURVE",
"1145 1486 LINE",
"1034 1530 LINE",
"954 1344 LINE",
"883 1366 OFFCURVE",
"810 1377 OFFCURVE",
"729 1377 CURVE SMOOTH",
"342 1377 OFFCURVE",
"65 1115 OFFCURVE",
"65 678 CURVE SMOOTH",
"65 381 OFFCURVE",
"196 161 OFFCURVE",
"405 54 CURVE",
"324 -134 LINE"
);
},
{
closed = 1;
nodes = (
"496 278 LINE",
"384 359 OFFCURVE",
"329 502 OFFCURVE",
"329 682 CURVE SMOOTH",
"329 959 OFFCURVE",
"461 1158 OFFCURVE",
"728 1158 CURVE SMOOTH",
"779 1158 OFFCURVE",
"828 1150 OFFCURVE",
"866 1137 CURVE"
);
},
{
closed = 1;
nodes = (
"1128 386 OFFCURVE",
"995 194 OFFCURVE",
"728 194 CURVE SMOOTH",
"681 194 OFFCURVE",
"636 201 OFFCURVE",
"601 212 CURVE",
"971 1065 LINE",
"1077 982 OFFCURVE",
"1128 840 OFFCURVE",
"1128 666 CURVE SMOOTH"
);
},
{
closed = 1;
nodes = (
"648 1652 LINE",
"805 1652 LINE",
"1100 2013 LINE",
"808 2013 LINE"
);
}
);
width = 1435;
}
);
unicode = 01FE;
},
{
glyphname = Otilde;
layers = (
{
layerId = "280E06E1-9336-45D2-8B5F-14710EC8A5A0";
name = Bold;
paths = (
{
closed = 1;
nodes = (
"614 1479 LINE",
"614 1479 OFFCURVE",
"629 1569 OFFCURVE",
"650 1569 CURVE SMOOTH",
"707 1569 OFFCURVE",
"839 1479 OFFCURVE",
"940 1479 CURVE SMOOTH",
"1088 1479 OFFCURVE",
"1098 1721 OFFCURVE",
"1098 1721 CURVE",
"948 1721 LINE",
"948 1721 OFFCURVE",
"936 1637 OFFCURVE",
"916 1636 CURVE",
"885 1636 OFFCURVE",
"751 1721 OFFCURVE",
"630 1721 CURVE SMOOTH",
"482 1721 OFFCURVE",
"468 1583 OFFCURVE",
"468 1489 CURVE"
);
},
{
closed = 1;
nodes = (
"1146 393 OFFCURVE",
"1012 210 OFFCURVE",
"784 210 CURVE SMOOTH",
"556 210 OFFCURVE",
"420 393 OFFCURVE",
"420 667 CURVE SMOOTH",
"420 946 OFFCURVE",
"557 1127 OFFCURVE",
"784 1127 CURVE SMOOTH",
"1011 1127 OFFCURVE",
"1146 946 OFFCURVE",
"1146 667 CURVE SMOOTH"
);
},
{
closed = 1;
nodes = (
"132 237 OFFCURVE",
"391 -18 OFFCURVE",
"784 -18 CURVE SMOOTH",
"1177 -18 OFFCURVE",
"1434 237 OFFCURVE",
"1434 669 CURVE SMOOTH",
"1434 1105 OFFCURVE",
"1175 1357 OFFCURVE",
"784 1357 CURVE SMOOTH",
"393 1357 OFFCURVE",
"132 1105 OFFCURVE",
"132 669 CURVE SMOOTH"
);
}
);
width = 1566;
}
);
unicode = 00D5;
},
{
glyphname = OE;
layers = (
{
anchors = (
{
name = top;
position = "{961, 0}";
}
);
layerId = "280E06E1-9336-45D2-8B5F-14710EC8A5A0";
name = Bold;
paths = (
{
closed = 1;
nodes = (
"65 274 OFFCURVE",
"338 -17 OFFCURVE",
"727 -17 CURVE SMOOTH",
"842 -17 OFFCURVE",
"954 19 OFFCURVE",
"1030 67 CURVE",
"1030 4 LINE",
"1887 4 LINE",
"1905 208 LINE",
"1277 208 LINE",
"1277 596 LINE",
"1835 596 LINE",
"1835 798 LINE",
"1277 798 LINE",
"1277 1133 LINE",
"1861 1133 LINE",
"1879 1338 LINE",
"1030 1338 LINE",
"1030 1278 LINE",
"945 1332 OFFCURVE",
"844 1363 OFFCURVE",
"722 1363 CURVE SMOOTH",
"349 1363 OFFCURVE",
"68 1073 OFFCURVE",
"65 676 CURVE"
);
},
{
closed = 1;
nodes = (
"969 235 OFFCURVE",
"863 187 OFFCURVE",
"725 187 CURVE SMOOTH",
"451 188 OFFCURVE",
"318 415 OFFCURVE",
"318 672 CURVE",
"320 928 OFFCURVE",
"461 1160 OFFCURVE",
"722 1160 CURVE SMOOTH",
"863 1160 OFFCURVE",
"966 1111 OFFCURVE",
"1030 1048 CURVE",
"1030 289 LINE"
);
}
);
width = 1922;
}
);
unicode = 0152;
},
{
glyphname = P;
layers = (
{
layerId = "280E06E1-9336-45D2-8B5F-14710EC8A5A0";
name = Bold;
paths = (
{
closed = 1;
nodes = (
"180 0 LINE",
"468 0 LINE",
"468 554 LINE",
"402 486 LINE",
"469 480 OFFCURVE",
"652 475 OFFCURVE",
"704 475 CURVE SMOOTH",
"1093 475 OFFCURVE",
"1225 674 OFFCURVE",
"1225 916 CURVE SMOOTH",
"1225 1202 OFFCURVE",
"1003 1336 OFFCURVE",
"704 1336 CURVE SMOOTH",
"180 1336 LINE"
);
},
{
closed = 1;
nodes = (
"937 795 OFFCURVE",
"923 670 OFFCURVE",
"678 670 CURVE",
"405 670 LINE",
"468 599 LINE",
"468 1188 LINE",
"405 1126 LINE",
"705 1126 LINE SMOOTH",
"866 1126 OFFCURVE",
"937 1050 OFFCURVE",
"937 908 CURVE SMOOTH"
);
}
);
width = 1318;
}
);
unicode = 0050;
},
{
glyphname = Thorn;
layers = (
{
layerId = "280E06E1-9336-45D2-8B5F-14710EC8A5A0";
name = Bold;
paths = (
{
closed = 1;
nodes = (
"153 16 LINE",
"370 16 LINE",
"370 311 LINE",
"423 311 OFFCURVE",
"643 310 OFFCURVE",
"645 310 CURVE SMOOTH",
"924 310 OFFCURVE",
"1140 454 OFFCURVE",
"1140 720 CURVE SMOOTH",
"1140 1016 OFFCURVE",
"908 1126 OFFCURVE",
"613 1126 CURVE SMOOTH",
"370 1126 LINE",
"370 1326 LINE",
"153 1326 LINE"
);
},
{
closed = 1;
nodes = (
"371 505 LINE",
"370 946 LINE",
"632 946 LINE SMOOTH",
"823 946 OFFCURVE",
"921 882 OFFCURVE",
"921 725 CURVE SMOOTH",
"921 585 OFFCURVE",
"826 505 OFFCURVE",
"657 505 CURVE SMOOTH"
);
}
);
width = 1164;
}
);
unicode = 00DE;
},
{
glyphname = Q;
lastChange = "2013-02-09 20:48:08 -0800";
layers = (
{
components = (
{
name = O;
transform = "{1, 0, 0, 1, 0, 0}";
}
);
layerId = "280E06E1-9336-45D2-8B5F-14710EC8A5A0";
name = Bold;
paths = (
{
closed = 1;
nodes = (
"915 -158 OFFCURVE",
"1050 -382 OFFCURVE",
"1160 -460 CURVE",
"1329 -313 LINE",
"1218 -202 OFFCURVE",
"1122 -32 OFFCURVE",
"1077 43 CURVE",
"838 -16 LINE"
);
}
);
width = 1586;
}
);
unicode = 0051;
},
{
glyphname = R;
layers = (
{
anchors = (
{
name = bottom;
position = "{683, 0}";
},
{
name = top;
position = "{683, 0}";
}
);
layerId = "280E06E1-9336-45D2-8B5F-14710EC8A5A0";
name = Bold;
paths = (
{
closed = 1;
nodes = (
"468 675 LINE",
"468 1187 LINE",
"408 1126 LINE",
"703 1126 LINE SMOOTH",
"867 1126 OFFCURVE",
"939 1064 OFFCURVE",
"939 943 CURVE SMOOTH",
"939 804 OFFCURVE",
"874 742 OFFCURVE",
"693 742 CURVE SMOOTH",
"402 742 LINE"
);
},
{
closed = 1;
nodes = (
"180 0 LINE",
"468 0 LINE",
"468 591 LINE",
"404 531 LINE",
"672 531 OFFCURVE",
"775 544 OFFCURVE",
"792 543 CURVE",
"676 597 LINE",
"811 331 LINE",
"974 0 LINE",
"1277 0 LINE",
"1080 391 LINE",
"924 671 LINE",
"904 562 LINE",
"1053 615 OFFCURVE",
"1227 707 OFFCURVE",
"1227 947 CURVE SMOOTH",
"1227 1258 OFFCURVE",
"996 1336 OFFCURVE",
"690 1336 CURVE SMOOTH",
"180 1336 LINE"
);
}
);
width = 1366;
}
);
unicode = 0052;
},
{
glyphname = Racute;
layers = (
{
layerId = "280E06E1-9336-45D2-8B5F-14710EC8A5A0";
name = Bold;
paths = (
{
closed = 1;
nodes = (
"202 0 LINE",
"490 0 LINE",
"490 531 LINE",
"670 531 LINE SMOOTH",
"703 531 OFFCURVE",
"725 531 OFFCURVE",
"742 530 CURVE",
"757 501 OFFCURVE",
"812 395 OFFCURVE",
"842 331 CURVE",
"1005 0 LINE",
"1308 0 LINE",
"1111 391 LINE",
"1075 465 OFFCURVE",
"1038 539 OFFCURVE",
"1001 587 CURVE",
"1148 646 OFFCURVE",
"1258 770 OFFCURVE",
"1258 947 CURVE SMOOTH",
"1258 1258 OFFCURVE",
"1027 1336 OFFCURVE",
"721 1336 CURVE SMOOTH",
"202 1336 LINE"
);
},
{
closed = 1;
nodes = (
"490 742 LINE",
"490 1126 LINE",
"734 1126 LINE SMOOTH",
"898 1126 OFFCURVE",
"970 1064 OFFCURVE",
"970 943 CURVE SMOOTH",
"970 804 OFFCURVE",
"905 742 OFFCURVE",
"724 742 CURVE SMOOTH"
);
},
{
closed = 1;
nodes = (
"676 1479 LINE",
"834 1479 LINE",
"1128 1840 LINE",
"836 1840 LINE"
);
}
);
width = 1406;
}
);
unicode = 0154;
},
{
glyphname = Rcaron;
layers = (
{
layerId = "280E06E1-9336-45D2-8B5F-14710EC8A5A0";
name = Bold;
paths = (
{
closed = 1;
nodes = (
"202 0 LINE",
"490 0 LINE",
"490 531 LINE",
"670 531 LINE SMOOTH",
"703 531 OFFCURVE",
"725 531 OFFCURVE",
"742 530 CURVE",
"757 501 OFFCURVE",
"812 395 OFFCURVE",
"842 331 CURVE",
"1005 0 LINE",
"1308 0 LINE",
"1111 391 LINE",
"1075 465 OFFCURVE",
"1038 539 OFFCURVE",
"1001 587 CURVE",
"1148 646 OFFCURVE",
"1258 770 OFFCURVE",
"1258 947 CURVE SMOOTH",
"1258 1258 OFFCURVE",
"1027 1336 OFFCURVE",
"721 1336 CURVE SMOOTH",
"202 1336 LINE"
);
},
{
closed = 1;
nodes = (
"660 1479 LINE",
"850 1479 LINE",
"1098 1816 LINE",
"893 1816 LINE",
"743 1645 LINE",
"613 1816 LINE",
"412 1816 LINE"
);
},
{
closed = 1;
nodes = (
"490 742 LINE",
"490 1126 LINE",
"734 1126 LINE SMOOTH",
"898 1126 OFFCURVE",
"970 1064 OFFCURVE",
"970 943 CURVE SMOOTH",
"970 804 OFFCURVE",
"905 742 OFFCURVE",
"724 742 CURVE SMOOTH"
);
}
);
width = 1406;
}
);
unicode = 0158;
},
{
glyphname = Rcommaaccent;
layers = (
{
layerId = "280E06E1-9336-45D2-8B5F-14710EC8A5A0";
name = Bold;
paths = (
{
closed = 1;
nodes = (
"202 0 LINE",
"490 0 LINE",
"490 531 LINE",
"670 531 LINE SMOOTH",
"703 531 OFFCURVE",
"725 531 OFFCURVE",
"742 530 CURVE",
"757 501 OFFCURVE",
"812 395 OFFCURVE",
"842 331 CURVE",
"1005 0 LINE",
"1308 0 LINE",
"1111 391 LINE",
"1075 465 OFFCURVE",
"1038 539 OFFCURVE",
"1001 587 CURVE",
"1148 646 OFFCURVE",
"1258 770 OFFCURVE",
"1258 947 CURVE SMOOTH",
"1258 1258 OFFCURVE",
"1027 1336 OFFCURVE",
"721 1336 CURVE SMOOTH",
"202 1336 LINE"
);
},
{
closed = 1;
nodes = (
"490 742 LINE",
"490 1126 LINE",
"734 1126 LINE SMOOTH",
"898 1126 OFFCURVE",
"970 1064 OFFCURVE",
"970 943 CURVE SMOOTH",
"970 804 OFFCURVE",
"905 742 OFFCURVE",
"724 742 CURVE SMOOTH"
);
},
{
closed = 1;
nodes = (
"594 -601 LINE",
"762 -601 LINE",
"916 -122 LINE",
"694 -122 LINE"
);
}
);
width = 1406;
}
);
unicode = 0156;
},
{
glyphname = S;
layers = (
{
anchors = (
{
name = bottom;
position = "{596, 0}";
},
{
name = top;
position = "{596, 0}";
}
);
layerId = "280E06E1-9336-45D2-8B5F-14710EC8A5A0";
name = Bold;
paths = (
{
closed = 1;
nodes = (
"251 21 OFFCURVE",
"404 -18 OFFCURVE",
"580 -18 CURVE SMOOTH",
"869 -18 OFFCURVE",
"1073 119 OFFCURVE",
"1073 381 CURVE SMOOTH",
"1073 598 OFFCURVE",
"968 705 OFFCURVE",
"733 783 CURVE",
"525 853 LINE SMOOTH",
"464 873 OFFCURVE",
"427 915 OFFCURVE",
"427 980 CURVE SMOOTH",
"427 1087 OFFCURVE",
"501 1128 OFFCURVE",
"634 1128 CURVE SMOOTH",
"753 1128 OFFCURVE",
"880 1075 OFFCURVE",
"972 1035 CURVE",
"1054 1251 LINE",
"933 1320 OFFCURVE",
"783 1358 OFFCURVE",
"623 1358 CURVE SMOOTH",
"355 1358 OFFCURVE",
"158 1227 OFFCURVE",
"158 975 CURVE SMOOTH",
"158 785 OFFCURVE",
"262 670 OFFCURVE",
"424 617 CURVE SMOOTH",
"648 544 LINE SMOOTH",
"745 512 OFFCURVE",
"800 464 OFFCURVE",
"800 385 CURVE SMOOTH",
"800 262 OFFCURVE",
"731 210 OFFCURVE",
"590 210 CURVE SMOOTH",
"458 210 OFFCURVE",
"295 253 OFFCURVE",
"218 303 CURVE",
"135 87 LINE"
);
}
);
width = 1191;
}
);
unicode = 0053;
},
{
glyphname = Sacute;
layers = (
{
layerId = "280E06E1-9336-45D2-8B5F-14710EC8A5A0";
name = Bold;
paths = (
{
closed = 1;
nodes = (
"241 21 OFFCURVE",
"394 -18 OFFCURVE",
"570 -18 CURVE SMOOTH",
"859 -18 OFFCURVE",
"1063 119 OFFCURVE",
"1063 381 CURVE SMOOTH",
"1063 598 OFFCURVE",
"958 705 OFFCURVE",
"723 783 CURVE",
"515 853 LINE SMOOTH",
"454 873 OFFCURVE",
"417 915 OFFCURVE",
"417 980 CURVE SMOOTH",
"417 1087 OFFCURVE",
"491 1128 OFFCURVE",
"624 1128 CURVE SMOOTH",
"743 1128 OFFCURVE",
"870 1075 OFFCURVE",
"962 1035 CURVE",
"1044 1251 LINE",
"923 1320 OFFCURVE",
"773 1358 OFFCURVE",
"613 1358 CURVE SMOOTH",
"345 1358 OFFCURVE",
"148 1227 OFFCURVE",
"148 975 CURVE SMOOTH",
"148 785 OFFCURVE",
"252 670 OFFCURVE",
"414 617 CURVE SMOOTH",
"638 544 LINE SMOOTH",
"735 512 OFFCURVE",
"790 464 OFFCURVE",
"790 385 CURVE SMOOTH",
"790 262 OFFCURVE",
"721 210 OFFCURVE",
"580 210 CURVE SMOOTH",
"448 210 OFFCURVE",
"285 253 OFFCURVE",
"208 303 CURVE",
"125 87 LINE"
);
},
{
closed = 1;
nodes = (
"516 1480 LINE",
"672 1480 LINE",
"968 1841 LINE",
"676 1841 LINE"
);
}
);
width = 1182;
}
);
unicode = 015A;
},
{
glyphname = Scaron;
layers = (
{
layerId = "280E06E1-9336-45D2-8B5F-14710EC8A5A0";
name = Bold;
paths = (
{
closed = 1;
nodes = (
"241 21 OFFCURVE",
"394 -18 OFFCURVE",
"570 -18 CURVE SMOOTH",
"859 -18 OFFCURVE",
"1063 119 OFFCURVE",
"1063 381 CURVE SMOOTH",
"1063 598 OFFCURVE",
"958 705 OFFCURVE",
"723 783 CURVE",
"515 853 LINE SMOOTH",
"454 873 OFFCURVE",
"417 915 OFFCURVE",
"417 980 CURVE SMOOTH",
"417 1087 OFFCURVE",
"491 1128 OFFCURVE",
"624 1128 CURVE SMOOTH",
"743 1128 OFFCURVE",
"870 1075 OFFCURVE",
"962 1035 CURVE",
"1044 1251 LINE",
"923 1320 OFFCURVE",
"773 1358 OFFCURVE",
"613 1358 CURVE SMOOTH",
"345 1358 OFFCURVE",
"148 1227 OFFCURVE",
"148 975 CURVE SMOOTH",
"148 785 OFFCURVE",
"252 670 OFFCURVE",
"414 617 CURVE SMOOTH",
"638 544 LINE SMOOTH",
"735 512 OFFCURVE",
"790 464 OFFCURVE",
"790 385 CURVE SMOOTH",
"790 262 OFFCURVE",
"721 210 OFFCURVE",
"580 210 CURVE SMOOTH",
"448 210 OFFCURVE",
"285 253 OFFCURVE",
"208 303 CURVE",
"125 87 LINE"
);
},
{
closed = 1;
nodes = (
"499 1480 LINE",
"689 1480 LINE",
"937 1817 LINE",
"732 1817 LINE",
"582 1646 LINE",
"452 1817 LINE",
"251 1817 LINE"
);
}
);
width = 1182;
}
);
unicode = 0160;
},
{
glyphname = Scedilla;
layers = (
{
layerId = "280E06E1-9336-45D2-8B5F-14710EC8A5A0";
name = Bold;
paths = (
{
closed = 1;
nodes = (
"229 28 OFFCURVE",
"363 -10 OFFCURVE",
"517 -17 CURVE",
"520 -6 LINE",
"668 -6 LINE",
"667 -13 LINE",
"904 15 OFFCURVE",
"1063 149 OFFCURVE",
"1063 381 CURVE SMOOTH",
"1063 598 OFFCURVE",
"958 705 OFFCURVE",
"723 783 CURVE",
"515 853 LINE SMOOTH",
"454 873 OFFCURVE",
"417 915 OFFCURVE",
"417 980 CURVE SMOOTH",
"417 1087 OFFCURVE",
"491 1128 OFFCURVE",
"624 1128 CURVE SMOOTH",
"743 1128 OFFCURVE",
"870 1075 OFFCURVE",
"962 1035 CURVE",
"1044 1251 LINE",
"923 1320 OFFCURVE",
"773 1358 OFFCURVE",
"613 1358 CURVE SMOOTH",
"345 1358 OFFCURVE",
"148 1227 OFFCURVE",
"148 975 CURVE SMOOTH",
"148 785 OFFCURVE",
"252 670 OFFCURVE",
"414 617 CURVE SMOOTH",
"638 544 LINE SMOOTH",
"735 512 OFFCURVE",
"790 464 OFFCURVE",
"790 385 CURVE SMOOTH",
"790 262 OFFCURVE",
"721 210 OFFCURVE",
"580 210 CURVE SMOOTH",
"448 210 OFFCURVE",
"285 253 OFFCURVE",
"208 303 CURVE",
"125 87 LINE"
);
},
{
closed = 1;
nodes = (
"404 -363 LINE",
"614 -363 LINE",
"667 -13 LINE",
"636 -17 OFFCURVE",
"603 -18 OFFCURVE",
"570 -18 CURVE SMOOTH",
"552 -18 OFFCURVE",
"534 -18 OFFCURVE",
"517 -17 CURVE"
);
}
);
width = 1182;
}
);
unicode = 015E;
},
{
glyphname = Scircumflex;
layers = (
{
layerId = "280E06E1-9336-45D2-8B5F-14710EC8A5A0";
name = Bold;
paths = (
{
closed = 1;
nodes = (
"241 21 OFFCURVE",
"394 -18 OFFCURVE",
"570 -18 CURVE SMOOTH",
"859 -18 OFFCURVE",
"1063 119 OFFCURVE",
"1063 381 CURVE SMOOTH",
"1063 598 OFFCURVE",
"958 705 OFFCURVE",
"723 783 CURVE",
"515 853 LINE SMOOTH",
"454 873 OFFCURVE",
"417 915 OFFCURVE",
"417 980 CURVE SMOOTH",
"417 1087 OFFCURVE",
"491 1128 OFFCURVE",
"624 1128 CURVE SMOOTH",
"743 1128 OFFCURVE",
"870 1075 OFFCURVE",
"962 1035 CURVE",
"1044 1251 LINE",
"923 1320 OFFCURVE",
"773 1358 OFFCURVE",
"613 1358 CURVE SMOOTH",
"345 1358 OFFCURVE",
"148 1227 OFFCURVE",
"148 975 CURVE SMOOTH",
"148 785 OFFCURVE",
"252 670 OFFCURVE",
"414 617 CURVE SMOOTH",
"638 544 LINE SMOOTH",
"735 512 OFFCURVE",
"790 464 OFFCURVE",
"790 385 CURVE SMOOTH",
"790 262 OFFCURVE",
"721 210 OFFCURVE",
"580 210 CURVE SMOOTH",
"448 210 OFFCURVE",
"285 253 OFFCURVE",
"208 303 CURVE",
"125 87 LINE"
);
},
{
closed = 1;
nodes = (
"260 1480 LINE",
"442 1480 LINE",
"584 1674 LINE",
"742 1480 LINE",
"928 1480 LINE",
"692 1848 LINE",
"496 1848 LINE"
);
}
);
width = 1182;
}
);
unicode = 015C;
},
{
glyphname = Scommaaccent;
layers = (
{
layerId = "280E06E1-9336-45D2-8B5F-14710EC8A5A0";
name = Bold;
paths = (
{
closed = 1;
nodes = (
"241 21 OFFCURVE",
"394 -18 OFFCURVE",
"570 -18 CURVE SMOOTH",
"859 -18 OFFCURVE",
"1063 119 OFFCURVE",
"1063 381 CURVE SMOOTH",
"1063 598 OFFCURVE",
"958 705 OFFCURVE",
"723 783 CURVE",
"515 853 LINE SMOOTH",
"454 873 OFFCURVE",
"417 915 OFFCURVE",
"417 980 CURVE SMOOTH",
"417 1087 OFFCURVE",
"491 1128 OFFCURVE",
"624 1128 CURVE SMOOTH",
"743 1128 OFFCURVE",
"870 1075 OFFCURVE",
"962 1035 CURVE",
"1044 1251 LINE",
"923 1320 OFFCURVE",
"773 1358 OFFCURVE",
"613 1358 CURVE SMOOTH",
"345 1358 OFFCURVE",
"148 1227 OFFCURVE",
"148 975 CURVE SMOOTH",
"148 785 OFFCURVE",
"252 670 OFFCURVE",
"414 617 CURVE SMOOTH",
"638 544 LINE SMOOTH",
"735 512 OFFCURVE",
"790 464 OFFCURVE",
"790 385 CURVE SMOOTH",
"790 262 OFFCURVE",
"721 210 OFFCURVE",
"580 210 CURVE SMOOTH",
"448 210 OFFCURVE",
"285 253 OFFCURVE",
"208 303 CURVE",
"125 87 LINE"
);
},
{
closed = 1;
nodes = (
"432 -619 LINE",
"600 -619 LINE",
"756 -140 LINE",
"534 -140 LINE"
);
}
);
width = 1182;
}
);
unicode = 0218;
},
{
glyphname = uni018F;
layers = (
{
layerId = "280E06E1-9336-45D2-8B5F-14710EC8A5A0";
name = Bold;
paths = (
{
closed = 1;
nodes = (
"67 205 OFFCURVE",
"259 -18 OFFCURVE",
"581 -18 CURVE SMOOTH",
"945 -18 OFFCURVE",
"1204 257 OFFCURVE",
"1204 677 CURVE SMOOTH",
"1204 1061 OFFCURVE",
"964 1363 OFFCURVE",
"540 1363 CURVE SMOOTH",
"362 1363 OFFCURVE",
"222 1326 OFFCURVE",
"107 1236 CURVE",
"101 1231 LINE",
"184 1054 LINE",
"192 1059 LINE",
"281 1111 OFFCURVE",
"392 1152 OFFCURVE",
"529 1152 CURVE SMOOTH",
"779 1152 OFFCURVE",
"920 997 OFFCURVE",
"940 733 CURVE",
"54 733 LINE",
"54 723 LINE SMOOTH",
"54 707 OFFCURVE",
"52 672 OFFCURVE",
"53 646 CURVE SMOOTH"
);
},
{
closed = 1;
nodes = (
"894 328 OFFCURVE",
"782 190 OFFCURVE",
"590 190 CURVE SMOOTH",
"400 190 OFFCURVE",
"314 331 OFFCURVE",
"296 529 CURVE",
"928 529 LINE"
);
}
);
width = 1277;
}
);
unicode = 018F;
},
{
glyphname = T;
layers = (
{
anchors = (
{
name = bottom;
position = "{629, 0}";
},
{
name = center;
position = "{629, 0}";
},
{
name = top;
position = "{629, 0}";
}
);
layerId = "280E06E1-9336-45D2-8B5F-14710EC8A5A0";
name = Bold;
paths = (
{
closed = 1;
nodes = (
"487 0 LINE",
"775 0 LINE",
"775 1198 LINE",
"702 1126 LINE",
"1146 1126 LINE",
"1146 1336 LINE",
"112 1336 LINE",
"112 1126 LINE",
"560 1126 LINE",
"487 1199 LINE"
);
}
);
width = 1258;
}
);
unicode = 0054;
},
{
glyphname = Tcaron;
layers = (
{
layerId = "280E06E1-9336-45D2-8B5F-14710EC8A5A0";
name = Bold;
paths = (
{
closed = 1;
nodes = (
"440 0 LINE",
"728 0 LINE",
"728 1126 LINE",
"1099 1126 LINE",
"1099 1336 LINE",
"65 1336 LINE",
"65 1126 LINE",
"440 1126 LINE"
);
},
{
closed = 1;
nodes = (
"487 1479 LINE",
"677 1479 LINE",
"925 1816 LINE",
"720 1816 LINE",
"570 1645 LINE",
"440 1816 LINE",
"239 1816 LINE"
);
}
);
width = 1164;
}
);
unicode = 0164;
},
{
glyphname = Tcommaaccent;
layers = (
{
layerId = "280E06E1-9336-45D2-8B5F-14710EC8A5A0";
name = Bold;
paths = (
{
closed = 1;
nodes = (
"392 -345 LINE",
"602 -345 LINE",
"654 0 LINE",
"728 0 LINE",
"728 1126 LINE",
"1099 1126 LINE",
"1099 1336 LINE",
"65 1336 LINE",
"65 1126 LINE",
"440 1126 LINE",
"440 0 LINE",
"505 0 LINE"
);
}
);
width = 1164;
}
);
unicode = 021A;
},
{
glyphname = U;
layers = (
{
anchors = (
{
name = ogonek;
position = "{1303, 10}";
},
{
name = top;
position = "{724, 0}";
}
);
layerId = "280E06E1-9336-45D2-8B5F-14710EC8A5A0";
name = Bold;
paths = (
{
closed = 1;
nodes = (
"168 170 OFFCURVE",
"376 -18 OFFCURVE",
"724 -18 CURVE SMOOTH",
"1071 -18 OFFCURVE",
"1280 172 OFFCURVE",
"1280 484 CURVE SMOOTH",
"1280 1336 LINE",
"992 1336 LINE",
"992 505 LINE SMOOTH",
"992 310 OFFCURVE",
"906 213 OFFCURVE",
"724 213 CURVE SMOOTH",
"548 213 OFFCURVE",
"456 309 OFFCURVE",
"456 504 CURVE SMOOTH",
"456 1336 LINE",
"168 1336 LINE",
"168 485 LINE SMOOTH"
);
}
);
width = 1448;
}
);
unicode = 0055;
},
{
glyphname = Uacute;
layers = (
{
layerId = "280E06E1-9336-45D2-8B5F-14710EC8A5A0";
name = Bold;
paths = (
{
closed = 1;
nodes = (
"169 170 OFFCURVE",
"372 -18 OFFCURVE",
"720 -18 CURVE SMOOTH",
"1067 -18 OFFCURVE",
"1271 172 OFFCURVE",
"1271 484 CURVE SMOOTH",
"1271 1336 LINE",
"983 1336 LINE",
"983 505 LINE SMOOTH",
"983 310 OFFCURVE",
"902 213 OFFCURVE",
"720 213 CURVE SMOOTH",
"544 213 OFFCURVE",
"457 309 OFFCURVE",
"457 504 CURVE SMOOTH",
"457 1336 LINE",
"169 1336 LINE",
"169 485 LINE SMOOTH"
);
},
{
closed = 1;
nodes = (
"642 1479 LINE",
"798 1479 LINE",
"1094 1840 LINE",
"802 1840 LINE"
);
}
);
width = 1440;
}
);
unicode = 00DA;
},
{
glyphname = Ubreve;
layers = (
{
layerId = "280E06E1-9336-45D2-8B5F-14710EC8A5A0";
name = Bold;
paths = (
{
closed = 1;
nodes = (
"169 170 OFFCURVE",
"372 -18 OFFCURVE",
"720 -18 CURVE SMOOTH",
"1067 -18 OFFCURVE",
"1271 172 OFFCURVE",
"1271 484 CURVE SMOOTH",
"1271 1336 LINE",
"983 1336 LINE",
"983 505 LINE SMOOTH",
"983 310 OFFCURVE",
"902 213 OFFCURVE",
"720 213 CURVE SMOOTH",
"544 213 OFFCURVE",
"457 309 OFFCURVE",
"457 504 CURVE SMOOTH",
"457 1336 LINE",
"169 1336 LINE",
"169 485 LINE SMOOTH"
);
},
{
closed = 1;
nodes = (
"451 1557 OFFCURVE",
"567 1479 OFFCURVE",
"719 1479 CURVE SMOOTH",
"872 1479 OFFCURVE",
"989 1556 OFFCURVE",
"989 1722 CURVE",
"820 1722 LINE",
"820 1661 OFFCURVE",
"793 1637 OFFCURVE",
"719 1637 CURVE SMOOTH",
"645 1637 OFFCURVE",
"619 1661 OFFCURVE",
"619 1722 CURVE",
"451 1722 LINE"
);
}
);
width = 1440;
}
);
unicode = 016C;
},
{
glyphname = Ucircumflex;
layers = (
{
layerId = "280E06E1-9336-45D2-8B5F-14710EC8A5A0";
name = Bold;
paths = (
{
closed = 1;
nodes = (
"169 170 OFFCURVE",
"372 -18 OFFCURVE",
"720 -18 CURVE SMOOTH",
"1067 -18 OFFCURVE",
"1271 172 OFFCURVE",
"1271 484 CURVE SMOOTH",
"1271 1336 LINE",
"983 1336 LINE",
"983 505 LINE SMOOTH",
"983 310 OFFCURVE",
"902 213 OFFCURVE",
"720 213 CURVE SMOOTH",
"544 213 OFFCURVE",
"457 309 OFFCURVE",
"457 504 CURVE SMOOTH",
"457 1336 LINE",
"169 1336 LINE",
"169 485 LINE SMOOTH"
);
},
{
closed = 1;
nodes = (
"386 1479 LINE",
"568 1479 LINE",
"710 1673 LINE",
"868 1479 LINE",
"1054 1479 LINE",
"818 1847 LINE",
"622 1847 LINE"
);
}
);
width = 1440;
}
);
unicode = 00DB;
},
{
glyphname = Udieresis;
layers = (
{
layerId = "280E06E1-9336-45D2-8B5F-14710EC8A5A0";
name = Bold;
paths = (
{
closed = 1;
nodes = (
"169 170 OFFCURVE",
"372 -18 OFFCURVE",
"720 -18 CURVE SMOOTH",
"1067 -18 OFFCURVE",
"1271 172 OFFCURVE",
"1271 484 CURVE SMOOTH",
"1271 1336 LINE",
"983 1336 LINE",
"983 505 LINE SMOOTH",
"983 310 OFFCURVE",
"902 213 OFFCURVE",
"720 213 CURVE SMOOTH",
"544 213 OFFCURVE",
"457 309 OFFCURVE",
"457 504 CURVE SMOOTH",
"457 1336 LINE",
"169 1336 LINE",
"169 485 LINE SMOOTH"
);
},
{
closed = 1;
nodes = (
"436 1479 LINE",
"630 1479 LINE",
"630 1724 LINE",
"436 1724 LINE"
);
},
{
closed = 1;
nodes = (
"812 1479 LINE",
"1004 1479 LINE",
"1004 1724 LINE",
"812 1724 LINE"
);
}
);
width = 1440;
}
);
unicode = 00DC;
},
{
glyphname = Ugrave;
layers = (
{
layerId = "280E06E1-9336-45D2-8B5F-14710EC8A5A0";
name = Bold;
paths = (
{
closed = 1;
nodes = (
"169 170 OFFCURVE",
"372 -18 OFFCURVE",
"720 -18 CURVE SMOOTH",
"1067 -18 OFFCURVE",
"1271 172 OFFCURVE",
"1271 484 CURVE SMOOTH",
"1271 1336 LINE",
"983 1336 LINE",
"983 505 LINE SMOOTH",
"983 310 OFFCURVE",
"902 213 OFFCURVE",
"720 213 CURVE SMOOTH",
"544 213 OFFCURVE",
"457 309 OFFCURVE",
"457 504 CURVE SMOOTH",
"457 1336 LINE",
"169 1336 LINE",
"169 485 LINE SMOOTH"
);
},
{
closed = 1;
nodes = (
"638 1479 LINE",
"802 1479 LINE",
"626 1840 LINE",
"326 1840 LINE"
);
}
);
width = 1440;
}
);
unicode = 00D9;
},
{
glyphname = Uhorn;
layers = (
{
layerId = "280E06E1-9336-45D2-8B5F-14710EC8A5A0";
name = Bold;
paths = (
{
closed = 1;
nodes = (
"1368 1034 OFFCURVE",
"1396 1031 OFFCURVE",
"1423 1031 CURVE SMOOTH",
"1520 1031 OFFCURVE",
"1567 1119 OFFCURVE",
"1567 1215 CURVE SMOOTH",
"1567 1259 OFFCURVE",
"1556 1307 OFFCURVE",
"1538 1351 CURVE",
"1537 1357 LINE",
"1412 1357 LINE",
"1417 1344 LINE SMOOTH",
"1430 1308 OFFCURVE",
"1443 1257 OFFCURVE",
"1443 1216 CURVE SMOOTH",
"1443 1169 OFFCURVE",
"1429 1138 OFFCURVE",
"1385 1138 CURVE SMOOTH",
"1371 1138 OFFCURVE",
"1355 1139 OFFCURVE",
"1341 1139 CURVE SMOOTH",
"1332 1139 LINE",
"1332 1038 LINE",
"1340 1037 LINE SMOOTH"
);
},
{
closed = 1;
nodes = (
"169 170 OFFCURVE",
"372 -18 OFFCURVE",
"720 -18 CURVE SMOOTH",
"1067 -18 OFFCURVE",
"1271 172 OFFCURVE",
"1271 484 CURVE SMOOTH",
"1271 1336 LINE",
"983 1336 LINE",
"983 505 LINE SMOOTH",
"983 310 OFFCURVE",
"902 213 OFFCURVE",
"720 213 CURVE SMOOTH",
"544 213 OFFCURVE",
"457 309 OFFCURVE",
"457 504 CURVE SMOOTH",
"457 1336 LINE",
"169 1336 LINE",
"169 485 LINE SMOOTH"
);
}
);
width = 1440;
}
);
unicode = 01AF;
},
{
glyphname = Uhungarumlaut;
layers = (
{
layerId = "280E06E1-9336-45D2-8B5F-14710EC8A5A0";
name = Bold;
paths = (
{
closed = 1;
nodes = (
"169 170 OFFCURVE",
"372 -18 OFFCURVE",
"720 -18 CURVE SMOOTH",
"1067 -18 OFFCURVE",
"1271 172 OFFCURVE",
"1271 484 CURVE SMOOTH",
"1271 1336 LINE",
"983 1336 LINE",
"983 505 LINE SMOOTH",
"983 310 OFFCURVE",
"902 213 OFFCURVE",
"720 213 CURVE SMOOTH",
"544 213 OFFCURVE",
"457 309 OFFCURVE",
"457 504 CURVE SMOOTH",
"457 1336 LINE",
"169 1336 LINE",
"169 485 LINE SMOOTH"
);
},
{
closed = 1;
nodes = (
"512 1479 LINE",
"656 1479 LINE",
"970 1819 LINE",
"744 1819 LINE"
);
},
{
closed = 1;
nodes = (
"786 1479 LINE",
"928 1479 LINE",
"1252 1819 LINE",
"1024 1819 LINE"
);
}
);
width = 1440;
}
);
unicode = 0170;
},
{
glyphname = Umacron;
layers = (
{
layerId = "280E06E1-9336-45D2-8B5F-14710EC8A5A0";
name = Bold;
paths = (
{
closed = 1;
nodes = (
"169 170 OFFCURVE",
"372 -18 OFFCURVE",
"720 -18 CURVE SMOOTH",
"1067 -18 OFFCURVE",
"1271 172 OFFCURVE",
"1271 484 CURVE SMOOTH",
"1271 1336 LINE",
"983 1336 LINE",
"983 505 LINE SMOOTH",
"983 310 OFFCURVE",
"902 213 OFFCURVE",
"720 213 CURVE SMOOTH",
"544 213 OFFCURVE",
"457 309 OFFCURVE",
"457 504 CURVE SMOOTH",
"457 1336 LINE",
"169 1336 LINE",
"169 485 LINE SMOOTH"
);
},
{
closed = 1;
nodes = (
"396 1479 LINE",
"1044 1479 LINE",
"1044 1638 LINE",
"396 1638 LINE"
);
}
);
width = 1440;
}
);
unicode = 016A;
},
{
glyphname = Uogonek;
layers = (
{
layerId = "280E06E1-9336-45D2-8B5F-14710EC8A5A0";
name = Bold;
paths = (
{
closed = 1;
nodes = (
"492 -357 OFFCURVE",
"584 -411 OFFCURVE",
"688 -411 CURVE SMOOTH",
"747 -411 OFFCURVE",
"807 -396 OFFCURVE",
"862 -375 CURVE",
"862 -375 OFFCURVE",
"855 -234 OFFCURVE",
"854 -234 CURVE SMOOTH",
"842 -239 OFFCURVE",
"784 -265 OFFCURVE",
"732 -265 CURVE SMOOTH",
"694 -265 OFFCURVE",
"668 -230 OFFCURVE",
"668 -196 CURVE SMOOTH",
"668 -141 OFFCURVE",
"700 -77 OFFCURVE",
"774 -20 CURVE",
"753 -17 LINE",
"1080 -5 OFFCURVE",
"1271 182 OFFCURVE",
"1271 484 CURVE SMOOTH",
"1271 1336 LINE",
"983 1336 LINE",
"983 505 LINE SMOOTH",
"983 310 OFFCURVE",
"902 213 OFFCURVE",
"720 213 CURVE SMOOTH",
"544 213 OFFCURVE",
"457 309 OFFCURVE",
"457 504 CURVE SMOOTH",
"457 1336 LINE",
"169 1336 LINE",
"169 485 LINE SMOOTH",
"169 192 OFFCURVE",
"344 9 OFFCURVE",
"648 -15 CURVE",
"579 -58 OFFCURVE",
"492 -130 OFFCURVE",
"492 -243 CURVE SMOOTH"
);
}
);
width = 1440;
}
);
unicode = 0172;
},
{
glyphname = Uring;
layers = (
{
layerId = "280E06E1-9336-45D2-8B5F-14710EC8A5A0";
name = Bold;
paths = (
{
closed = 1;
nodes = (
"169 170 OFFCURVE",
"372 -18 OFFCURVE",
"720 -18 CURVE SMOOTH",
"1067 -18 OFFCURVE",
"1271 172 OFFCURVE",
"1271 484 CURVE SMOOTH",
"1271 1336 LINE",
"983 1336 LINE",
"983 505 LINE SMOOTH",
"983 310 OFFCURVE",
"902 213 OFFCURVE",
"720 213 CURVE SMOOTH",
"544 213 OFFCURVE",
"457 309 OFFCURVE",
"457 504 CURVE SMOOTH",
"457 1336 LINE",
"169 1336 LINE",
"169 485 LINE SMOOTH"
);
},
{
closed = 1;
nodes = (
"806 1624 OFFCURVE",
"775 1580 OFFCURVE",
"720 1580 CURVE SMOOTH",
"663 1580 OFFCURVE",
"635 1623 OFFCURVE",
"635 1675 CURVE SMOOTH",
"635 1723 OFFCURVE",
"667 1770 OFFCURVE",
"720 1770 CURVE SMOOTH",
"775 1770 OFFCURVE",
"806 1724 OFFCURVE",
"806 1675 CURVE SMOOTH"
);
},
{
closed = 1;
nodes = (
"514 1572 OFFCURVE",
"591 1479 OFFCURVE",
"720 1479 CURVE SMOOTH",
"849 1479 OFFCURVE",
"926 1572 OFFCURVE",
"926 1675 CURVE SMOOTH",
"926 1777 OFFCURVE",
"851 1870 OFFCURVE",
"720 1870 CURVE SMOOTH",
"590 1870 OFFCURVE",
"514 1778 OFFCURVE",
"514 1675 CURVE SMOOTH"
);
}
);
width = 1440;
}
);
unicode = 016E;
},
{
glyphname = Utilde;
layers = (
{
layerId = "280E06E1-9336-45D2-8B5F-14710EC8A5A0";
name = Bold;
paths = (
{
closed = 1;
nodes = (
"169 170 OFFCURVE",
"372 -18 OFFCURVE",
"720 -18 CURVE SMOOTH",
"1067 -18 OFFCURVE",
"1271 172 OFFCURVE",
"1271 484 CURVE SMOOTH",
"1271 1336 LINE",
"983 1336 LINE",
"983 505 LINE SMOOTH",
"983 310 OFFCURVE",
"902 213 OFFCURVE",
"720 213 CURVE SMOOTH",
"544 213 OFFCURVE",
"457 309 OFFCURVE",
"457 504 CURVE SMOOTH",
"457 1336 LINE",
"169 1336 LINE",
"169 485 LINE SMOOTH"
);
},
{
closed = 1;
nodes = (
"552 1479 LINE",
"552 1479 OFFCURVE",
"565 1569 OFFCURVE",
"586 1569 CURVE SMOOTH",
"643 1569 OFFCURVE",
"777 1479 OFFCURVE",
"878 1479 CURVE SMOOTH",
"1026 1479 OFFCURVE",
"1036 1721 OFFCURVE",
"1036 1721 CURVE",
"886 1721 LINE",
"886 1721 OFFCURVE",
"874 1637 OFFCURVE",
"854 1636 CURVE",
"823 1636 OFFCURVE",
"687 1721 OFFCURVE",
"566 1721 CURVE SMOOTH",
"418 1721 OFFCURVE",
"404 1583 OFFCURVE",
"404 1489 CURVE"
);
}
);
width = 1440;
}
);
unicode = 0168;
},
{
glyphname = V;
layers = (
{
layerId = "280E06E1-9336-45D2-8B5F-14710EC8A5A0";
name = Bold;
paths = (
{
closed = 1;
nodes = (
"574 0 LINE",
"902 0 LINE",
"1356 1336 LINE",
"1050 1336 LINE",
"823 587 LINE",
"710 191 LINE",
"777 191 LINE",
"661 586 LINE",
"430 1336 LINE",
"122 1336 LINE"
);
}
);
width = 1478;
}
);
unicode = 0056;
},
{
glyphname = W;
layers = (
{
anchors = (
{
name = top;
position = "{971, 0}";
}
);
layerId = "280E06E1-9336-45D2-8B5F-14710EC8A5A0";
name = Bold;
paths = (
{
closed = 1;
nodes = (
"416 0 LINE",
"686 0 LINE",
"996 1040 LINE",
"951 1040 LINE",
"1237 0 LINE",
"1509 0 LINE",
"1892 1336 LINE",
"1611 1336 LINE",
"1350 308 LINE",
"1385 308 LINE",
"1101 1330 LINE",
"842 1330 LINE",
"541 308 LINE",
"579 308 LINE",
"332 1336 LINE",
"50 1336 LINE"
);
}
);
width = 1942;
}
);
unicode = 0057;
},
{
glyphname = Wacute;
layers = (
{
layerId = "280E06E1-9336-45D2-8B5F-14710EC8A5A0";
name = Bold;
paths = (
{
closed = 1;
nodes = (
"425 0 LINE",
"695 0 LINE",
"981 963 LINE",
"1246 0 LINE",
"1518 0 LINE",
"1901 1336 LINE",
"1620 1336 LINE",
"1376 373 LINE",
"1110 1330 LINE",
"851 1330 LINE",
"572 376 LINE",
"341 1336 LINE",
"59 1336 LINE"
);
},
{
closed = 1;
nodes = (
"708 1407 LINE",
"865 1407 LINE",
"1160 1768 LINE",
"868 1768 LINE"
);
}
);
width = 1868;
}
);
unicode = 1E82;
},
{
glyphname = Wcircumflex;
layers = (
{
layerId = "280E06E1-9336-45D2-8B5F-14710EC8A5A0";
name = Bold;
paths = (
{
closed = 1;
nodes = (
"425 0 LINE",
"695 0 LINE",
"981 963 LINE",
"1246 0 LINE",
"1518 0 LINE",
"1901 1336 LINE",
"1620 1336 LINE",
"1376 373 LINE",
"1110 1330 LINE",
"851 1330 LINE",
"572 376 LINE",
"341 1336 LINE",
"59 1336 LINE"
);
},
{
closed = 1;
nodes = (
"646 1479 LINE",
"828 1479 LINE",
"970 1673 LINE",
"1128 1479 LINE",
"1314 1479 LINE",
"1078 1847 LINE",
"882 1847 LINE"
);
}
);
width = 1956;
}
);
unicode = 0174;
},
{
glyphname = Wdieresis;
layers = (
{
layerId = "280E06E1-9336-45D2-8B5F-14710EC8A5A0";
name = Bold;
paths = (
{
closed = 1;
nodes = (
"425 0 LINE",
"695 0 LINE",
"981 963 LINE",
"1246 0 LINE",
"1518 0 LINE",
"1901 1336 LINE",
"1620 1336 LINE",
"1376 373 LINE",
"1110 1330 LINE",
"851 1330 LINE",
"572 376 LINE",
"341 1336 LINE",
"59 1336 LINE"
);
},
{
closed = 1;
nodes = (
"650 1445 LINE",
"844 1445 LINE",
"844 1690 LINE",
"650 1690 LINE"
);
},
{
closed = 1;
nodes = (
"1026 1445 LINE",
"1218 1445 LINE",
"1218 1690 LINE",
"1026 1690 LINE"
);
}
);
width = 1868;
}
);
unicode = 1E84;
},
{
glyphname = Wgrave;
layers = (
{
layerId = "280E06E1-9336-45D2-8B5F-14710EC8A5A0";
name = Bold;
paths = (
{
closed = 1;
nodes = (
"425 0 LINE",
"695 0 LINE",
"981 963 LINE",
"1246 0 LINE",
"1518 0 LINE",
"1901 1336 LINE",
"1620 1336 LINE",
"1376 373 LINE",
"1110 1330 LINE",
"851 1330 LINE",
"572 376 LINE",
"341 1336 LINE",
"59 1336 LINE"
);
},
{
closed = 1;
nodes = (
"1007 1407 LINE",
"1172 1407 LINE",
"995 1768 LINE",
"696 1768 LINE"
);
}
);
width = 1868;
}
);
unicode = 1E80;
},
{
glyphname = X;
layers = (
{
layerId = "280E06E1-9336-45D2-8B5F-14710EC8A5A0";
name = Bold;
paths = (
{
closed = 1;
nodes = (
"73 0 LINE",
"369 0 LINE",
"707 476 LINE",
"841 652 LINE",
"1287 1336 LINE",
"996 1336 LINE",
"699 880 LINE",
"552 707 LINE"
);
},
{
closed = 1;
nodes = (
"997 0 LINE",
"1309 0 LINE",
"410 1336 LINE",
"105 1336 LINE"
);
}
);
width = 1382;
}
);
unicode = 0058;
},
{
glyphname = Y;
layers = (
{
anchors = (
{
name = top;
position = "{677, 0}";
}
);
layerId = "280E06E1-9336-45D2-8B5F-14710EC8A5A0";
name = Bold;
paths = (
{
closed = 1;
nodes = (
"535 0 LINE",
"817 0 LINE",
"817 604 LINE",
"763 397 LINE",
"1261 1336 LINE",
"963 1336 LINE",
"631 658 LINE",
"716 658 LINE",
"395 1336 LINE",
"92 1336 LINE",
"595 382 LINE",
"535 598 LINE"
);
}
);
width = 1353;
}
);
unicode = 0059;
},
{
glyphname = Yacute;
layers = (
{
layerId = "280E06E1-9336-45D2-8B5F-14710EC8A5A0";
name = Bold;
paths = (
{
closed = 1;
nodes = (
"482 0 LINE",
"764 0 LINE",
"764 499 LINE",
"1208 1336 LINE",
"910 1336 LINE",
"623 749 LINE",
"342 1336 LINE",
"39 1336 LINE",
"482 495 LINE"
);
},
{
closed = 1;
nodes = (
"545 1479 LINE",
"702 1479 LINE",
"997 1840 LINE",
"705 1840 LINE"
);
}
);
width = 1231;
}
);
unicode = 00DD;
},
{
glyphname = Ycircumflex;
layers = (
{
layerId = "280E06E1-9336-45D2-8B5F-14710EC8A5A0";
name = Bold;
paths = (
{
closed = 1;
nodes = (
"482 0 LINE",
"764 0 LINE",
"764 499 LINE",
"1208 1336 LINE",
"910 1336 LINE",
"623 749 LINE",
"342 1336 LINE",
"39 1336 LINE",
"482 495 LINE"
);
},
{
closed = 1;
nodes = (
"290 1479 LINE",
"471 1479 LINE",
"613 1673 LINE",
"771 1479 LINE",
"957 1479 LINE",
"721 1847 LINE",
"525 1847 LINE"
);
}
);
width = 1231;
}
);
unicode = 0176;
},
{
glyphname = Ydieresis;
layers = (
{
layerId = "280E06E1-9336-45D2-8B5F-14710EC8A5A0";
name = Bold;
paths = (
{
closed = 1;
nodes = (
"482 0 LINE",
"764 0 LINE",
"764 499 LINE",
"1208 1336 LINE",
"910 1336 LINE",
"623 749 LINE",
"342 1336 LINE",
"39 1336 LINE",
"482 495 LINE"
);
},
{
closed = 1;
nodes = (
"339 1479 LINE",
"533 1479 LINE",
"533 1724 LINE",
"339 1724 LINE"
);
},
{
closed = 1;
nodes = (
"715 1479 LINE",
"908 1479 LINE",
"908 1724 LINE",
"715 1724 LINE"
);
}
);
width = 1231;
}
);
unicode = 0178;
},
{
glyphname = Ygrave;
layers = (
{
layerId = "280E06E1-9336-45D2-8B5F-14710EC8A5A0";
name = Bold;
paths = (
{
closed = 1;
nodes = (
"656 1407 LINE",
"657 1407 LINE",
"658 1407 LINE",
"659 1407 LINE",
"660 1407 LINE",
"661 1407 LINE",
"662 1407 LINE",
"663 1407 LINE",
"664 1407 LINE",
"665 1407 LINE",
"666 1407 LINE",
"667 1407 LINE",
"668 1407 LINE",
"821 1407 LINE",
"822 1407 LINE",
"823 1407 LINE",
"824 1407 LINE",
"825 1407 LINE",
"826 1407 LINE",
"827 1407 LINE",
"828 1407 LINE",
"829 1407 LINE",
"830 1407 LINE",
"831 1407 LINE",
"832 1407 LINE",
"833 1407 LINE",
"656 1768 LINE",
"655 1768 LINE",
"654 1768 LINE",
"653 1768 LINE",
"652 1768 LINE",
"651 1768 LINE",
"650 1768 LINE",
"649 1768 LINE",
"648 1768 LINE",
"647 1768 LINE",
"646 1768 LINE",
"645 1768 LINE",
"644 1768 LINE",
"357 1768 LINE",
"356 1768 LINE",
"355 1768 LINE",
"354 1768 LINE",
"353 1768 LINE",
"352 1768 LINE",
"351 1768 LINE",
"350 1768 LINE",
"349 1768 LINE",
"348 1768 LINE",
"347 1768 LINE",
"346 1768 LINE",
"345 1768 LINE"
);
},
{
closed = 1;
nodes = (
"482 0 LINE",
"764 0 LINE",
"764 499 LINE",
"1208 1336 LINE",
"910 1336 LINE",
"623 749 LINE",
"342 1336 LINE",
"39 1336 LINE",
"482 495 LINE"
);
}
);
width = 1172;
}
);
unicode = 1EF2;
},
{
glyphname = Z;
layers = (
{
anchors = (
{
name = top;
position = "{625, 0}";
}
);
layerId = "280E06E1-9336-45D2-8B5F-14710EC8A5A0";
name = Bold;
paths = (
{
closed = 1;
nodes = (
"163 0 LINE",
"1101 0 LINE",
"1101 216 LINE",
"446 216 LINE",
"483 133 LINE",
"1092 1150 LINE",
"1092 1336 LINE",
"170 1336 LINE",
"170 1126 LINE",
"847 1126 LINE",
"804 1212 LINE",
"163 172 LINE"
);
}
);
width = 1249;
}
);
unicode = 005A;
},
{
glyphname = Zacute;
layers = (
{
layerId = "280E06E1-9336-45D2-8B5F-14710EC8A5A0";
name = Bold;
paths = (
{
closed = 1;
nodes = (
"133 0 LINE",
"1071 0 LINE",
"1071 216 LINE",
"503 216 LINE",
"1062 1150 LINE",
"1062 1336 LINE",
"140 1336 LINE",
"140 1126 LINE",
"722 1126 LINE",
"133 172 LINE"
);
},
{
closed = 1;
nodes = (
"524 1479 LINE",
"680 1479 LINE",
"976 1840 LINE",
"684 1840 LINE"
);
}
);
width = 1202;
}
);
unicode = 0179;
},
{
glyphname = Zcaron;
layers = (
{
layerId = "280E06E1-9336-45D2-8B5F-14710EC8A5A0";
name = Bold;
paths = (
{
closed = 1;
nodes = (
"133 0 LINE",
"1071 0 LINE",
"1071 216 LINE",
"503 216 LINE",
"1062 1150 LINE",
"1062 1336 LINE",
"140 1336 LINE",
"140 1126 LINE",
"722 1126 LINE",
"133 172 LINE"
);
},
{
closed = 1;
nodes = (
"507 1479 LINE",
"697 1479 LINE",
"945 1816 LINE",
"740 1816 LINE",
"590 1645 LINE",
"460 1816 LINE",
"259 1816 LINE"
);
}
);
width = 1202;
}
);
unicode = 017D;
},
{
glyphname = Zdotaccent;
layers = (
{
layerId = "280E06E1-9336-45D2-8B5F-14710EC8A5A0";
name = Bold;
paths = (
{
closed = 1;
nodes = (
"133 0 LINE",
"1071 0 LINE",
"1071 216 LINE",
"503 216 LINE",
"1062 1150 LINE",
"1062 1336 LINE",
"140 1336 LINE",
"140 1126 LINE",
"722 1126 LINE",
"133 172 LINE"
);
},
{
closed = 1;
nodes = (
"503 1479 LINE",
"701 1479 LINE",
"701 1691 LINE",
"503 1691 LINE"
);
}
);
width = 1202;
}
);
unicode = 017B;
},
{
glyphname = uni01C4;
layers = (
{
layerId = "280E06E1-9336-45D2-8B5F-14710EC8A5A0";
name = Bold;
paths = (
{
closed = 1;
nodes = (
"1619 0 LINE",
"2557 0 LINE",
"2557 216 LINE",
"1989 216 LINE",
"2548 1150 LINE",
"2548 1336 LINE",
"1626 1336 LINE",
"1626 1126 LINE",
"2208 1126 LINE",
"1619 172 LINE"
);
},
{
closed = 1;
nodes = (
"1993 1479 LINE",
"2183 1479 LINE",
"2431 1816 LINE",
"2226 1816 LINE",
"2076 1645 LINE",
"1946 1816 LINE",
"1745 1816 LINE"
);
},
{
closed = 1;
nodes = (
"490 216 LINE",
"490 1126 LINE",
"611 1126 LINE SMOOTH",
"919 1126 OFFCURVE",
"1067 992 OFFCURVE",
"1067 671 CURVE SMOOTH",
"1067 377 OFFCURVE",
"927 216 OFFCURVE",
"637 216 CURVE SMOOTH"
);
},
{
closed = 1;
nodes = (
"202 0 LINE",
"623 0 LINE SMOOTH",
"1066 0 OFFCURVE",
"1354 238 OFFCURVE",
"1354 676 CURVE SMOOTH",
"1354 1130 OFFCURVE",
"1049 1336 OFFCURVE",
"600 1336 CURVE SMOOTH",
"202 1336 LINE"
);
}
);
width = 2688;
}
);
unicode = 01C4;
},
{
glyphname = uni01C5;
layers = (
{
layerId = "280E06E1-9336-45D2-8B5F-14710EC8A5A0";
name = Bold;
paths = (
{
closed = 1;
nodes = (
"1598 0 LINE",
"2368 0 LINE",
"2368 192 LINE",
"1910 192 LINE",
"2352 840 LINE",
"2352 1016 LINE",
"1620 1016 LINE",
"1620 832 LINE",
"2065 832 LINE",
"1598 158 LINE"
);
},
{
closed = 1;
nodes = (
"1888 1163 LINE",
"2078 1163 LINE",
"2326 1500 LINE",
"2121 1500 LINE",
"1971 1329 LINE",
"1841 1500 LINE",
"1640 1500 LINE"
);
},
{
closed = 1;
nodes = (
"490 216 LINE",
"490 1126 LINE",
"611 1126 LINE SMOOTH",
"919 1126 OFFCURVE",
"1067 992 OFFCURVE",
"1067 671 CURVE SMOOTH",
"1067 377 OFFCURVE",
"927 216 OFFCURVE",
"637 216 CURVE SMOOTH"
);
},
{
closed = 1;
nodes = (
"202 0 LINE",
"623 0 LINE SMOOTH",
"1066 0 OFFCURVE",
"1354 238 OFFCURVE",
"1354 676 CURVE SMOOTH",
"1354 1130 OFFCURVE",
"1049 1336 OFFCURVE",
"600 1336 CURVE SMOOTH",
"202 1336 LINE"
);
}
);
width = 2481;
}
);
unicode = 01C5;
},
{
glyphname = uni01C7;
layers = (
{
layerId = "280E06E1-9336-45D2-8B5F-14710EC8A5A0";
name = Bold;
paths = (
{
closed = 1;
nodes = (
"202 0 LINE",
"1009 0 LINE",
"1023 216 LINE",
"490 216 LINE",
"490 1336 LINE",
"202 1336 LINE"
);
},
{
closed = 1;
nodes = (
"1143 -285 LINE",
"1504 -282 OFFCURVE",
"1681 -153 OFFCURVE",
"1681 144 CURVE SMOOTH",
"1681 1336 LINE",
"1393 1336 LINE",
"1393 126 LINE SMOOTH",
"1393 -21 OFFCURVE",
"1310 -69 OFFCURVE",
"1131 -75 CURVE"
);
}
);
width = 1883;
}
);
unicode = 01C7;
},
{
glyphname = uni01C8;
layers = (
{
layerId = "280E06E1-9336-45D2-8B5F-14710EC8A5A0";
name = Bold;
paths = (
{
closed = 1;
nodes = (
"1133 -379 LINE",
"1193 -379 LINE SMOOTH",
"1511 -379 OFFCURVE",
"1573 -240 OFFCURVE",
"1573 40 CURVE SMOOTH",
"1573 1017 LINE",
"1320 1017 LINE",
"1320 -4 LINE SMOOTH",
"1320 -149 OFFCURVE",
"1307 -187 OFFCURVE",
"1166 -187 CURVE SMOOTH",
"1104 -187 LINE"
);
},
{
closed = 1;
nodes = (
"202 0 LINE",
"1009 0 LINE",
"1023 216 LINE",
"490 216 LINE",
"490 1336 LINE",
"202 1336 LINE"
);
},
{
closed = 1;
nodes = (
"1320 1157 LINE",
"1573 1157 LINE",
"1573 1375 LINE",
"1320 1375 LINE"
);
}
);
width = 1732;
}
);
unicode = 01C8;
},
{
glyphname = uni01CA;
layers = (
{
layerId = "280E06E1-9336-45D2-8B5F-14710EC8A5A0";
name = Bold;
paths = (
{
closed = 1;
nodes = (
"202 0 LINE",
"479 0 LINE",
"479 409 LINE SMOOTH",
"479 430 OFFCURVE",
"451 961 OFFCURVE",
"451 961 CURVE",
"1036 0 LINE",
"1339 0 LINE",
"1339 1336 LINE",
"1068 1336 LINE",
"1068 795 LINE SMOOTH",
"1068 787 OFFCURVE",
"1087 350 OFFCURVE",
"1087 350 CURVE",
"494 1336 LINE",
"202 1336 LINE"
);
},
{
closed = 1;
nodes = (
"1581 -285 LINE",
"1942 -282 OFFCURVE",
"2119 -153 OFFCURVE",
"2119 144 CURVE SMOOTH",
"2119 1336 LINE",
"1831 1336 LINE",
"1831 126 LINE SMOOTH",
"1831 -21 OFFCURVE",
"1748 -69 OFFCURVE",
"1569 -75 CURVE"
);
}
);
width = 2321;
}
);
unicode = 01CA;
},
{
glyphname = uni01CB;
layers = (
{
layerId = "280E06E1-9336-45D2-8B5F-14710EC8A5A0";
name = Bold;
paths = (
{
closed = 1;
nodes = (
"202 0 LINE",
"479 0 LINE",
"479 409 LINE SMOOTH",
"479 430 OFFCURVE",
"451 961 OFFCURVE",
"451 961 CURVE",
"1036 0 LINE",
"1339 0 LINE",
"1339 1336 LINE",
"1068 1336 LINE",
"1068 795 LINE SMOOTH",
"1068 787 OFFCURVE",
"1087 350 OFFCURVE",
"1087 350 CURVE",
"494 1336 LINE",
"202 1336 LINE"
);
},
{
closed = 1;
nodes = (
"1571 -379 LINE",
"1631 -379 LINE SMOOTH",
"1949 -379 OFFCURVE",
"2011 -240 OFFCURVE",
"2011 40 CURVE SMOOTH",
"2011 1017 LINE",
"1758 1017 LINE",
"1758 -4 LINE SMOOTH",
"1758 -149 OFFCURVE",
"1745 -187 OFFCURVE",
"1604 -187 CURVE SMOOTH",
"1542 -187 LINE"
);
},
{
closed = 1;
nodes = (
"1758 1157 LINE",
"2011 1157 LINE",
"2011 1375 LINE",
"1758 1375 LINE"
);
}
);
width = 2170;
}
);
unicode = 01CB;
},
{
glyphname = uni01CD;
layers = (
{
layerId = "280E06E1-9336-45D2-8B5F-14710EC8A5A0";
name = Bold;
paths = (
{
closed = 1;
nodes = (
"90 0 LINE",
"378 0 LINE",
"498 365 LINE",
"924 365 LINE",
"1051 0 LINE",
"1337 0 LINE",
"883 1336 LINE",
"545 1336 LINE"
);
},
{
closed = 1;
nodes = (
"618 1479 LINE",
"808 1479 LINE",
"1056 1816 LINE",
"852 1816 LINE",
"702 1645 LINE",
"572 1816 LINE",
"370 1816 LINE"
);
},
{
closed = 1;
nodes = (
"556 555 LINE",
"718 1093 LINE",
"868 555 LINE"
);
}
);
width = 1427;
}
);
unicode = 01CD;
},
{
glyphname = uni01CF;
layers = (
{
layerId = "280E06E1-9336-45D2-8B5F-14710EC8A5A0";
name = Bold;
paths = (
{
closed = 1;
nodes = (
"251 1479 LINE",
"441 1479 LINE",
"689 1816 LINE",
"484 1816 LINE",
"334 1645 LINE",
"204 1816 LINE",
"3 1816 LINE"
);
},
{
closed = 1;
nodes = (
"202 0 LINE",
"490 0 LINE",
"490 1336 LINE",
"202 1336 LINE"
);
}
);
width = 692;
}
);
unicode = 01CF;
},
{
glyphname = uni01D1;
layers = (
{
layerId = "280E06E1-9336-45D2-8B5F-14710EC8A5A0";
name = Bold;
paths = (
{
closed = 1;
nodes = (
"688 1479 LINE",
"878 1479 LINE",
"1126 1816 LINE",
"921 1816 LINE",
"771 1645 LINE",
"641 1816 LINE",
"440 1816 LINE"
);
},
{
closed = 1;
nodes = (
"1146 393 OFFCURVE",
"1012 210 OFFCURVE",
"784 210 CURVE SMOOTH",
"556 210 OFFCURVE",
"420 393 OFFCURVE",
"420 667 CURVE SMOOTH",
"420 946 OFFCURVE",
"557 1127 OFFCURVE",
"784 1127 CURVE SMOOTH",
"1011 1127 OFFCURVE",
"1146 946 OFFCURVE",
"1146 667 CURVE SMOOTH"
);
},
{
closed = 1;
nodes = (
"132 237 OFFCURVE",
"391 -18 OFFCURVE",
"784 -18 CURVE SMOOTH",
"1177 -18 OFFCURVE",
"1434 237 OFFCURVE",
"1434 669 CURVE SMOOTH",
"1434 1105 OFFCURVE",
"1175 1357 OFFCURVE",
"784 1357 CURVE SMOOTH",
"393 1357 OFFCURVE",
"132 1105 OFFCURVE",
"132 669 CURVE SMOOTH"
);
}
);
width = 1566;
}
);
unicode = 01D1;
},
{
glyphname = uni01D3;
layers = (
{
layerId = "280E06E1-9336-45D2-8B5F-14710EC8A5A0";
name = Bold;
paths = (
{
closed = 1;
nodes = (
"169 170 OFFCURVE",
"372 -18 OFFCURVE",
"720 -18 CURVE SMOOTH",
"1067 -18 OFFCURVE",
"1271 172 OFFCURVE",
"1271 484 CURVE SMOOTH",
"1271 1336 LINE",
"983 1336 LINE",
"983 505 LINE SMOOTH",
"983 310 OFFCURVE",
"902 213 OFFCURVE",
"720 213 CURVE SMOOTH",
"544 213 OFFCURVE",
"457 309 OFFCURVE",
"457 504 CURVE SMOOTH",
"457 1336 LINE",
"169 1336 LINE",
"169 485 LINE SMOOTH"
);
},
{
closed = 1;
nodes = (
"625 1479 LINE",
"815 1479 LINE",
"1063 1816 LINE",
"858 1816 LINE",
"708 1645 LINE",
"578 1816 LINE",
"377 1816 LINE"
);
}
);
width = 1440;
}
);
unicode = 01D3;
},
{
glyphname = uni01D5;
layers = (
{
layerId = "280E06E1-9336-45D2-8B5F-14710EC8A5A0";
name = Bold;
paths = (
{
closed = 1;
nodes = (
"169 170 OFFCURVE",
"372 -18 OFFCURVE",
"720 -18 CURVE SMOOTH",
"1067 -18 OFFCURVE",
"1271 172 OFFCURVE",
"1271 484 CURVE SMOOTH",
"1271 1336 LINE",
"983 1336 LINE",
"983 505 LINE SMOOTH",
"983 310 OFFCURVE",
"902 213 OFFCURVE",
"720 213 CURVE SMOOTH",
"544 213 OFFCURVE",
"457 309 OFFCURVE",
"457 504 CURVE SMOOTH",
"457 1336 LINE",
"169 1336 LINE",
"169 485 LINE SMOOTH"
);
},
{
closed = 1;
nodes = (
"436 1479 LINE",
"630 1479 LINE",
"630 1724 LINE",
"436 1724 LINE"
);
},
{
closed = 1;
nodes = (
"396 1846 LINE",
"1044 1846 LINE",
"1044 2005 LINE",
"396 2005 LINE"
);
},
{
closed = 1;
nodes = (
"812 1479 LINE",
"1004 1479 LINE",
"1004 1724 LINE",
"812 1724 LINE"
);
}
);
width = 1440;
}
);
unicode = 01D5;
},
{
glyphname = uni01D7;
layers = (
{
layerId = "280E06E1-9336-45D2-8B5F-14710EC8A5A0";
name = Bold;
paths = (
{
closed = 1;
nodes = (
"169 170 OFFCURVE",
"372 -18 OFFCURVE",
"720 -18 CURVE SMOOTH",
"1067 -18 OFFCURVE",
"1271 172 OFFCURVE",
"1271 484 CURVE SMOOTH",
"1271 1336 LINE",
"983 1336 LINE",
"983 505 LINE SMOOTH",
"983 310 OFFCURVE",
"902 213 OFFCURVE",
"720 213 CURVE SMOOTH",
"544 213 OFFCURVE",
"457 309 OFFCURVE",
"457 504 CURVE SMOOTH",
"457 1336 LINE",
"169 1336 LINE",
"169 485 LINE SMOOTH"
);
},
{
closed = 1;
nodes = (
"436 1479 LINE",
"630 1479 LINE",
"630 1724 LINE",
"436 1724 LINE"
);
},
{
closed = 1;
nodes = (
"812 1479 LINE",
"1004 1479 LINE",
"1004 1724 LINE",
"812 1724 LINE"
);
},
{
closed = 1;
nodes = (
"642 1846 LINE",
"798 1846 LINE",
"1094 2207 LINE",
"802 2207 LINE"
);
}
);
width = 1440;
}
);
unicode = 01D7;
},
{
glyphname = uni01D9;
layers = (
{
layerId = "280E06E1-9336-45D2-8B5F-14710EC8A5A0";
name = Bold;
paths = (
{
closed = 1;
nodes = (
"169 170 OFFCURVE",
"372 -18 OFFCURVE",
"720 -18 CURVE SMOOTH",
"1067 -18 OFFCURVE",
"1271 172 OFFCURVE",
"1271 484 CURVE SMOOTH",
"1271 1336 LINE",
"983 1336 LINE",
"983 505 LINE SMOOTH",
"983 310 OFFCURVE",
"902 213 OFFCURVE",
"720 213 CURVE SMOOTH",
"544 213 OFFCURVE",
"457 309 OFFCURVE",
"457 504 CURVE SMOOTH",
"457 1336 LINE",
"169 1336 LINE",
"169 485 LINE SMOOTH"
);
},
{
closed = 1;
nodes = (
"625 1846 LINE",
"815 1846 LINE",
"1063 2183 LINE",
"858 2183 LINE",
"708 2012 LINE",
"578 2183 LINE",
"377 2183 LINE"
);
},
{
closed = 1;
nodes = (
"436 1479 LINE",
"630 1479 LINE",
"630 1724 LINE",
"436 1724 LINE"
);
},
{
closed = 1;
nodes = (
"812 1479 LINE",
"1004 1479 LINE",
"1004 1724 LINE",
"812 1724 LINE"
);
}
);
width = 1440;
}
);
unicode = 01D9;
},
{
glyphname = uni01DB;
layers = (
{
layerId = "280E06E1-9336-45D2-8B5F-14710EC8A5A0";
name = Bold;
paths = (
{
closed = 1;
nodes = (
"169 170 OFFCURVE",
"372 -18 OFFCURVE",
"720 -18 CURVE SMOOTH",
"1067 -18 OFFCURVE",
"1271 172 OFFCURVE",
"1271 484 CURVE SMOOTH",
"1271 1336 LINE",
"983 1336 LINE",
"983 505 LINE SMOOTH",
"983 310 OFFCURVE",
"902 213 OFFCURVE",
"720 213 CURVE SMOOTH",
"544 213 OFFCURVE",
"457 309 OFFCURVE",
"457 504 CURVE SMOOTH",
"457 1336 LINE",
"169 1336 LINE",
"169 485 LINE SMOOTH"
);
},
{
closed = 1;
nodes = (
"436 1479 LINE",
"630 1479 LINE",
"630 1724 LINE",
"436 1724 LINE"
);
},
{
closed = 1;
nodes = (
"638 1846 LINE",
"802 1846 LINE",
"626 2207 LINE",
"326 2207 LINE"
);
},
{
closed = 1;
nodes = (
"812 1479 LINE",
"1004 1479 LINE",
"1004 1724 LINE",
"812 1724 LINE"
);
}
);
width = 1440;
}
);
unicode = 01DB;
},
{
glyphname = uni01DE;
layers = (
{
layerId = "280E06E1-9336-45D2-8B5F-14710EC8A5A0";
name = Bold;
paths = (
{
closed = 1;
nodes = (
"90 0 LINE",
"378 0 LINE",
"498 365 LINE",
"924 365 LINE",
"1051 0 LINE",
"1337 0 LINE",
"883 1336 LINE",
"545 1336 LINE"
);
},
{
closed = 1;
nodes = (
"429 1479 LINE",
"623 1479 LINE",
"623 1724 LINE",
"429 1724 LINE"
);
},
{
closed = 1;
nodes = (
"389 1846 LINE",
"1038 1846 LINE",
"1038 2005 LINE",
"389 2005 LINE"
);
},
{
closed = 1;
nodes = (
"805 1479 LINE",
"998 1479 LINE",
"998 1724 LINE",
"805 1724 LINE"
);
},
{
closed = 1;
nodes = (
"556 555 LINE",
"718 1093 LINE",
"868 555 LINE"
);
}
);
width = 1427;
}
);
unicode = 01DE;
},
{
glyphname = uni01E8;
layers = (
{
layerId = "280E06E1-9336-45D2-8B5F-14710EC8A5A0";
name = Bold;
paths = (
{
closed = 1;
nodes = (
"202 0 LINE",
"490 0 LINE",
"490 537 LINE",
"561 611 LINE",
"974 0 LINE",
"1300 0 LINE",
"798 732 LINE",
"1290 1336 LINE",
"958 1336 LINE",
"490 775 LINE",
"490 1336 LINE",
"202 1336 LINE"
);
},
{
closed = 1;
nodes = (
"656 1479 LINE",
"846 1479 LINE",
"1094 1816 LINE",
"889 1816 LINE",
"739 1645 LINE",
"609 1816 LINE",
"408 1816 LINE"
);
}
);
width = 1361;
}
);
unicode = 01E8;
},
{
glyphname = uni01EA;
layers = (
{
layerId = "280E06E1-9336-45D2-8B5F-14710EC8A5A0";
name = Bold;
paths = (
{
closed = 1;
nodes = (
"556 -357 OFFCURVE",
"646 -411 OFFCURVE",
"750 -411 CURVE SMOOTH",
"809 -411 OFFCURVE",
"871 -396 OFFCURVE",
"926 -375 CURVE",
"926 -375 OFFCURVE",
"919 -234 OFFCURVE",
"918 -234 CURVE SMOOTH",
"906 -239 OFFCURVE",
"846 -265 OFFCURVE",
"794 -265 CURVE SMOOTH",
"756 -265 OFFCURVE",
"730 -230 OFFCURVE",
"730 -196 CURVE SMOOTH",
"730 -141 OFFCURVE",
"762 -77 OFFCURVE",
"836 -20 CURVE",
"816 -17 LINE",
"1191 -3 OFFCURVE",
"1434 249 OFFCURVE",
"1434 669 CURVE SMOOTH",
"1434 1105 OFFCURVE",
"1175 1357 OFFCURVE",
"784 1357 CURVE SMOOTH",
"393 1357 OFFCURVE",
"132 1105 OFFCURVE",
"132 669 CURVE SMOOTH",
"132 264 OFFCURVE",
"360 15 OFFCURVE",
"712 -15 CURVE",
"643 -58 OFFCURVE",
"556 -130 OFFCURVE",
"556 -243 CURVE SMOOTH"
);
},
{
closed = 1;
nodes = (
"1146 393 OFFCURVE",
"1012 210 OFFCURVE",
"784 210 CURVE SMOOTH",
"556 210 OFFCURVE",
"420 393 OFFCURVE",
"420 667 CURVE SMOOTH",
"420 946 OFFCURVE",
"557 1127 OFFCURVE",
"784 1127 CURVE SMOOTH",
"1011 1127 OFFCURVE",
"1146 946 OFFCURVE",
"1146 667 CURVE SMOOTH"
);
}
);
width = 1566;
}
);
unicode = 01EA;
},
{
glyphname = uni01EC;
layers = (
{
layerId = "280E06E1-9336-45D2-8B5F-14710EC8A5A0";
name = Bold;
paths = (
{
closed = 1;
nodes = (
"556 -357 OFFCURVE",
"646 -411 OFFCURVE",
"750 -411 CURVE SMOOTH",
"809 -411 OFFCURVE",
"871 -396 OFFCURVE",
"926 -375 CURVE",
"926 -375 OFFCURVE",
"919 -234 OFFCURVE",
"918 -234 CURVE SMOOTH",
"906 -239 OFFCURVE",
"846 -265 OFFCURVE",
"794 -265 CURVE SMOOTH",
"756 -265 OFFCURVE",
"730 -230 OFFCURVE",
"730 -196 CURVE SMOOTH",
"730 -141 OFFCURVE",
"762 -77 OFFCURVE",
"836 -20 CURVE",
"816 -17 LINE",
"1191 -3 OFFCURVE",
"1434 249 OFFCURVE",
"1434 669 CURVE SMOOTH",
"1434 1105 OFFCURVE",
"1175 1357 OFFCURVE",
"784 1357 CURVE SMOOTH",
"393 1357 OFFCURVE",
"132 1105 OFFCURVE",
"132 669 CURVE SMOOTH",
"132 264 OFFCURVE",
"360 15 OFFCURVE",
"712 -15 CURVE",
"643 -58 OFFCURVE",
"556 -130 OFFCURVE",
"556 -243 CURVE SMOOTH"
);
},
{
closed = 1;
nodes = (
"1146 393 OFFCURVE",
"1012 210 OFFCURVE",
"784 210 CURVE SMOOTH",
"556 210 OFFCURVE",
"420 393 OFFCURVE",
"420 667 CURVE SMOOTH",
"420 946 OFFCURVE",
"557 1127 OFFCURVE",
"784 1127 CURVE SMOOTH",
"1011 1127 OFFCURVE",
"1146 946 OFFCURVE",
"1146 667 CURVE SMOOTH"
);
},
{
closed = 1;
nodes = (
"458 1479 LINE",
"1108 1479 LINE",
"1108 1638 LINE",
"458 1638 LINE"
);
}
);
width = 1566;
}
);
unicode = 01EC;
},
{
glyphname = uni01F1;
layers = (
{
layerId = "280E06E1-9336-45D2-8B5F-14710EC8A5A0";
name = Bold;
paths = (
{
closed = 1;
nodes = (
"1619 0 LINE",
"2557 0 LINE",
"2557 216 LINE",
"1989 216 LINE",
"2548 1150 LINE",
"2548 1336 LINE",
"1626 1336 LINE",
"1626 1126 LINE",
"2208 1126 LINE",
"1619 172 LINE"
);
},
{
closed = 1;
nodes = (
"490 216 LINE",
"490 1126 LINE",
"611 1126 LINE SMOOTH",
"919 1126 OFFCURVE",
"1067 992 OFFCURVE",
"1067 671 CURVE SMOOTH",
"1067 377 OFFCURVE",
"927 216 OFFCURVE",
"637 216 CURVE SMOOTH"
);
},
{
closed = 1;
nodes = (
"202 0 LINE",
"623 0 LINE SMOOTH",
"1066 0 OFFCURVE",
"1354 238 OFFCURVE",
"1354 676 CURVE SMOOTH",
"1354 1130 OFFCURVE",
"1049 1336 OFFCURVE",
"600 1336 CURVE SMOOTH",
"202 1336 LINE"
);
}
);
width = 2688;
}
);
unicode = 01F1;
},
{
glyphname = uni01F2;
layers = (
{
layerId = "280E06E1-9336-45D2-8B5F-14710EC8A5A0";
name = Bold;
paths = (
{
closed = 1;
nodes = (
"1598 0 LINE",
"2368 0 LINE",
"2368 192 LINE",
"1910 192 LINE",
"2352 840 LINE",
"2352 1016 LINE",
"1620 1016 LINE",
"1620 832 LINE",
"2065 832 LINE",
"1598 158 LINE"
);
},
{
closed = 1;
nodes = (
"490 216 LINE",
"490 1126 LINE",
"611 1126 LINE SMOOTH",
"919 1126 OFFCURVE",
"1067 992 OFFCURVE",
"1067 671 CURVE SMOOTH",
"1067 377 OFFCURVE",
"927 216 OFFCURVE",
"637 216 CURVE SMOOTH"
);
},
{
closed = 1;
nodes = (
"202 0 LINE",
"623 0 LINE SMOOTH",
"1066 0 OFFCURVE",
"1354 238 OFFCURVE",
"1354 676 CURVE SMOOTH",
"1354 1130 OFFCURVE",
"1049 1336 OFFCURVE",
"600 1336 CURVE SMOOTH",
"202 1336 LINE"
);
}
);
width = 2481;
}
);
unicode = 01F2;
},
{
glyphname = uni01F4;
layers = (
{
layerId = "280E06E1-9336-45D2-8B5F-14710EC8A5A0";
name = Bold;
paths = (
{
closed = 1;
nodes = (
"132 248 OFFCURVE",
"378 -18 OFFCURVE",
"778 -18 CURVE SMOOTH",
"961 -18 OFFCURVE",
"1093 17 OFFCURVE",
"1241 82 CURVE",
"1241 727 LINE",
"725 727 LINE",
"725 519 LINE",
"994 519 LINE",
"994 245 LINE",
"931 222 OFFCURVE",
"868 213 OFFCURVE",
"789 213 CURVE SMOOTH",
"534 213 OFFCURVE",
"420 383 OFFCURVE",
"420 670 CURVE SMOOTH",
"420 964 OFFCURVE",
"547 1139 OFFCURVE",
"809 1129 CURVE SMOOTH",
"933 1124 OFFCURVE",
"1037 1090 OFFCURVE",
"1134 1042 CURVE",
"1223 1253 LINE",
"1095 1317 OFFCURVE",
"968 1357 OFFCURVE",
"804 1357 CURVE SMOOTH",
"382 1357 OFFCURVE",
"132 1105 OFFCURVE",
"132 672 CURVE SMOOTH"
);
},
{
closed = 1;
nodes = (
"608 1479 LINE",
"765 1479 LINE",
"1060 1840 LINE",
"768 1840 LINE"
);
}
);
width = 1391;
}
);
unicode = 01F4;
},
{
glyphname = uni01F8;
layers = (
{
layerId = "280E06E1-9336-45D2-8B5F-14710EC8A5A0";
name = Bold;
paths = (
{
closed = 1;
nodes = (
"202 0 LINE",
"479 0 LINE",
"479 409 LINE SMOOTH",
"479 430 OFFCURVE",
"451 961 OFFCURVE",
"451 961 CURVE",
"1036 0 LINE",
"1339 0 LINE",
"1339 1336 LINE",
"1068 1336 LINE",
"1068 795 LINE SMOOTH",
"1068 787 OFFCURVE",
"1087 350 OFFCURVE",
"1087 350 CURVE",
"494 1336 LINE",
"202 1336 LINE"
);
},
{
closed = 1;
nodes = (
"688 1479 LINE",
"853 1479 LINE",
"676 1840 LINE",
"377 1840 LINE"
);
}
);
width = 1541;
}
);
unicode = 01F8;
},
{
glyphname = uni0200;
layers = (
{
layerId = "280E06E1-9336-45D2-8B5F-14710EC8A5A0";
name = Bold;
paths = (
{
closed = 1;
nodes = (
"90 0 LINE",
"378 0 LINE",
"498 365 LINE",
"924 365 LINE",
"1051 0 LINE",
"1337 0 LINE",
"883 1336 LINE",
"545 1336 LINE"
);
},
{
closed = 1;
nodes = (
"454 1479 LINE",
"626 1479 LINE",
"431 1801 LINE",
"159 1801 LINE"
);
},
{
closed = 1;
nodes = (
"782 1479 LINE",
"973 1479 LINE",
"757 1801 LINE",
"495 1801 LINE"
);
},
{
closed = 1;
nodes = (
"556 555 LINE",
"718 1093 LINE",
"868 555 LINE"
);
}
);
width = 1427;
}
);
unicode = 0200;
},
{
glyphname = uni0202;
layers = (
{
layerId = "280E06E1-9336-45D2-8B5F-14710EC8A5A0";
name = Bold;
paths = (
{
closed = 1;
nodes = (
"90 0 LINE",
"378 0 LINE",
"498 365 LINE",
"924 365 LINE",
"1051 0 LINE",
"1337 0 LINE",
"883 1336 LINE",
"545 1336 LINE"
);
},
{
closed = 1;
nodes = (
"582 1701 OFFCURVE",
"444 1629 OFFCURVE",
"444 1479 CURVE",
"612 1479 LINE",
"612 1537 OFFCURVE",
"661 1564 OFFCURVE",
"712 1564 CURVE SMOOTH",
"764 1564 OFFCURVE",
"814 1538 OFFCURVE",
"814 1479 CURVE",
"982 1479 LINE",
"982 1630 OFFCURVE",
"848 1701 OFFCURVE",
"716 1701 CURVE SMOOTH"
);
},
{
closed = 1;
nodes = (
"556 555 LINE",
"718 1093 LINE",
"868 555 LINE"
);
}
);
width = 1427;
}
);
unicode = 0202;
},
{
glyphname = uni0204;
layers = (
{
layerId = "280E06E1-9336-45D2-8B5F-14710EC8A5A0";
name = Bold;
paths = (
{
closed = 1;
nodes = (
"202 0 LINE",
"1025 0 LINE",
"1042 216 LINE",
"490 216 LINE",
"490 595 LINE",
"994 595 LINE",
"994 805 LINE",
"490 805 LINE",
"490 1126 LINE",
"1021 1126 LINE",
"1032 1336 LINE",
"202 1336 LINE"
);
},
{
closed = 1;
nodes = (
"362 1479 LINE",
"534 1479 LINE",
"340 1801 LINE",
"68 1801 LINE"
);
},
{
closed = 1;
nodes = (
"690 1479 LINE",
"882 1479 LINE",
"666 1801 LINE",
"404 1801 LINE"
);
}
);
width = 1164;
}
);
unicode = 0204;
},
{
glyphname = uni0206;
layers = (
{
layerId = "280E06E1-9336-45D2-8B5F-14710EC8A5A0";
name = Bold;
paths = (
{
closed = 1;
nodes = (
"202 0 LINE",
"1025 0 LINE",
"1042 216 LINE",
"490 216 LINE",
"490 595 LINE",
"994 595 LINE",
"994 805 LINE",
"490 805 LINE",
"490 1126 LINE",
"1021 1126 LINE",
"1032 1336 LINE",
"202 1336 LINE"
);
},
{
closed = 1;
nodes = (
"490 1701 OFFCURVE",
"353 1629 OFFCURVE",
"353 1479 CURVE",
"521 1479 LINE",
"521 1537 OFFCURVE",
"569 1564 OFFCURVE",
"620 1564 CURVE SMOOTH",
"672 1564 OFFCURVE",
"722 1538 OFFCURVE",
"722 1479 CURVE",
"891 1479 LINE",
"891 1630 OFFCURVE",
"756 1701 OFFCURVE",
"624 1701 CURVE SMOOTH"
);
}
);
width = 1164;
}
);
unicode = 0206;
},
{
glyphname = uni0208;
layers = (
{
layerId = "280E06E1-9336-45D2-8B5F-14710EC8A5A0";
name = Bold;
paths = (
{
closed = 1;
nodes = (
"86 1479 LINE",
"258 1479 LINE",
"64 1801 LINE",
"-208 1801 LINE"
);
},
{
closed = 1;
nodes = (
"202 0 LINE",
"490 0 LINE",
"490 1336 LINE",
"202 1336 LINE"
);
},
{
closed = 1;
nodes = (
"414 1479 LINE",
"606 1479 LINE",
"390 1801 LINE",
"128 1801 LINE"
);
}
);
width = 692;
}
);
unicode = 0208;
},
{
glyphname = uni020A;
layers = (
{
layerId = "280E06E1-9336-45D2-8B5F-14710EC8A5A0";
name = Bold;
paths = (
{
closed = 1;
nodes = (
"214 1701 OFFCURVE",
"77 1629 OFFCURVE",
"77 1479 CURVE",
"245 1479 LINE",
"245 1537 OFFCURVE",
"293 1564 OFFCURVE",
"344 1564 CURVE SMOOTH",
"396 1564 OFFCURVE",
"446 1538 OFFCURVE",
"446 1479 CURVE",
"615 1479 LINE",
"615 1630 OFFCURVE",
"480 1701 OFFCURVE",
"348 1701 CURVE SMOOTH"
);
},
{
closed = 1;
nodes = (
"202 0 LINE",
"490 0 LINE",
"490 1336 LINE",
"202 1336 LINE"
);
}
);
width = 692;
}
);
unicode = 020A;
},
{
glyphname = uni020C;
layers = (
{
layerId = "280E06E1-9336-45D2-8B5F-14710EC8A5A0";
name = Bold;
paths = (
{
closed = 1;
nodes = (
"524 1479 LINE",
"696 1479 LINE",
"500 1801 LINE",
"228 1801 LINE"
);
},
{
closed = 1;
nodes = (
"1146 393 OFFCURVE",
"1012 210 OFFCURVE",
"784 210 CURVE SMOOTH",
"556 210 OFFCURVE",
"420 393 OFFCURVE",
"420 667 CURVE SMOOTH",
"420 946 OFFCURVE",
"557 1127 OFFCURVE",
"784 1127 CURVE SMOOTH",
"1011 1127 OFFCURVE",
"1146 946 OFFCURVE",
"1146 667 CURVE SMOOTH"
);
},
{
closed = 1;
nodes = (
"132 237 OFFCURVE",
"391 -18 OFFCURVE",
"784 -18 CURVE SMOOTH",
"1177 -18 OFFCURVE",
"1434 237 OFFCURVE",
"1434 669 CURVE SMOOTH",
"1434 1105 OFFCURVE",
"1175 1357 OFFCURVE",
"784 1357 CURVE SMOOTH",
"393 1357 OFFCURVE",
"132 1105 OFFCURVE",
"132 669 CURVE SMOOTH"
);
},
{
closed = 1;
nodes = (
"852 1479 LINE",
"1042 1479 LINE",
"826 1801 LINE",
"564 1801 LINE"
);
}
);
width = 1566;
}
);
unicode = 020C;
},
{
glyphname = uni020E;
layers = (
{
layerId = "280E06E1-9336-45D2-8B5F-14710EC8A5A0";
name = Bold;
paths = (
{
closed = 1;
nodes = (
"651 1701 OFFCURVE",
"514 1629 OFFCURVE",
"514 1479 CURVE",
"682 1479 LINE",
"682 1537 OFFCURVE",
"730 1564 OFFCURVE",
"781 1564 CURVE SMOOTH",
"833 1564 OFFCURVE",
"883 1538 OFFCURVE",
"883 1479 CURVE",
"1052 1479 LINE",
"1052 1630 OFFCURVE",
"917 1701 OFFCURVE",
"785 1701 CURVE SMOOTH"
);
},
{
closed = 1;
nodes = (
"1146 393 OFFCURVE",
"1012 210 OFFCURVE",
"784 210 CURVE SMOOTH",
"556 210 OFFCURVE",
"420 393 OFFCURVE",
"420 667 CURVE SMOOTH",
"420 946 OFFCURVE",
"557 1127 OFFCURVE",
"784 1127 CURVE SMOOTH",
"1011 1127 OFFCURVE",
"1146 946 OFFCURVE",
"1146 667 CURVE SMOOTH"
);
},
{
closed = 1;
nodes = (
"132 237 OFFCURVE",
"391 -18 OFFCURVE",
"784 -18 CURVE SMOOTH",
"1177 -18 OFFCURVE",
"1434 237 OFFCURVE",
"1434 669 CURVE SMOOTH",
"1434 1105 OFFCURVE",
"1175 1357 OFFCURVE",
"784 1357 CURVE SMOOTH",
"393 1357 OFFCURVE",
"132 1105 OFFCURVE",
"132 669 CURVE SMOOTH"
);
}
);
width = 1566;
}
);
unicode = 020E;
},
{
glyphname = uni0210;
layers = (
{
layerId = "280E06E1-9336-45D2-8B5F-14710EC8A5A0";
name = Bold;
paths = (
{
closed = 1;
nodes = (
"202 0 LINE",
"490 0 LINE",
"490 531 LINE",
"670 531 LINE SMOOTH",
"703 531 OFFCURVE",
"725 531 OFFCURVE",
"742 530 CURVE",
"757 501 OFFCURVE",
"812 395 OFFCURVE",
"842 331 CURVE",
"1005 0 LINE",
"1308 0 LINE",
"1111 391 LINE",
"1075 465 OFFCURVE",
"1038 539 OFFCURVE",
"1001 587 CURVE",
"1148 646 OFFCURVE",
"1258 770 OFFCURVE",
"1258 947 CURVE SMOOTH",
"1258 1258 OFFCURVE",
"1027 1336 OFFCURVE",
"721 1336 CURVE SMOOTH",
"202 1336 LINE"
);
},
{
closed = 1;
nodes = (
"490 742 LINE",
"490 1126 LINE",
"734 1126 LINE SMOOTH",
"898 1126 OFFCURVE",
"970 1064 OFFCURVE",
"970 943 CURVE SMOOTH",
"970 804 OFFCURVE",
"905 742 OFFCURVE",
"724 742 CURVE SMOOTH"
);
},
{
closed = 1;
nodes = (
"496 1479 LINE",
"668 1479 LINE",
"472 1801 LINE",
"200 1801 LINE"
);
},
{
closed = 1;
nodes = (
"824 1479 LINE",
"1014 1479 LINE",
"798 1801 LINE",
"536 1801 LINE"
);
}
);
width = 1406;
}
);
unicode = 0210;
},
{
glyphname = uni0212;
layers = (
{
layerId = "280E06E1-9336-45D2-8B5F-14710EC8A5A0";
name = Bold;
paths = (
{
closed = 1;
nodes = (
"202 0 LINE",
"490 0 LINE",
"490 531 LINE",
"670 531 LINE SMOOTH",
"703 531 OFFCURVE",
"725 531 OFFCURVE",
"742 530 CURVE",
"757 501 OFFCURVE",
"812 395 OFFCURVE",
"842 331 CURVE",
"1005 0 LINE",
"1308 0 LINE",
"1111 391 LINE",
"1075 465 OFFCURVE",
"1038 539 OFFCURVE",
"1001 587 CURVE",
"1148 646 OFFCURVE",
"1258 770 OFFCURVE",
"1258 947 CURVE SMOOTH",
"1258 1258 OFFCURVE",
"1027 1336 OFFCURVE",
"721 1336 CURVE SMOOTH",
"202 1336 LINE"
);
},
{
closed = 1;
nodes = (
"623 1701 OFFCURVE",
"486 1629 OFFCURVE",
"486 1479 CURVE",
"654 1479 LINE",
"654 1537 OFFCURVE",
"702 1564 OFFCURVE",
"753 1564 CURVE SMOOTH",
"805 1564 OFFCURVE",
"855 1538 OFFCURVE",
"855 1479 CURVE",
"1024 1479 LINE",
"1024 1630 OFFCURVE",
"889 1701 OFFCURVE",
"757 1701 CURVE SMOOTH"
);
},
{
closed = 1;
nodes = (
"490 742 LINE",
"490 1126 LINE",
"734 1126 LINE SMOOTH",
"898 1126 OFFCURVE",
"970 1064 OFFCURVE",
"970 943 CURVE SMOOTH",
"970 804 OFFCURVE",
"905 742 OFFCURVE",
"724 742 CURVE SMOOTH"
);
}
);
width = 1406;
}
);
unicode = 0212;
},
{
glyphname = uni0214;
layers = (
{
layerId = "280E06E1-9336-45D2-8B5F-14710EC8A5A0";
name = Bold;
paths = (
{
closed = 1;
nodes = (
"169 170 OFFCURVE",
"372 -18 OFFCURVE",
"720 -18 CURVE SMOOTH",
"1067 -18 OFFCURVE",
"1271 172 OFFCURVE",
"1271 484 CURVE SMOOTH",
"1271 1336 LINE",
"983 1336 LINE",
"983 505 LINE SMOOTH",
"983 310 OFFCURVE",
"902 213 OFFCURVE",
"720 213 CURVE SMOOTH",
"544 213 OFFCURVE",
"457 309 OFFCURVE",
"457 504 CURVE SMOOTH",
"457 1336 LINE",
"169 1336 LINE",
"169 485 LINE SMOOTH"
);
},
{
closed = 1;
nodes = (
"460 1479 LINE",
"632 1479 LINE",
"438 1801 LINE",
"166 1801 LINE"
);
},
{
closed = 1;
nodes = (
"788 1479 LINE",
"980 1479 LINE",
"764 1801 LINE",
"502 1801 LINE"
);
}
);
width = 1440;
}
);
unicode = 0214;
},
{
glyphname = uni0216;
layers = (
{
layerId = "280E06E1-9336-45D2-8B5F-14710EC8A5A0";
name = Bold;
paths = (
{
closed = 1;
nodes = (
"169 170 OFFCURVE",
"372 -18 OFFCURVE",
"720 -18 CURVE SMOOTH",
"1067 -18 OFFCURVE",
"1271 172 OFFCURVE",
"1271 484 CURVE SMOOTH",
"1271 1336 LINE",
"983 1336 LINE",
"983 505 LINE SMOOTH",
"983 310 OFFCURVE",
"902 213 OFFCURVE",
"720 213 CURVE SMOOTH",
"544 213 OFFCURVE",
"457 309 OFFCURVE",
"457 504 CURVE SMOOTH",
"457 1336 LINE",
"169 1336 LINE",
"169 485 LINE SMOOTH"
);
},
{
closed = 1;
nodes = (
"588 1701 OFFCURVE",
"451 1629 OFFCURVE",
"451 1479 CURVE",
"619 1479 LINE",
"619 1537 OFFCURVE",
"667 1564 OFFCURVE",
"718 1564 CURVE SMOOTH",
"770 1564 OFFCURVE",
"820 1538 OFFCURVE",
"820 1479 CURVE",
"989 1479 LINE",
"989 1630 OFFCURVE",
"854 1701 OFFCURVE",
"722 1701 CURVE SMOOTH"
);
}
);
width = 1440;
}
);
unicode = 0216;
},
{
glyphname = uni021A;
layers = (
{
layerId = "280E06E1-9336-45D2-8B5F-14710EC8A5A0";
name = Bold;
paths = (
{
closed = 1;
nodes = (
"440 0 LINE",
"728 0 LINE",
"728 1126 LINE",
"1099 1126 LINE",
"1099 1336 LINE",
"65 1336 LINE",
"65 1126 LINE",
"440 1126 LINE"
);
},
{
closed = 1;
nodes = (
"420 -601 LINE",
"588 -601 LINE",
"744 -122 LINE",
"522 -122 LINE"
);
}
);
width = 1164;
}
);
unicode = 021A;
},
{
glyphname = uni021E;
layers = (
{
layerId = "280E06E1-9336-45D2-8B5F-14710EC8A5A0";
name = Bold;
paths = (
{
closed = 1;
nodes = (
"202 0 LINE",
"490 0 LINE",
"490 578 LINE",
"1057 578 LINE",
"1057 0 LINE",
"1345 0 LINE",
"1345 1336 LINE",
"1057 1336 LINE",
"1057 793 LINE",
"490 793 LINE",
"490 1336 LINE",
"202 1336 LINE"
);
},
{
closed = 1;
nodes = (
"678 1479 LINE",
"868 1479 LINE",
"1116 1816 LINE",
"912 1816 LINE",
"762 1645 LINE",
"632 1816 LINE",
"430 1816 LINE"
);
}
);
width = 1547;
}
);
unicode = 021E;
},
{
glyphname = uni0226;
layers = (
{
layerId = "280E06E1-9336-45D2-8B5F-14710EC8A5A0";
name = Bold;
paths = (
{
closed = 1;
nodes = (
"90 0 LINE",
"378 0 LINE",
"498 365 LINE",
"924 365 LINE",
"1051 0 LINE",
"1337 0 LINE",
"883 1336 LINE",
"545 1336 LINE"
);
},
{
closed = 1;
nodes = (
"614 1479 LINE",
"812 1479 LINE",
"812 1691 LINE",
"614 1691 LINE"
);
},
{
closed = 1;
nodes = (
"556 555 LINE",
"718 1093 LINE",
"868 555 LINE"
);
}
);
width = 1427;
}
);
unicode = 0226;
},
{
glyphname = uni0228;
layers = (
{
layerId = "280E06E1-9336-45D2-8B5F-14710EC8A5A0";
name = Bold;
paths = (
{
closed = 1;
nodes = (
"432 -345 LINE",
"642 -345 LINE",
"694 0 LINE",
"1025 0 LINE",
"1042 216 LINE",
"490 216 LINE",
"490 595 LINE",
"994 595 LINE",
"994 805 LINE",
"490 805 LINE",
"490 1126 LINE",
"1021 1126 LINE",
"1032 1336 LINE",
"202 1336 LINE",
"202 0 LINE",
"545 0 LINE"
);
}
);
width = 1164;
}
);
unicode = 0228;
},
{
glyphname = uni022A;
layers = (
{
layerId = "280E06E1-9336-45D2-8B5F-14710EC8A5A0";
name = Bold;
paths = (
{
closed = 1;
nodes = (
"498 1479 LINE",
"692 1479 LINE",
"692 1724 LINE",
"498 1724 LINE"
);
},
{
closed = 1;
nodes = (
"1146 393 OFFCURVE",
"1012 210 OFFCURVE",
"784 210 CURVE SMOOTH",
"556 210 OFFCURVE",
"420 393 OFFCURVE",
"420 667 CURVE SMOOTH",
"420 946 OFFCURVE",
"557 1127 OFFCURVE",
"784 1127 CURVE SMOOTH",
"1011 1127 OFFCURVE",
"1146 946 OFFCURVE",
"1146 667 CURVE SMOOTH"
);
},
{
closed = 1;
nodes = (
"132 237 OFFCURVE",
"391 -18 OFFCURVE",
"784 -18 CURVE SMOOTH",
"1177 -18 OFFCURVE",
"1434 237 OFFCURVE",
"1434 669 CURVE SMOOTH",
"1434 1105 OFFCURVE",
"1175 1357 OFFCURVE",
"784 1357 CURVE SMOOTH",
"393 1357 OFFCURVE",
"132 1105 OFFCURVE",
"132 669 CURVE SMOOTH"
);
},
{
closed = 1;
nodes = (
"458 1846 LINE",
"1108 1846 LINE",
"1108 2005 LINE",
"458 2005 LINE"
);
},
{
closed = 1;
nodes = (
"874 1479 LINE",
"1068 1479 LINE",
"1068 1724 LINE",
"874 1724 LINE"
);
}
);
width = 1566;
}
);
unicode = 022A;
},
{
glyphname = uni0230;
layers = (
{
layerId = "280E06E1-9336-45D2-8B5F-14710EC8A5A0";
name = Bold;
paths = (
{
closed = 1;
nodes = (
"1146 393 OFFCURVE",
"1012 210 OFFCURVE",
"784 210 CURVE SMOOTH",
"556 210 OFFCURVE",
"420 393 OFFCURVE",
"420 667 CURVE SMOOTH",
"420 946 OFFCURVE",
"557 1127 OFFCURVE",
"784 1127 CURVE SMOOTH",
"1011 1127 OFFCURVE",
"1146 946 OFFCURVE",
"1146 667 CURVE SMOOTH"
);
},
{
closed = 1;
nodes = (
"132 237 OFFCURVE",
"391 -18 OFFCURVE",
"784 -18 CURVE SMOOTH",
"1177 -18 OFFCURVE",
"1434 237 OFFCURVE",
"1434 669 CURVE SMOOTH",
"1434 1105 OFFCURVE",
"1175 1357 OFFCURVE",
"784 1357 CURVE SMOOTH",
"393 1357 OFFCURVE",
"132 1105 OFFCURVE",
"132 669 CURVE SMOOTH"
);
},
{
closed = 1;
nodes = (
"684 1479 LINE",
"882 1479 LINE",
"882 1691 LINE",
"684 1691 LINE"
);
},
{
closed = 1;
nodes = (
"458 1813 LINE",
"1108 1813 LINE",
"1108 1972 LINE",
"458 1972 LINE"
);
}
);
width = 1566;
}
);
unicode = 0230;
},
{
glyphname = uni0232;
layers = (
{
layerId = "280E06E1-9336-45D2-8B5F-14710EC8A5A0";
name = Bold;
paths = (
{
closed = 1;
nodes = (
"482 0 LINE",
"764 0 LINE",
"764 499 LINE",
"1208 1336 LINE",
"910 1336 LINE",
"623 749 LINE",
"342 1336 LINE",
"39 1336 LINE",
"482 495 LINE"
);
},
{
closed = 1;
nodes = (
"299 1479 LINE",
"948 1479 LINE",
"948 1638 LINE",
"299 1638 LINE"
);
}
);
width = 1231;
}
);
unicode = 0232;
},
{
glyphname = uni1E02;
layers = (
{
layerId = "280E06E1-9336-45D2-8B5F-14710EC8A5A0";
name = Bold;
paths = (
{
closed = 1;
nodes = (
"536 1522 LINE",
"546 1522 LINE",
"547 1522 LINE",
"556 1522 LINE",
"734 1522 LINE",
"744 1522 LINE",
"745 1522 LINE",
"754 1522 LINE",
"754 1734 LINE",
"745 1734 LINE",
"744 1734 LINE",
"734 1734 LINE",
"556 1734 LINE",
"547 1734 LINE",
"546 1734 LINE",
"536 1734 LINE"
);
},
{
closed = 1;
nodes = (
"202 0 LINE",
"738 0 LINE SMOOTH",
"1039 0 OFFCURVE",
"1236 133 OFFCURVE",
"1236 393 CURVE SMOOTH",
"1236 551 OFFCURVE",
"1144 665 OFFCURVE",
"1001 715 CURVE",
"1145 783 OFFCURVE",
"1188 919 OFFCURVE",
"1188 1000 CURVE SMOOTH",
"1188 1254 OFFCURVE",
"999 1336 OFFCURVE",
"669 1336 CURVE SMOOTH",
"202 1336 LINE"
);
},
{
closed = 1;
nodes = (
"490 216 LINE",
"490 604 LINE",
"680 604 LINE SMOOTH",
"865 604 OFFCURVE",
"948 554 OFFCURVE",
"948 412 CURVE SMOOTH",
"948 270 OFFCURVE",
"863 216 OFFCURVE",
"686 216 CURVE SMOOTH"
);
},
{
closed = 1;
nodes = (
"490 793 LINE",
"490 1126 LINE",
"635 1126 LINE SMOOTH",
"821 1126 OFFCURVE",
"908 1093 OFFCURVE",
"908 956 CURVE SMOOTH",
"908 834 OFFCURVE",
"834 793 OFFCURVE",
"683 793 CURVE SMOOTH"
);
}
);
width = 1247;
}
);
unicode = 1E02;
},
{
glyphname = uni1E0A;
layers = (
{
layerId = "280E06E1-9336-45D2-8B5F-14710EC8A5A0";
name = Bold;
paths = (
{
closed = 1;
nodes = (
"592 1421 LINE",
"602 1421 LINE",
"603 1421 LINE",
"612 1421 LINE",
"613 1421 LINE",
"790 1421 LINE",
"800 1421 LINE",
"801 1421 LINE",
"810 1421 LINE",
"811 1421 LINE",
"811 1633 LINE",
"810 1633 LINE",
"801 1633 LINE",
"800 1633 LINE",
"790 1633 LINE",
"613 1633 LINE",
"612 1633 LINE",
"603 1633 LINE",
"602 1633 LINE",
"592 1633 LINE"
);
},
{
closed = 1;
nodes = (
"490 216 LINE",
"490 1126 LINE",
"611 1126 LINE SMOOTH",
"919 1126 OFFCURVE",
"1067 992 OFFCURVE",
"1067 671 CURVE SMOOTH",
"1067 377 OFFCURVE",
"927 216 OFFCURVE",
"637 216 CURVE SMOOTH"
);
},
{
closed = 1;
nodes = (
"202 0 LINE",
"623 0 LINE SMOOTH",
"1066 0 OFFCURVE",
"1354 238 OFFCURVE",
"1354 676 CURVE SMOOTH",
"1354 1130 OFFCURVE",
"1049 1336 OFFCURVE",
"600 1336 CURVE SMOOTH",
"202 1336 LINE"
);
}
);
width = 1388;
}
);
unicode = 1E0A;
},
{
glyphname = uni1E1E;
layers = (
{
layerId = "280E06E1-9336-45D2-8B5F-14710EC8A5A0";
name = Bold;
paths = (
{
closed = 1;
nodes = (
"435 1522 LINE",
"445 1522 LINE",
"446 1522 LINE",
"455 1522 LINE",
"456 1522 LINE",
"633 1522 LINE",
"643 1522 LINE",
"644 1522 LINE",
"653 1522 LINE",
"654 1522 LINE",
"654 1734 LINE",
"653 1734 LINE",
"644 1734 LINE",
"643 1734 LINE",
"633 1734 LINE",
"456 1734 LINE",
"455 1734 LINE",
"446 1734 LINE",
"445 1734 LINE",
"435 1734 LINE"
);
},
{
closed = 1;
nodes = (
"202 0 LINE",
"490 0 LINE",
"490 556 LINE",
"986 556 LINE",
"986 765 LINE",
"490 765 LINE",
"490 1116 LINE",
"1019 1116 LINE",
"1031 1336 LINE",
"202 1336 LINE"
);
}
);
width = 1022;
}
);
unicode = 1E1E;
},
{
glyphname = uni1E40;
layers = (
{
layerId = "280E06E1-9336-45D2-8B5F-14710EC8A5A0";
name = Bold;
paths = (
{
closed = 1;
nodes = (
"738 1522 LINE",
"748 1522 LINE",
"749 1522 LINE",
"758 1522 LINE",
"759 1522 LINE",
"936 1522 LINE",
"946 1522 LINE",
"947 1522 LINE",
"956 1522 LINE",
"957 1522 LINE",
"957 1734 LINE",
"956 1734 LINE",
"947 1734 LINE",
"946 1734 LINE",
"936 1734 LINE",
"759 1734 LINE",
"758 1734 LINE",
"749 1734 LINE",
"748 1734 LINE",
"738 1734 LINE"
);
},
{
closed = 1;
nodes = (
"202 0 LINE",
"468 0 LINE",
"468 484 LINE",
"453 886 LINE",
"769 136 LINE",
"970 136 LINE",
"1295 880 LINE",
"1280 487 LINE",
"1280 0 LINE",
"1546 0 LINE",
"1546 1336 LINE",
"1265 1336 LINE",
"874 421 LINE",
"488 1336 LINE",
"202 1336 LINE"
);
}
);
width = 1632;
}
);
unicode = 1E40;
},
{
glyphname = uni1E56;
layers = (
{
layerId = "280E06E1-9336-45D2-8B5F-14710EC8A5A0";
name = Bold;
paths = (
{
closed = 1;
nodes = (
"525 1522 LINE",
"535 1522 LINE",
"536 1522 LINE",
"545 1522 LINE",
"546 1522 LINE",
"723 1522 LINE",
"733 1522 LINE",
"734 1522 LINE",
"743 1522 LINE",
"744 1522 LINE",
"744 1734 LINE",
"743 1734 LINE",
"734 1734 LINE",
"733 1734 LINE",
"723 1734 LINE",
"546 1734 LINE",
"545 1734 LINE",
"536 1734 LINE",
"535 1734 LINE",
"525 1734 LINE"
);
},
{
closed = 1;
nodes = (
"202 0 LINE",
"490 0 LINE",
"490 489 LINE",
"557 483 OFFCURVE",
"621 482 OFFCURVE",
"673 482 CURVE SMOOTH",
"1062 482 OFFCURVE",
"1194 677 OFFCURVE",
"1194 919 CURVE SMOOTH",
"1194 1205 OFFCURVE",
"972 1336 OFFCURVE",
"673 1336 CURVE SMOOTH",
"202 1336 LINE"
);
},
{
closed = 1;
nodes = (
"906 798 OFFCURVE",
"892 677 OFFCURVE",
"647 677 CURVE SMOOTH",
"601 677 OFFCURVE",
"518 677 OFFCURVE",
"490 678 CURVE",
"490 1126 LINE",
"674 1126 LINE SMOOTH",
"835 1126 OFFCURVE",
"906 1053 OFFCURVE",
"906 911 CURVE SMOOTH"
);
}
);
width = 1184;
}
);
unicode = 1E56;
},
{
glyphname = uni1E60;
layers = (
{
layerId = "280E06E1-9336-45D2-8B5F-14710EC8A5A0";
name = Bold;
paths = (
{
closed = 1;
nodes = (
"458 1421 LINE",
"459 1421 LINE",
"460 1421 LINE",
"461 1421 LINE",
"462 1421 LINE",
"463 1421 LINE",
"464 1421 LINE",
"465 1421 LINE",
"466 1421 LINE",
"467 1421 LINE",
"468 1421 LINE",
"469 1421 LINE",
"470 1421 LINE",
"656 1421 LINE",
"657 1421 LINE",
"658 1421 LINE",
"659 1421 LINE",
"660 1421 LINE",
"661 1421 LINE",
"662 1421 LINE",
"663 1421 LINE",
"664 1421 LINE",
"665 1421 LINE",
"666 1421 LINE",
"667 1421 LINE",
"668 1421 LINE",
"668 1633 LINE",
"667 1633 LINE",
"666 1633 LINE",
"665 1633 LINE",
"664 1633 LINE",
"663 1633 LINE",
"662 1633 LINE",
"661 1633 LINE",
"660 1633 LINE",
"659 1633 LINE",
"658 1633 LINE",
"657 1633 LINE",
"656 1633 LINE",
"470 1633 LINE",
"469 1633 LINE",
"468 1633 LINE",
"467 1633 LINE",
"466 1633 LINE",
"465 1633 LINE",
"464 1633 LINE",
"463 1633 LINE",
"462 1633 LINE",
"461 1633 LINE",
"460 1633 LINE",
"459 1633 LINE",
"458 1633 LINE"
);
},
{
closed = 1;
nodes = (
"241 21 OFFCURVE",
"394 -18 OFFCURVE",
"570 -18 CURVE SMOOTH",
"859 -18 OFFCURVE",
"1063 119 OFFCURVE",
"1063 381 CURVE SMOOTH",
"1063 598 OFFCURVE",
"958 705 OFFCURVE",
"723 783 CURVE",
"515 853 LINE SMOOTH",
"454 873 OFFCURVE",
"417 915 OFFCURVE",
"417 980 CURVE SMOOTH",
"417 1087 OFFCURVE",
"491 1128 OFFCURVE",
"624 1128 CURVE SMOOTH",
"743 1128 OFFCURVE",
"870 1075 OFFCURVE",
"962 1035 CURVE",
"1044 1251 LINE",
"923 1320 OFFCURVE",
"773 1358 OFFCURVE",
"613 1358 CURVE SMOOTH",
"345 1358 OFFCURVE",
"148 1227 OFFCURVE",
"148 975 CURVE SMOOTH",
"148 785 OFFCURVE",
"252 670 OFFCURVE",
"414 617 CURVE SMOOTH",
"638 544 LINE SMOOTH",
"735 512 OFFCURVE",
"790 464 OFFCURVE",
"790 385 CURVE SMOOTH",
"790 262 OFFCURVE",
"721 210 OFFCURVE",
"580 210 CURVE SMOOTH",
"448 210 OFFCURVE",
"285 253 OFFCURVE",
"208 303 CURVE",
"125 87 LINE"
);
}
);
width = 1118;
}
);
unicode = 1E60;
},
{
glyphname = uni1E6A;
layers = (
{
layerId = "280E06E1-9336-45D2-8B5F-14710EC8A5A0";
name = Bold;
paths = (
{
closed = 1;
nodes = (
"440 0 LINE",
"728 0 LINE",
"728 1126 LINE",
"1099 1126 LINE",
"1099 1336 LINE",
"65 1336 LINE",
"65 1126 LINE",
"440 1126 LINE"
);
},
{
closed = 1;
nodes = (
"435 1421 LINE",
"446 1421 LINE",
"633 1421 LINE",
"644 1421 LINE",
"644 1633 LINE",
"633 1633 LINE",
"446 1633 LINE",
"435 1633 LINE"
);
}
);
width = 1078;
}
);
unicode = 1E6A;
},
{
glyphname = uni1EBC;
layers = (
{
layerId = "280E06E1-9336-45D2-8B5F-14710EC8A5A0";
name = Bold;
paths = (
{
closed = 1;
nodes = (
"368 1429 LINE",
"369 1430 LINE SMOOTH",
"378 1429 LINE",
"378 1429 LINE",
"380 1429 LINE",
"380 1430 LINE SMOOTH",
"388 1429 LINE",
"388 1429 LINE SMOOTH",
"390 1429 LINE",
"390 1429 OFFCURVE",
"401 1504 OFFCURVE",
"419 1517 CURVE",
"482 1504 OFFCURVE",
"601 1429 OFFCURVE",
"694 1429 CURVE SMOOTH",
"699 1429 LINE SMOOTH",
"704 1429 LINE SMOOTH",
"705 1429 LINE",
"706 1429 LINE SMOOTH",
"710 1429 LINE SMOOTH",
"714 1429 LINE SMOOTH",
"715 1429 LINE",
"716 1429 LINE SMOOTH",
"864 1429 OFFCURVE",
"874 1671 OFFCURVE",
"874 1671 CURVE",
"872 1671 LINE",
"864 1671 LINE",
"862 1671 LINE",
"852 1671 LINE",
"724 1671 LINE",
"722 1671 LINE",
"714 1671 LINE",
"712 1671 LINE",
"702 1671 LINE",
"702 1671 OFFCURVE",
"693 1604 OFFCURVE",
"677 1589 CURVE",
"630 1604 OFFCURVE",
"511 1671 OFFCURVE",
"404 1671 CURVE SMOOTH",
"404 1671 LINE",
"404 1671 LINE SMOOTH",
"399 1671 LINE SMOOTH",
"394 1671 LINE SMOOTH",
"394 1671 LINE",
"394 1671 LINE SMOOTH",
"389 1671 LINE SMOOTH",
"384 1671 LINE SMOOTH",
"236 1671 OFFCURVE",
"222 1533 OFFCURVE",
"222 1439 CURVE"
);
},
{
closed = 1;
nodes = (
"202 0 LINE",
"1025 0 LINE",
"1042 216 LINE",
"490 216 LINE",
"490 595 LINE",
"994 595 LINE",
"994 805 LINE",
"490 805 LINE",
"490 1126 LINE",
"1021 1126 LINE",
"1032 1336 LINE",
"202 1336 LINE"
);
}
);
width = 1076;
}
);
unicode = 1EBC;
},
{
glyphname = uni1EF8;
layers = (
{
layerId = "280E06E1-9336-45D2-8B5F-14710EC8A5A0";
name = Bold;
paths = (
{
closed = 1;
nodes = (
"414 1429 LINE",
"415 1429 LINE SMOOTH",
"416 1429 LINE",
"416 1429 LINE SMOOTH",
"416 1429 LINE",
"417 1429 LINE SMOOTH",
"418 1429 LINE",
"418 1429 LINE SMOOTH",
"418 1429 LINE",
"419 1429 LINE SMOOTH",
"420 1429 LINE",
"420 1429 LINE SMOOTH",
"420 1429 LINE",
"421 1429 LINE SMOOTH",
"422 1429 LINE",
"422 1429 LINE SMOOTH",
"422 1429 LINE",
"423 1429 LINE SMOOTH",
"424 1429 LINE",
"424 1429 LINE SMOOTH",
"424 1429 LINE",
"425 1429 LINE SMOOTH",
"426 1429 LINE",
"426 1429 LINE SMOOTH",
"426 1429 LINE SMOOTH",
"426 1429 OFFCURVE",
"439 1510 OFFCURVE",
"458 1518 CURVE",
"519 1510 OFFCURVE",
"644 1429 OFFCURVE",
"740 1429 CURVE SMOOTH",
"741 1429 LINE",
"742 1429 LINE",
"742 1429 LINE",
"742 1429 LINE",
"743 1429 LINE",
"744 1429 LINE",
"744 1429 LINE",
"744 1429 LINE",
"745 1429 LINE",
"746 1429 LINE",
"746 1429 LINE",
"746 1429 LINE",
"747 1429 LINE",
"748 1429 LINE",
"748 1429 LINE",
"748 1429 LINE",
"749 1429 LINE",
"750 1429 LINE",
"750 1429 LINE",
"750 1429 LINE",
"751 1429 LINE",
"752 1429 LINE",
"752 1429 LINE",
"752 1429 LINE SMOOTH",
"900 1429 OFFCURVE",
"910 1671 OFFCURVE",
"910 1671 CURVE",
"910 1671 LINE",
"908 1671 LINE",
"908 1671 LINE",
"906 1671 LINE",
"906 1671 LINE",
"904 1671 LINE",
"904 1671 LINE",
"902 1671 LINE",
"902 1671 LINE",
"900 1671 LINE",
"900 1671 LINE",
"898 1671 LINE",
"760 1671 LINE",
"760 1671 LINE",
"758 1671 LINE",
"758 1671 LINE",
"756 1671 LINE",
"756 1671 LINE",
"754 1671 LINE",
"754 1671 LINE",
"752 1671 LINE",
"752 1671 LINE",
"750 1671 LINE",
"750 1671 LINE",
"748 1671 LINE SMOOTH",
"748 1671 OFFCURVE",
"738 1597 OFFCURVE",
"720 1587 CURVE",
"678 1597 OFFCURVE",
"554 1671 OFFCURVE",
"442 1671 CURVE SMOOTH",
"441 1671 LINE",
"440 1671 LINE",
"440 1671 LINE",
"440 1671 LINE",
"439 1671 LINE",
"438 1671 LINE",
"438 1671 LINE",
"438 1671 LINE",
"437 1671 LINE",
"436 1671 LINE",
"436 1671 LINE",
"436 1671 LINE",
"435 1671 LINE",
"434 1671 LINE",
"434 1671 LINE",
"434 1671 LINE",
"433 1671 LINE",
"432 1671 LINE",
"432 1671 LINE",
"432 1671 LINE",
"431 1671 LINE",
"430 1671 LINE",
"430 1671 LINE",
"430 1671 LINE SMOOTH",
"282 1671 OFFCURVE",
"268 1533 OFFCURVE",
"268 1439 CURVE"
);
},
{
closed = 1;
nodes = (
"482 0 LINE",
"764 0 LINE",
"764 499 LINE",
"1208 1336 LINE",
"910 1336 LINE",
"623 749 LINE",
"342 1336 LINE",
"39 1336 LINE",
"482 495 LINE"
);
}
);
width = 1172;
}
);
unicode = 1EF8;
},
{
glyphname = a;
lastChange = "2013-02-09 21:39:10 -0800";
layers = (
{
anchors = (
{
name = ogonek;
position = "{1005, 10}";
},
{
name = top;
position = "{552, 0}";
}
);
layerId = "280E06E1-9336-45D2-8B5F-14710EC8A5A0";
name = Bold;
paths = (
{
closed = 1;
nodes = (
"140 77 OFFCURVE",
"283 -18 OFFCURVE",
"459 -18 CURVE SMOOTH",
"602 -18 OFFCURVE",
"732 80 OFFCURVE",
"795 173 CURVE",
"744 198 LINE",
"790 0 LINE",
"980 0 LINE",
"980 660 LINE",
"980 927 OFFCURVE",
"865 1041 OFFCURVE",
"600 1041 CURVE SMOOTH",
"453 1041 OFFCURVE",
"299 1004 OFFCURVE",
"178 953 CURVE",
"238 776 LINE",
"339 817 OFFCURVE",
"482 852 OFFCURVE",
"569 852 CURVE SMOOTH",
"671 852 OFFCURVE",
"725 807 OFFCURVE",
"725 689 CURVE SMOOTH",
"725 603 LINE",
"765 641 LINE",
"721 637 OFFCURVE",
"610 628 OFFCURVE",
"550 621 CURVE SMOOTH",
"297 595 OFFCURVE",
"140 508 OFFCURVE",
"140 284 CURVE SMOOTH"
);
},
{
closed = 1;
nodes = (
"747 261 OFFCURVE",
"624 162 OFFCURVE",
"516 162 CURVE SMOOTH",
"432 162 OFFCURVE",
"391 208 OFFCURVE",
"391 287 CURVE SMOOTH",
"391 404 OFFCURVE",
"473 463 OFFCURVE",
"645 478 CURVE",
"645 478 OFFCURVE",
"731 485 OFFCURVE",
"751 487 CURVE",
"724 516 LINE",
"724 227 LINE",
"764 299 LINE"
);
}
);
width = 1116;
}
);
unicode = 0061;
},
{
glyphname = aacute;
layers = (
{
layerId = "280E06E1-9336-45D2-8B5F-14710EC8A5A0";
name = Bold;
paths = (
{
closed = 1;
nodes = (
"145 77 OFFCURVE",
"288 -18 OFFCURVE",
"464 -18 CURVE SMOOTH",
"607 -18 OFFCURVE",
"690 60 OFFCURVE",
"753 153 CURVE",
"762 118 OFFCURVE",
"785 12 OFFCURVE",
"788 0 CURVE",
"978 0 LINE",
"978 660 LINE SMOOTH",
"978 927 OFFCURVE",
"863 1041 OFFCURVE",
"598 1041 CURVE SMOOTH",
"451 1041 OFFCURVE",
"304 1004 OFFCURVE",
"183 953 CURVE",
"189 940 OFFCURVE",
"238 790 OFFCURVE",
"243 776 CURVE",
"344 817 OFFCURVE",
"485 852 OFFCURVE",
"572 852 CURVE SMOOTH",
"674 852 OFFCURVE",
"723 807 OFFCURVE",
"723 689 CURVE SMOOTH",
"723 641 LINE",
"658 633 OFFCURVE",
"613 628 OFFCURVE",
"553 621 CURVE SMOOTH",
"300 595 OFFCURVE",
"145 508 OFFCURVE",
"145 284 CURVE SMOOTH"
);
},
{
closed = 1;
nodes = (
"705 243 OFFCURVE",
"632 162 OFFCURVE",
"524 162 CURVE SMOOTH",
"440 162 OFFCURVE",
"401 208 OFFCURVE",
"401 287 CURVE SMOOTH",
"401 404 OFFCURVE",
"471 458 OFFCURVE",
"643 473 CURVE",
"643 473 OFFCURVE",
"702 480 OFFCURVE",
"722 482 CURVE",
"722 281 LINE"
);
},
{
closed = 1;
nodes = (
"483 1163 LINE",
"640 1163 LINE",
"935 1524 LINE",
"643 1524 LINE"
);
}
);
width = 1137;
}
);
unicode = 00E1;
},
{
glyphname = abreve;
layers = (
{
layerId = "280E06E1-9336-45D2-8B5F-14710EC8A5A0";
name = Bold;
paths = (
{
closed = 1;
nodes = (
"145 77 OFFCURVE",
"288 -18 OFFCURVE",
"464 -18 CURVE SMOOTH",
"607 -18 OFFCURVE",
"690 60 OFFCURVE",
"753 153 CURVE",
"762 118 OFFCURVE",
"785 12 OFFCURVE",
"788 0 CURVE",
"978 0 LINE",
"978 660 LINE SMOOTH",
"978 927 OFFCURVE",
"863 1041 OFFCURVE",
"598 1041 CURVE SMOOTH",
"451 1041 OFFCURVE",
"304 1004 OFFCURVE",
"183 953 CURVE",
"189 940 OFFCURVE",
"238 790 OFFCURVE",
"243 776 CURVE",
"344 817 OFFCURVE",
"485 852 OFFCURVE",
"572 852 CURVE SMOOTH",
"674 852 OFFCURVE",
"723 807 OFFCURVE",
"723 689 CURVE SMOOTH",
"723 641 LINE",
"658 633 OFFCURVE",
"613 628 OFFCURVE",
"553 621 CURVE SMOOTH",
"300 595 OFFCURVE",
"145 508 OFFCURVE",
"145 284 CURVE SMOOTH"
);
},
{
closed = 1;
nodes = (
"292 1241 OFFCURVE",
"408 1163 OFFCURVE",
"560 1163 CURVE SMOOTH",
"713 1163 OFFCURVE",
"830 1240 OFFCURVE",
"830 1406 CURVE",
"662 1406 LINE",
"662 1345 OFFCURVE",
"634 1321 OFFCURVE",
"560 1321 CURVE SMOOTH",
"486 1321 OFFCURVE",
"460 1345 OFFCURVE",
"460 1406 CURVE",
"292 1406 LINE"
);
},
{
closed = 1;
nodes = (
"705 243 OFFCURVE",
"632 162 OFFCURVE",
"524 162 CURVE SMOOTH",
"440 162 OFFCURVE",
"401 208 OFFCURVE",
"401 287 CURVE SMOOTH",
"401 404 OFFCURVE",
"471 458 OFFCURVE",
"643 473 CURVE",
"643 473 OFFCURVE",
"702 480 OFFCURVE",
"722 482 CURVE",
"722 281 LINE"
);
}
);
width = 1137;
}
);
unicode = 0103;
},
{
glyphname = acircumflex;
layers = (
{
layerId = "280E06E1-9336-45D2-8B5F-14710EC8A5A0";
name = Bold;
paths = (
{
closed = 1;
nodes = (
"145 77 OFFCURVE",
"288 -18 OFFCURVE",
"464 -18 CURVE SMOOTH",
"607 -18 OFFCURVE",
"690 60 OFFCURVE",
"753 153 CURVE",
"762 118 OFFCURVE",
"785 12 OFFCURVE",
"788 0 CURVE",
"978 0 LINE",
"978 660 LINE SMOOTH",
"978 927 OFFCURVE",
"863 1041 OFFCURVE",
"598 1041 CURVE SMOOTH",
"451 1041 OFFCURVE",
"304 1004 OFFCURVE",
"183 953 CURVE",
"189 940 OFFCURVE",
"238 790 OFFCURVE",
"243 776 CURVE",
"344 817 OFFCURVE",
"485 852 OFFCURVE",
"572 852 CURVE SMOOTH",
"674 852 OFFCURVE",
"723 807 OFFCURVE",
"723 689 CURVE SMOOTH",
"723 641 LINE",
"658 633 OFFCURVE",
"613 628 OFFCURVE",
"553 621 CURVE SMOOTH",
"300 595 OFFCURVE",
"145 508 OFFCURVE",
"145 284 CURVE SMOOTH"
);
},
{
closed = 1;
nodes = (
"228 1163 LINE",
"409 1163 LINE",
"551 1357 LINE",
"709 1163 LINE",
"895 1163 LINE",
"659 1531 LINE",
"463 1531 LINE"
);
},
{
closed = 1;
nodes = (
"705 243 OFFCURVE",
"632 162 OFFCURVE",
"524 162 CURVE SMOOTH",
"440 162 OFFCURVE",
"401 208 OFFCURVE",
"401 287 CURVE SMOOTH",
"401 404 OFFCURVE",
"471 458 OFFCURVE",
"643 473 CURVE",
"643 473 OFFCURVE",
"702 480 OFFCURVE",
"722 482 CURVE",
"722 281 LINE"
);
}
);
width = 1137;
}
);
unicode = 00E2;
},
{
glyphname = adieresis;
layers = (
{
layerId = "280E06E1-9336-45D2-8B5F-14710EC8A5A0";
name = Bold;
paths = (
{
closed = 1;
nodes = (
"145 77 OFFCURVE",
"288 -18 OFFCURVE",
"464 -18 CURVE SMOOTH",
"607 -18 OFFCURVE",
"690 60 OFFCURVE",
"753 153 CURVE",
"762 118 OFFCURVE",
"785 12 OFFCURVE",
"788 0 CURVE",
"978 0 LINE",
"978 660 LINE SMOOTH",
"978 927 OFFCURVE",
"863 1041 OFFCURVE",
"598 1041 CURVE SMOOTH",
"451 1041 OFFCURVE",
"304 1004 OFFCURVE",
"183 953 CURVE",
"189 940 OFFCURVE",
"238 790 OFFCURVE",
"243 776 CURVE",
"344 817 OFFCURVE",
"485 852 OFFCURVE",
"572 852 CURVE SMOOTH",
"674 852 OFFCURVE",
"723 807 OFFCURVE",
"723 689 CURVE SMOOTH",
"723 641 LINE",
"658 633 OFFCURVE",
"613 628 OFFCURVE",
"553 621 CURVE SMOOTH",
"300 595 OFFCURVE",
"145 508 OFFCURVE",
"145 284 CURVE SMOOTH"
);
},
{
closed = 1;
nodes = (
"705 243 OFFCURVE",
"632 162 OFFCURVE",
"524 162 CURVE SMOOTH",
"440 162 OFFCURVE",
"401 208 OFFCURVE",
"401 287 CURVE SMOOTH",
"401 404 OFFCURVE",
"471 458 OFFCURVE",
"643 473 CURVE",
"643 473 OFFCURVE",
"702 480 OFFCURVE",
"722 482 CURVE",
"722 281 LINE"
);
},
{
closed = 1;
nodes = (
"277 1163 LINE",
"471 1163 LINE",
"471 1408 LINE",
"277 1408 LINE"
);
},
{
closed = 1;
nodes = (
"653 1163 LINE",
"846 1163 LINE",
"846 1408 LINE",
"653 1408 LINE"
);
}
);
width = 1137;
}
);
unicode = 00E4;
},
{
glyphname = agrave;
layers = (
{
layerId = "280E06E1-9336-45D2-8B5F-14710EC8A5A0";
name = Bold;
paths = (
{
closed = 1;
nodes = (
"145 77 OFFCURVE",
"288 -18 OFFCURVE",
"464 -18 CURVE SMOOTH",
"607 -18 OFFCURVE",
"690 60 OFFCURVE",
"753 153 CURVE",
"762 118 OFFCURVE",
"785 12 OFFCURVE",
"788 0 CURVE",
"978 0 LINE",
"978 660 LINE SMOOTH",
"978 927 OFFCURVE",
"863 1041 OFFCURVE",
"598 1041 CURVE SMOOTH",
"451 1041 OFFCURVE",
"304 1004 OFFCURVE",
"183 953 CURVE",
"189 940 OFFCURVE",
"238 790 OFFCURVE",
"243 776 CURVE",
"344 817 OFFCURVE",
"485 852 OFFCURVE",
"572 852 CURVE SMOOTH",
"674 852 OFFCURVE",
"723 807 OFFCURVE",
"723 689 CURVE SMOOTH",
"723 641 LINE",
"658 633 OFFCURVE",
"613 628 OFFCURVE",
"553 621 CURVE SMOOTH",
"300 595 OFFCURVE",
"145 508 OFFCURVE",
"145 284 CURVE SMOOTH"
);
},
{
closed = 1;
nodes = (
"705 243 OFFCURVE",
"632 162 OFFCURVE",
"524 162 CURVE SMOOTH",
"440 162 OFFCURVE",
"401 208 OFFCURVE",
"401 287 CURVE SMOOTH",
"401 404 OFFCURVE",
"471 458 OFFCURVE",
"643 473 CURVE",
"643 473 OFFCURVE",
"702 480 OFFCURVE",
"722 482 CURVE",
"722 281 LINE"
);
},
{
closed = 1;
nodes = (
"479 1163 LINE",
"644 1163 LINE",
"467 1524 LINE",
"168 1524 LINE"
);
}
);
width = 1137;
}
);
unicode = 00E0;
},
{
glyphname = amacron;
layers = (
{
layerId = "280E06E1-9336-45D2-8B5F-14710EC8A5A0";
name = Bold;
paths = (
{
closed = 1;
nodes = (
"145 77 OFFCURVE",
"288 -18 OFFCURVE",
"464 -18 CURVE SMOOTH",
"607 -18 OFFCURVE",
"690 60 OFFCURVE",
"753 153 CURVE",
"762 118 OFFCURVE",
"785 12 OFFCURVE",
"788 0 CURVE",
"978 0 LINE",
"978 660 LINE SMOOTH",
"978 927 OFFCURVE",
"863 1041 OFFCURVE",
"598 1041 CURVE SMOOTH",
"451 1041 OFFCURVE",
"304 1004 OFFCURVE",
"183 953 CURVE",
"189 940 OFFCURVE",
"238 790 OFFCURVE",
"243 776 CURVE",
"344 817 OFFCURVE",
"485 852 OFFCURVE",
"572 852 CURVE SMOOTH",
"674 852 OFFCURVE",
"723 807 OFFCURVE",
"723 689 CURVE SMOOTH",
"723 641 LINE",
"658 633 OFFCURVE",
"613 628 OFFCURVE",
"553 621 CURVE SMOOTH",
"300 595 OFFCURVE",
"145 508 OFFCURVE",
"145 284 CURVE SMOOTH"
);
},
{
closed = 1;
nodes = (
"705 243 OFFCURVE",
"632 162 OFFCURVE",
"524 162 CURVE SMOOTH",
"440 162 OFFCURVE",
"401 208 OFFCURVE",
"401 287 CURVE SMOOTH",
"401 404 OFFCURVE",
"471 458 OFFCURVE",
"643 473 CURVE",
"643 473 OFFCURVE",
"702 480 OFFCURVE",
"722 482 CURVE",
"722 281 LINE"
);
},
{
closed = 1;
nodes = (
"237 1163 LINE",
"886 1163 LINE",
"886 1322 LINE",
"237 1322 LINE"
);
}
);
width = 1137;
}
);
unicode = 0101;
},
{
glyphname = aogonek;
layers = (
{
layerId = "280E06E1-9336-45D2-8B5F-14710EC8A5A0";
name = Bold;
paths = (
{
closed = 1;
nodes = (
"145 77 OFFCURVE",
"288 -18 OFFCURVE",
"464 -18 CURVE SMOOTH",
"607 -18 OFFCURVE",
"690 60 OFFCURVE",
"753 153 CURVE",
"762 118 OFFCURVE",
"785 12 OFFCURVE",
"788 0 CURVE",
"978 0 LINE",
"978 660 LINE SMOOTH",
"978 927 OFFCURVE",
"863 1041 OFFCURVE",
"598 1041 CURVE SMOOTH",
"451 1041 OFFCURVE",
"304 1004 OFFCURVE",
"183 953 CURVE",
"189 940 OFFCURVE",
"238 790 OFFCURVE",
"243 776 CURVE",
"344 817 OFFCURVE",
"485 852 OFFCURVE",
"572 852 CURVE SMOOTH",
"674 852 OFFCURVE",
"723 807 OFFCURVE",
"723 689 CURVE SMOOTH",
"723 641 LINE",
"658 633 OFFCURVE",
"613 628 OFFCURVE",
"553 621 CURVE SMOOTH",
"300 595 OFFCURVE",
"145 508 OFFCURVE",
"145 284 CURVE SMOOTH"
);
},
{
closed = 1;
nodes = (
"614 -357 OFFCURVE",
"705 -411 OFFCURVE",
"809 -411 CURVE SMOOTH",
"868 -411 OFFCURVE",
"929 -396 OFFCURVE",
"984 -375 CURVE",
"984 -375 OFFCURVE",
"977 -234 OFFCURVE",
"976 -234 CURVE SMOOTH",
"964 -239 OFFCURVE",
"905 -265 OFFCURVE",
"853 -265 CURVE SMOOTH",
"815 -265 OFFCURVE",
"789 -230 OFFCURVE",
"789 -196 CURVE SMOOTH",
"789 -141 OFFCURVE",
"821 -77 OFFCURVE",
"895 -20 CURVE",
"788 -4 LINE",
"717 -45 OFFCURVE",
"614 -120 OFFCURVE",
"614 -243 CURVE SMOOTH"
);
},
{
closed = 1;
nodes = (
"705 243 OFFCURVE",
"632 162 OFFCURVE",
"524 162 CURVE SMOOTH",
"440 162 OFFCURVE",
"401 208 OFFCURVE",
"401 287 CURVE SMOOTH",
"401 404 OFFCURVE",
"471 458 OFFCURVE",
"643 473 CURVE",
"643 473 OFFCURVE",
"702 480 OFFCURVE",
"722 482 CURVE",
"722 281 LINE"
);
}
);
width = 1137;
}
);
unicode = 0105;
},
{
glyphname = aring;
layers = (
{
layerId = "280E06E1-9336-45D2-8B5F-14710EC8A5A0";
name = Bold;
paths = (
{
closed = 1;
nodes = (
"145 77 OFFCURVE",
"288 -18 OFFCURVE",
"464 -18 CURVE SMOOTH",
"607 -18 OFFCURVE",
"690 60 OFFCURVE",
"753 153 CURVE",
"762 118 OFFCURVE",
"785 12 OFFCURVE",
"788 0 CURVE",
"978 0 LINE",
"978 660 LINE SMOOTH",
"978 927 OFFCURVE",
"863 1041 OFFCURVE",
"598 1041 CURVE SMOOTH",
"451 1041 OFFCURVE",
"304 1004 OFFCURVE",
"183 953 CURVE",
"189 940 OFFCURVE",
"238 790 OFFCURVE",
"243 776 CURVE",
"344 817 OFFCURVE",
"485 852 OFFCURVE",
"572 852 CURVE SMOOTH",
"674 852 OFFCURVE",
"723 807 OFFCURVE",
"723 689 CURVE SMOOTH",
"723 641 LINE",
"658 633 OFFCURVE",
"613 628 OFFCURVE",
"553 621 CURVE SMOOTH",
"300 595 OFFCURVE",
"145 508 OFFCURVE",
"145 284 CURVE SMOOTH"
);
},
{
closed = 1;
nodes = (
"705 243 OFFCURVE",
"632 162 OFFCURVE",
"524 162 CURVE SMOOTH",
"440 162 OFFCURVE",
"401 208 OFFCURVE",
"401 287 CURVE SMOOTH",
"401 404 OFFCURVE",
"471 458 OFFCURVE",
"643 473 CURVE",
"643 473 OFFCURVE",
"702 480 OFFCURVE",
"722 482 CURVE",
"722 281 LINE"
);
},
{
closed = 1;
nodes = (
"648 1308 OFFCURVE",
"617 1264 OFFCURVE",
"562 1264 CURVE SMOOTH",
"505 1264 OFFCURVE",
"476 1307 OFFCURVE",
"476 1359 CURVE SMOOTH",
"476 1407 OFFCURVE",
"509 1454 OFFCURVE",
"562 1454 CURVE SMOOTH",
"617 1454 OFFCURVE",
"648 1408 OFFCURVE",
"648 1359 CURVE SMOOTH"
);
},
{
closed = 1;
nodes = (
"356 1256 OFFCURVE",
"433 1163 OFFCURVE",
"562 1163 CURVE SMOOTH",
"691 1163 OFFCURVE",
"768 1256 OFFCURVE",
"768 1359 CURVE SMOOTH",
"768 1461 OFFCURVE",
"693 1554 OFFCURVE",
"562 1554 CURVE SMOOTH",
"432 1554 OFFCURVE",
"356 1462 OFFCURVE",
"356 1359 CURVE SMOOTH"
);
}
);
width = 1137;
}
);
unicode = 00E5;
},
{
glyphname = aringacute;
layers = (
{
layerId = "280E06E1-9336-45D2-8B5F-14710EC8A5A0";
name = Bold;
paths = (
{
closed = 1;
nodes = (
"145 77 OFFCURVE",
"288 -18 OFFCURVE",
"464 -18 CURVE SMOOTH",
"607 -18 OFFCURVE",
"690 60 OFFCURVE",
"753 153 CURVE",
"762 118 OFFCURVE",
"785 12 OFFCURVE",
"788 0 CURVE",
"978 0 LINE",
"978 660 LINE SMOOTH",
"978 927 OFFCURVE",
"863 1041 OFFCURVE",
"598 1041 CURVE SMOOTH",
"451 1041 OFFCURVE",
"304 1004 OFFCURVE",
"183 953 CURVE",
"189 940 OFFCURVE",
"238 790 OFFCURVE",
"243 776 CURVE",
"344 817 OFFCURVE",
"485 852 OFFCURVE",
"572 852 CURVE SMOOTH",
"674 852 OFFCURVE",
"723 807 OFFCURVE",
"723 689 CURVE SMOOTH",
"723 641 LINE",
"658 633 OFFCURVE",
"613 628 OFFCURVE",
"553 621 CURVE SMOOTH",
"300 595 OFFCURVE",
"145 508 OFFCURVE",
"145 284 CURVE SMOOTH"
);
},
{
closed = 1;
nodes = (
"705 243 OFFCURVE",
"632 162 OFFCURVE",
"524 162 CURVE SMOOTH",
"440 162 OFFCURVE",
"401 208 OFFCURVE",
"401 287 CURVE SMOOTH",
"401 404 OFFCURVE",
"471 458 OFFCURVE",
"643 473 CURVE",
"643 473 OFFCURVE",
"702 480 OFFCURVE",
"722 482 CURVE",
"722 281 LINE"
);
},
{
closed = 1;
nodes = (
"648 1308 OFFCURVE",
"617 1264 OFFCURVE",
"562 1264 CURVE SMOOTH",
"505 1264 OFFCURVE",
"476 1307 OFFCURVE",
"476 1359 CURVE SMOOTH",
"476 1407 OFFCURVE",
"509 1454 OFFCURVE",
"562 1454 CURVE SMOOTH",
"617 1454 OFFCURVE",
"648 1408 OFFCURVE",
"648 1359 CURVE SMOOTH"
);
},
{
closed = 1;
nodes = (
"356 1256 OFFCURVE",
"433 1163 OFFCURVE",
"562 1163 CURVE SMOOTH",
"691 1163 OFFCURVE",
"768 1256 OFFCURVE",
"768 1359 CURVE SMOOTH",
"768 1461 OFFCURVE",
"693 1554 OFFCURVE",
"562 1554 CURVE SMOOTH",
"432 1554 OFFCURVE",
"356 1462 OFFCURVE",
"356 1359 CURVE SMOOTH"
);
},
{
closed = 1;
nodes = (
"483 1676 LINE",
"640 1676 LINE",
"935 2037 LINE",
"643 2037 LINE"
);
}
);
width = 1137;
}
);
unicode = 01FB;
},
{
glyphname = atilde;
layers = (
{
layerId = "280E06E1-9336-45D2-8B5F-14710EC8A5A0";
name = Bold;
paths = (
{
closed = 1;
nodes = (
"145 77 OFFCURVE",
"288 -18 OFFCURVE",
"464 -18 CURVE SMOOTH",
"607 -18 OFFCURVE",
"690 60 OFFCURVE",
"753 153 CURVE",
"762 118 OFFCURVE",
"785 12 OFFCURVE",
"788 0 CURVE",
"978 0 LINE",
"978 660 LINE SMOOTH",
"978 927 OFFCURVE",
"863 1041 OFFCURVE",
"598 1041 CURVE SMOOTH",
"451 1041 OFFCURVE",
"304 1004 OFFCURVE",
"183 953 CURVE",
"189 940 OFFCURVE",
"238 790 OFFCURVE",
"243 776 CURVE",
"344 817 OFFCURVE",
"485 852 OFFCURVE",
"572 852 CURVE SMOOTH",
"674 852 OFFCURVE",
"723 807 OFFCURVE",
"723 689 CURVE SMOOTH",
"723 641 LINE",
"658 633 OFFCURVE",
"613 628 OFFCURVE",
"553 621 CURVE SMOOTH",
"300 595 OFFCURVE",
"145 508 OFFCURVE",
"145 284 CURVE SMOOTH"
);
},
{
closed = 1;
nodes = (
"393 1163 LINE",
"393 1163 OFFCURVE",
"407 1253 OFFCURVE",
"428 1253 CURVE SMOOTH",
"485 1253 OFFCURVE",
"618 1163 OFFCURVE",
"719 1163 CURVE SMOOTH",
"867 1163 OFFCURVE",
"877 1405 OFFCURVE",
"877 1405 CURVE",
"727 1405 LINE",
"727 1405 OFFCURVE",
"715 1321 OFFCURVE",
"695 1320 CURVE",
"664 1320 OFFCURVE",
"529 1405 OFFCURVE",
"408 1405 CURVE SMOOTH",
"260 1405 OFFCURVE",
"246 1267 OFFCURVE",
"246 1173 CURVE"
);
},
{
closed = 1;
nodes = (
"705 243 OFFCURVE",
"632 162 OFFCURVE",
"524 162 CURVE SMOOTH",
"440 162 OFFCURVE",
"401 208 OFFCURVE",
"401 287 CURVE SMOOTH",
"401 404 OFFCURVE",
"471 458 OFFCURVE",
"643 473 CURVE",
"643 473 OFFCURVE",
"702 480 OFFCURVE",
"722 482 CURVE",
"722 281 LINE"
);
}
);
width = 1137;
}
);
unicode = 00E3;
},
{
glyphname = ae;
layers = (
{
anchors = (
{
name = top;
position = "{739, 0}";
}
);
layerId = "280E06E1-9336-45D2-8B5F-14710EC8A5A0";
name = Bold;
paths = (
{
closed = 1;
nodes = (
"59 119 OFFCURVE",
"178 -19 OFFCURVE",
"368 -19 CURVE SMOOTH",
"536 -19 OFFCURVE",
"661 45 OFFCURVE",
"744 119 CURVE",
"816 32 OFFCURVE",
"918 -18 OFFCURVE",
"1079 -18 CURVE SMOOTH",
"1242 -18 OFFCURVE",
"1339 22 OFFCURVE",
"1418 79 CURVE",
"1424 84 LINE",
"1352 247 LINE",
"1342 240 LINE",
"1299 206 OFFCURVE",
"1207 168 OFFCURVE",
"1095 168 CURVE",
"939 170 OFFCURVE",
"858 270 OFFCURVE",
"848 451 CURVE",
"951 458 OFFCURVE",
"1261 483 OFFCURVE",
"1293 485 CURVE SMOOTH",
"1381 488 OFFCURVE",
"1442 509 OFFCURVE",
"1442 573 CURVE SMOOTH",
"1442 822 OFFCURVE",
"1339 1049 OFFCURVE",
"1073 1049 CURVE SMOOTH",
"936 1049 OFFCURVE",
"823 983 OFFCURVE",
"757 901 CURVE",
"714 1000 OFFCURVE",
"604 1051 OFFCURVE",
"459 1049 CURVE",
"306 1045 OFFCURVE",
"205 1014 OFFCURVE",
"119 973 CURVE",
"112 969 LINE",
"160 788 LINE",
"170 792 LINE SMOOTH",
"221 812 OFFCURVE",
"342 861 OFFCURVE",
"453 861 CURVE",
"578 855 OFFCURVE",
"608 802 OFFCURVE",
"608 687 CURVE SMOOTH",
"608 591 LINE",
"542 584 LINE",
"253 552 OFFCURVE",
"59 526 OFFCURVE",
"59 297 CURVE SMOOTH"
);
},
{
closed = 1;
nodes = (
"573 197 OFFCURVE",
"489 153 OFFCURVE",
"402 153 CURVE SMOOTH",
"325 153 OFFCURVE",
"287 196 OFFCURVE",
"287 281 CURVE SMOOTH",
"287 369 OFFCURVE",
"367 392 OFFCURVE",
"543 412 CURVE",
"544 412 LINE SMOOTH",
"546 412 OFFCURVE",
"595 418 OFFCURVE",
"613 421 CURVE",
"617 358 OFFCURVE",
"639 283 OFFCURVE",
"650 256 CURVE"
);
},
{
closed = 1;
nodes = (
"849 614 LINE",
"868 805 OFFCURVE",
"976 859 OFFCURVE",
"1071 859 CURVE SMOOTH",
"1189 859 OFFCURVE",
"1215 757 OFFCURVE",
"1215 665 CURVE SMOOTH",
"1215 646 LINE"
);
}
);
width = 1478;
}
);
unicode = 00E6;
},
{
glyphname = aeacute;
layers = (
{
layerId = "280E06E1-9336-45D2-8B5F-14710EC8A5A0";
name = Bold;
paths = (
{
closed = 1;
nodes = (
"59 119 OFFCURVE",
"178 -19 OFFCURVE",
"368 -19 CURVE SMOOTH",
"536 -19 OFFCURVE",
"661 45 OFFCURVE",
"744 119 CURVE",
"816 32 OFFCURVE",
"918 -18 OFFCURVE",
"1079 -18 CURVE SMOOTH",
"1242 -18 OFFCURVE",
"1339 22 OFFCURVE",
"1418 79 CURVE",
"1424 84 LINE",
"1352 247 LINE",
"1342 240 LINE",
"1299 206 OFFCURVE",
"1207 168 OFFCURVE",
"1095 168 CURVE",
"939 170 OFFCURVE",
"858 270 OFFCURVE",
"848 451 CURVE",
"951 458 OFFCURVE",
"1261 483 OFFCURVE",
"1293 485 CURVE SMOOTH",
"1381 488 OFFCURVE",
"1442 509 OFFCURVE",
"1442 573 CURVE SMOOTH",
"1442 822 OFFCURVE",
"1339 1049 OFFCURVE",
"1073 1049 CURVE SMOOTH",
"936 1049 OFFCURVE",
"823 983 OFFCURVE",
"757 901 CURVE",
"714 1000 OFFCURVE",
"604 1051 OFFCURVE",
"459 1049 CURVE",
"306 1045 OFFCURVE",
"205 1014 OFFCURVE",
"119 973 CURVE",
"112 969 LINE",
"160 788 LINE",
"170 792 LINE SMOOTH",
"221 812 OFFCURVE",
"342 861 OFFCURVE",
"453 861 CURVE",
"578 855 OFFCURVE",
"608 802 OFFCURVE",
"608 687 CURVE SMOOTH",
"608 591 LINE",
"542 584 LINE",
"253 552 OFFCURVE",
"59 526 OFFCURVE",
"59 297 CURVE SMOOTH"
);
},
{
closed = 1;
nodes = (
"573 197 OFFCURVE",
"489 153 OFFCURVE",
"402 153 CURVE SMOOTH",
"325 153 OFFCURVE",
"287 196 OFFCURVE",
"287 281 CURVE SMOOTH",
"287 369 OFFCURVE",
"367 392 OFFCURVE",
"543 412 CURVE",
"544 412 LINE SMOOTH",
"546 412 OFFCURVE",
"595 418 OFFCURVE",
"613 421 CURVE",
"617 358 OFFCURVE",
"639 283 OFFCURVE",
"650 256 CURVE"
);
},
{
closed = 1;
nodes = (
"672 1171 LINE",
"829 1171 LINE",
"1124 1532 LINE",
"832 1532 LINE"
);
},
{
closed = 1;
nodes = (
"849 614 LINE",
"868 805 OFFCURVE",
"976 859 OFFCURVE",
"1071 859 CURVE SMOOTH",
"1189 859 OFFCURVE",
"1215 757 OFFCURVE",
"1215 665 CURVE SMOOTH",
"1215 646 LINE"
);
}
);
width = 1478;
}
);
unicode = 01FD;
},
{
glyphname = uni01E3;
layers = (
{
layerId = "280E06E1-9336-45D2-8B5F-14710EC8A5A0";
name = Bold;
paths = (
{
closed = 1;
nodes = (
"59 119 OFFCURVE",
"178 -19 OFFCURVE",
"368 -19 CURVE SMOOTH",
"536 -19 OFFCURVE",
"661 45 OFFCURVE",
"744 119 CURVE",
"816 32 OFFCURVE",
"918 -18 OFFCURVE",
"1079 -18 CURVE SMOOTH",
"1242 -18 OFFCURVE",
"1339 22 OFFCURVE",
"1418 79 CURVE",
"1424 84 LINE",
"1352 247 LINE",
"1342 240 LINE",
"1299 206 OFFCURVE",
"1207 168 OFFCURVE",
"1095 168 CURVE",
"939 170 OFFCURVE",
"858 270 OFFCURVE",
"848 451 CURVE",
"951 458 OFFCURVE",
"1261 483 OFFCURVE",
"1293 485 CURVE SMOOTH",
"1381 488 OFFCURVE",
"1442 509 OFFCURVE",
"1442 573 CURVE SMOOTH",
"1442 822 OFFCURVE",
"1339 1049 OFFCURVE",
"1073 1049 CURVE SMOOTH",
"936 1049 OFFCURVE",
"823 983 OFFCURVE",
"757 901 CURVE",
"714 1000 OFFCURVE",
"604 1051 OFFCURVE",
"459 1049 CURVE",
"306 1045 OFFCURVE",
"205 1014 OFFCURVE",
"119 973 CURVE",
"112 969 LINE",
"160 788 LINE",
"170 792 LINE SMOOTH",
"221 812 OFFCURVE",
"342 861 OFFCURVE",
"453 861 CURVE",
"578 855 OFFCURVE",
"608 802 OFFCURVE",
"608 687 CURVE SMOOTH",
"608 591 LINE",
"542 584 LINE",
"253 552 OFFCURVE",
"59 526 OFFCURVE",
"59 297 CURVE SMOOTH"
);
},
{
closed = 1;
nodes = (
"573 197 OFFCURVE",
"489 153 OFFCURVE",
"402 153 CURVE SMOOTH",
"325 153 OFFCURVE",
"287 196 OFFCURVE",
"287 281 CURVE SMOOTH",
"287 369 OFFCURVE",
"367 392 OFFCURVE",
"543 412 CURVE",
"544 412 LINE SMOOTH",
"546 412 OFFCURVE",
"595 418 OFFCURVE",
"613 421 CURVE",
"617 358 OFFCURVE",
"639 283 OFFCURVE",
"650 256 CURVE"
);
},
{
closed = 1;
nodes = (
"426 1171 LINE",
"1075 1171 LINE",
"1075 1330 LINE",
"426 1330 LINE"
);
},
{
closed = 1;
nodes = (
"849 614 LINE",
"868 805 OFFCURVE",
"976 859 OFFCURVE",
"1071 859 CURVE SMOOTH",
"1189 859 OFFCURVE",
"1215 757 OFFCURVE",
"1215 665 CURVE SMOOTH",
"1215 646 LINE"
);
}
);
width = 1478;
}
);
unicode = 01E3;
},
{
glyphname = b;
lastChange = "2013-02-09 21:38:47 -0800";
layers = (
{
layerId = "280E06E1-9336-45D2-8B5F-14710EC8A5A0";
name = Bold;
paths = (
{
closed = 1;
nodes = (
"432 57 OFFCURVE",
"562 -18 OFFCURVE",
"695 -18 CURVE SMOOTH",
"948 -18 OFFCURVE",
"1108 202 OFFCURVE",
"1108 519 CURVE SMOOTH",
"1108 819 OFFCURVE",
"958 1041 OFFCURVE",
"699 1041 CURVE SMOOTH",
"555 1041 OFFCURVE",
"448 960 OFFCURVE",
"386 878 CURVE",
"416 860 LINE",
"422 1079 LINE",
"422 1393 LINE",
"166 1376 LINE",
"166 1 LINE",
"387 1 LINE",
"415 171 LINE",
"373 153 LINE"
);
},
{
closed = 1;
nodes = (
"852 281 OFFCURVE",
"757 179 OFFCURVE",
"632 179 CURVE SMOOTH",
"504 179 OFFCURVE",
"417 277 OFFCURVE",
"417 527 CURVE",
"419 757 OFFCURVE",
"512 845 OFFCURVE",
"637 845 CURVE SMOOTH",
"762 845 OFFCURVE",
"852 751 OFFCURVE",
"852 516 CURVE SMOOTH"
);
}
);
width = 1214;
}
);
unicode = 0062;
},
{
glyphname = c;
lastChange = "2013-02-09 21:38:25 -0800";
layers = (
{
anchors = (
{
name = bottom;
position = "{500, 0}";
},
{
name = top;
position = "{500, 0}";
}
);
layerId = "280E06E1-9336-45D2-8B5F-14710EC8A5A0";
name = Bold;
paths = (
{
closed = 1;
nodes = (
"106 170 OFFCURVE",
"305 -18 OFFCURVE",
"600 -18 CURVE SMOOTH",
"785 -18 OFFCURVE",
"862 41 OFFCURVE",
"894 64 CURVE",
"861 247 LINE",
"790 207 OFFCURVE",
"716 178 OFFCURVE",
"626 183 CURVE SMOOTH",
"481 190 OFFCURVE",
"362 292 OFFCURVE",
"362 513 CURVE SMOOTH",
"362 735 OFFCURVE",
"489 840 OFFCURVE",
"633 840 CURVE SMOOTH",
"742 840 OFFCURVE",
"814 799 OFFCURVE",
"844 781 CURVE",
"904 959 LINE",
"822 1015 OFFCURVE",
"726 1041 OFFCURVE",
"603 1041 CURVE SMOOTH",
"326 1041 OFFCURVE",
"106 856 OFFCURVE",
"106 516 CURVE SMOOTH"
);
}
);
width = 994;
}
);
unicode = 0063;
},
{
glyphname = cacute;
layers = (
{
layerId = "280E06E1-9336-45D2-8B5F-14710EC8A5A0";
name = Bold;
paths = (
{
closed = 1;
nodes = (
"119 170 OFFCURVE",
"306 -18 OFFCURVE",
"601 -18 CURVE SMOOTH",
"792 -18 OFFCURVE",
"859 45 OFFCURVE",
"895 64 CURVE",
"862 247 LINE",
"791 207 OFFCURVE",
"717 178 OFFCURVE",
"627 183 CURVE SMOOTH",
"482 190 OFFCURVE",
"375 292 OFFCURVE",
"375 513 CURVE SMOOTH",
"375 735 OFFCURVE",
"490 833 OFFCURVE",
"634 840 CURVE",
"768 840 OFFCURVE",
"807 797 OFFCURVE",
"845 781 CURVE",
"905 959 LINE",
"819 1013 OFFCURVE",
"722 1041 OFFCURVE",
"604 1041 CURVE SMOOTH",
"327 1041 OFFCURVE",
"119 856 OFFCURVE",
"119 516 CURVE SMOOTH"
);
},
{
closed = 1;
nodes = (
"434 1163 LINE",
"590 1163 LINE",
"886 1524 LINE",
"594 1524 LINE"
);
}
);
width = 993;
}
);
unicode = 0107;
},
{
glyphname = ccaron;
layers = (
{
layerId = "280E06E1-9336-45D2-8B5F-14710EC8A5A0";
name = Bold;
paths = (
{
closed = 1;
nodes = (
"119 170 OFFCURVE",
"306 -18 OFFCURVE",
"601 -18 CURVE SMOOTH",
"792 -18 OFFCURVE",
"859 45 OFFCURVE",
"895 64 CURVE",
"862 247 LINE",
"791 207 OFFCURVE",
"717 178 OFFCURVE",
"627 183 CURVE SMOOTH",
"482 190 OFFCURVE",
"375 292 OFFCURVE",
"375 513 CURVE SMOOTH",
"375 735 OFFCURVE",
"490 833 OFFCURVE",
"634 840 CURVE",
"768 840 OFFCURVE",
"807 797 OFFCURVE",
"845 781 CURVE",
"905 959 LINE",
"819 1013 OFFCURVE",
"722 1041 OFFCURVE",
"604 1041 CURVE SMOOTH",
"327 1041 OFFCURVE",
"119 856 OFFCURVE",
"119 516 CURVE SMOOTH"
);
},
{
closed = 1;
nodes = (
"417 1163 LINE",
"607 1163 LINE",
"855 1500 LINE",
"650 1500 LINE",
"500 1329 LINE",
"370 1500 LINE",
"169 1500 LINE"
);
}
);
width = 993;
}
);
unicode = 010D;
},
{
glyphname = ccedilla;
layers = (
{
layerId = "280E06E1-9336-45D2-8B5F-14710EC8A5A0";
name = Bold;
paths = (
{
closed = 1;
nodes = (
"322 -363 LINE",
"532 -363 LINE",
"584 -18 LINE",
"601 -18 LINE SMOOTH",
"792 -18 OFFCURVE",
"859 45 OFFCURVE",
"895 64 CURVE",
"862 247 LINE",
"791 207 OFFCURVE",
"717 178 OFFCURVE",
"627 183 CURVE SMOOTH",
"482 190 OFFCURVE",
"375 292 OFFCURVE",
"375 513 CURVE SMOOTH",
"375 735 OFFCURVE",
"490 833 OFFCURVE",
"634 840 CURVE",
"768 840 OFFCURVE",
"807 797 OFFCURVE",
"845 781 CURVE",
"905 959 LINE",
"819 1013 OFFCURVE",
"722 1041 OFFCURVE",
"604 1041 CURVE SMOOTH",
"327 1041 OFFCURVE",
"119 856 OFFCURVE",
"119 516 CURVE SMOOTH",
"119 220 OFFCURVE",
"255 40 OFFCURVE",
"479 -6 CURVE",
"438 -6 LINE"
);
}
);
width = 993;
}
);
unicode = 00E7;
},
{
glyphname = ccircumflex;
layers = (
{
layerId = "280E06E1-9336-45D2-8B5F-14710EC8A5A0";
name = Bold;
paths = (
{
closed = 1;
nodes = (
"119 170 OFFCURVE",
"306 -18 OFFCURVE",
"601 -18 CURVE SMOOTH",
"792 -18 OFFCURVE",
"859 45 OFFCURVE",
"895 64 CURVE",
"862 247 LINE",
"791 207 OFFCURVE",
"717 178 OFFCURVE",
"627 183 CURVE SMOOTH",
"482 190 OFFCURVE",
"375 292 OFFCURVE",
"375 513 CURVE SMOOTH",
"375 735 OFFCURVE",
"490 833 OFFCURVE",
"634 840 CURVE",
"768 840 OFFCURVE",
"807 797 OFFCURVE",
"845 781 CURVE",
"905 959 LINE",
"819 1013 OFFCURVE",
"722 1041 OFFCURVE",
"604 1041 CURVE SMOOTH",
"327 1041 OFFCURVE",
"119 856 OFFCURVE",
"119 516 CURVE SMOOTH"
);
},
{
closed = 1;
nodes = (
"178 1163 LINE",
"360 1163 LINE",
"502 1357 LINE",
"660 1163 LINE",
"846 1163 LINE",
"610 1531 LINE",
"414 1531 LINE"
);
}
);
width = 993;
}
);
unicode = 0109;
},
{
glyphname = cdotaccent;
layers = (
{
layerId = "280E06E1-9336-45D2-8B5F-14710EC8A5A0";
name = Bold;
paths = (
{
closed = 1;
nodes = (
"119 170 OFFCURVE",
"306 -18 OFFCURVE",
"601 -18 CURVE SMOOTH",
"792 -18 OFFCURVE",
"859 45 OFFCURVE",
"895 64 CURVE",
"862 247 LINE",
"791 207 OFFCURVE",
"717 178 OFFCURVE",
"627 183 CURVE SMOOTH",
"482 190 OFFCURVE",
"375 292 OFFCURVE",
"375 513 CURVE SMOOTH",
"375 735 OFFCURVE",
"490 833 OFFCURVE",
"634 840 CURVE",
"768 840 OFFCURVE",
"807 797 OFFCURVE",
"845 781 CURVE",
"905 959 LINE",
"819 1013 OFFCURVE",
"722 1041 OFFCURVE",
"604 1041 CURVE SMOOTH",
"327 1041 OFFCURVE",
"119 856 OFFCURVE",
"119 516 CURVE SMOOTH"
);
},
{
closed = 1;
nodes = (
"413 1163 LINE",
"611 1163 LINE",
"611 1375 LINE",
"413 1375 LINE"
);
}
);
width = 993;
}
);
unicode = 010B;
},
{
glyphname = d;
lastChange = "2013-02-09 21:39:28 -0800";
layers = (
{
anchors = (
{
name = center;
position = "{606, 0}";
}
);
layerId = "280E06E1-9336-45D2-8B5F-14710EC8A5A0";
name = Bold;
paths = (
{
closed = 1;
nodes = (
"106 200 OFFCURVE",
"266 -17 OFFCURVE",
"527 -17 CURVE SMOOTH",
"726 -17 OFFCURVE",
"802 88 OFFCURVE",
"844 162 CURVE",
"794 162 LINE",
"828 0 LINE",
"1048 0 LINE",
"1048 1393 LINE",
"792 1376 LINE",
"792 1052 LINE SMOOTH",
"802 869 LINE",
"840 890 LINE",
"783 985 OFFCURVE",
"679 1041 OFFCURVE",
"527 1041 CURVE SMOOTH",
"265 1041 OFFCURVE",
"106 826 OFFCURVE",
"106 517 CURVE SMOOTH"
);
},
{
closed = 1;
nodes = (
"801 267 OFFCURVE",
"719 179 OFFCURVE",
"583 179 CURVE SMOOTH",
"447 179 OFFCURVE",
"362 275 OFFCURVE",
"362 512 CURVE SMOOTH",
"362 754 OFFCURVE",
"469 843 OFFCURVE",
"594 843 CURVE SMOOTH",
"726 843 OFFCURVE",
"803 759 OFFCURVE",
"803 497 CURVE"
);
}
);
width = 1214;
}
);
unicode = 0064;
},
{
glyphname = eth;
layers = (
{
layerId = "280E06E1-9336-45D2-8B5F-14710EC8A5A0";
name = Bold;
paths = (
{
closed = 1;
nodes = (
"69 167 OFFCURVE",
"267 -17 OFFCURVE",
"557 -17 CURVE SMOOTH",
"851 -17 OFFCURVE",
"1041 146 OFFCURVE",
"1041 424 CURVE",
"1040 557 OFFCURVE",
"1003 675 OFFCURVE",
"947 770 CURVE",
"875 889 OFFCURVE",
"780 996 OFFCURVE",
"680 1110 CURVE",
"861 1183 LINE",
"798 1353 LINE",
"558 1255 LINE",
"454 1377 LINE",
"165 1377 LINE",
"350 1169 LINE",
"192 1105 LINE",
"253 936 LINE",
"476 1025 LINE",
"508 990 OFFCURVE",
"595 890 OFFCURVE",
"633 842 CURVE",
"599 852 OFFCURVE",
"552 862 OFFCURVE",
"515 862 CURVE SMOOTH",
"247 862 OFFCURVE",
"69 691 OFFCURVE",
"69 433 CURVE SMOOTH"
);
},
{
closed = 1;
nodes = (
"818 278 OFFCURVE",
"726 179 OFFCURVE",
"564 179 CURVE SMOOTH",
"399 179 OFFCURVE",
"302 285 OFFCURVE",
"302 434 CURVE SMOOTH",
"302 589 OFFCURVE",
"393 688 OFFCURVE",
"558 688 CURVE SMOOTH",
"723 688 OFFCURVE",
"818 582 OFFCURVE",
"818 430 CURVE SMOOTH"
);
}
);
width = 1075;
}
);
unicode = 00F0;
},
{
glyphname = dcaron;
layers = (
{
layerId = "280E06E1-9336-45D2-8B5F-14710EC8A5A0";
name = Bold;
paths = (
{
closed = 1;
nodes = (
"118 200 OFFCURVE",
"273 -17 OFFCURVE",
"534 -17 CURVE SMOOTH",
"703 -17 OFFCURVE",
"775 55 OFFCURVE",
"815 117 CURVE",
"839 0 LINE",
"1059 0 LINE",
"1059 1393 LINE",
"803 1376 LINE",
"803 1052 LINE SMOOTH",
"803 1017 OFFCURVE",
"807 963 OFFCURVE",
"811 920 CURVE",
"767 978 OFFCURVE",
"686 1041 OFFCURVE",
"534 1041 CURVE SMOOTH",
"272 1041 OFFCURVE",
"118 826 OFFCURVE",
"118 517 CURVE SMOOTH"
);
},
{
closed = 1;
nodes = (
"812 267 OFFCURVE",
"729 179 OFFCURVE",
"590 179 CURVE SMOOTH",
"462 179 OFFCURVE",
"374 285 OFFCURVE",
"374 512 CURVE SMOOTH",
"374 742 OFFCURVE",
"463 843 OFFCURVE",
"588 843 CURVE SMOOTH",
"733 843 OFFCURVE",
"814 748 OFFCURVE",
"814 497 CURVE"
);
},
{
closed = 1;
nodes = (
"1248 913 LINE",
"1393 913 LINE",
"1444 1393 LINE",
"1242 1393 LINE"
);
}
);
width = 1218;
}
);
unicode = 010F;
},
{
glyphname = e;
lastChange = "2013-02-09 21:37:58 -0800";
layers = (
{
anchors = (
{
name = bottom;
position = "{586, 0}";
},
{
name = ogonek;
position = "{1064, 10}";
},
{
name = top;
position = "{586, 0}";
}
);
layerId = "280E06E1-9336-45D2-8B5F-14710EC8A5A0";
name = Bold;
paths = (
{
closed = 1;
nodes = (
"106 183 OFFCURVE",
"330 -18 OFFCURVE",
"645 -18 CURVE SMOOTH",
"801 -18 OFFCURVE",
"929 9 OFFCURVE",
"1025 70 CURVE",
"990 250 LINE",
"948 231 OFFCURVE",
"832 174 OFFCURVE",
"669 174 CURVE SMOOTH",
"496 174 OFFCURVE",
"364 273 OFFCURVE",
"365 492 CURVE",
"316 448 LINE",
"1045 448 LINE",
"1045 448 OFFCURVE",
"1052 543 OFFCURVE",
"1052 558 CURVE SMOOTH",
"1052 840 OFFCURVE",
"886 1041 OFFCURVE",
"607 1041 CURVE SMOOTH",
"318 1040 OFFCURVE",
"106 830 OFFCURVE",
"106 512 CURVE SMOOTH"
);
},
{
closed = 1;
nodes = (
"371 570 LINE",
"371 769 OFFCURVE",
"506 854 OFFCURVE",
"609 854 CURVE SMOOTH",
"726 854 OFFCURVE",
"808 763 OFFCURVE",
"812 573 CURVE",
"851 613 LINE",
"318 613 LINE"
);
}
);
width = 1156;
}
);
unicode = 0065;
},
{
glyphname = eacute;
layers = (
{
layerId = "280E06E1-9336-45D2-8B5F-14710EC8A5A0";
name = Bold;
paths = (
{
closed = 1;
nodes = (
"119 183 OFFCURVE",
"308 -18 OFFCURVE",
"623 -18 CURVE SMOOTH",
"779 -18 OFFCURVE",
"883 2 OFFCURVE",
"979 63 CURVE",
"944 243 LINE",
"902 224 OFFCURVE",
"810 174 OFFCURVE",
"647 174 CURVE SMOOTH",
"474 174 OFFCURVE",
"391 273 OFFCURVE",
"378 448 CURVE",
"1011 448 LINE",
"1011 448 OFFCURVE",
"1018 543 OFFCURVE",
"1018 558 CURVE SMOOTH",
"1018 840 OFFCURVE",
"865 1041 OFFCURVE",
"586 1041 CURVE SMOOTH",
"297 1040 OFFCURVE",
"119 830 OFFCURVE",
"119 512 CURVE SMOOTH"
);
},
{
closed = 1;
nodes = (
"490 1163 LINE",
"647 1163 LINE",
"942 1524 LINE",
"650 1524 LINE"
);
},
{
closed = 1;
nodes = (
"384 613 LINE",
"403 774 OFFCURVE",
"484 854 OFFCURVE",
"587 854 CURVE SMOOTH",
"704 854 OFFCURVE",
"774 760 OFFCURVE",
"778 613 CURVE"
);
}
);
width = 1119;
}
);
unicode = 00E9;
},
{
glyphname = ebreve;
layers = (
{
layerId = "280E06E1-9336-45D2-8B5F-14710EC8A5A0";
name = Bold;
paths = (
{
closed = 1;
nodes = (
"119 183 OFFCURVE",
"308 -18 OFFCURVE",
"623 -18 CURVE SMOOTH",
"779 -18 OFFCURVE",
"883 2 OFFCURVE",
"979 63 CURVE",
"944 243 LINE",
"902 224 OFFCURVE",
"810 174 OFFCURVE",
"647 174 CURVE SMOOTH",
"474 174 OFFCURVE",
"391 273 OFFCURVE",
"378 448 CURVE",
"1011 448 LINE",
"1011 448 OFFCURVE",
"1018 543 OFFCURVE",
"1018 558 CURVE SMOOTH",
"1018 840 OFFCURVE",
"865 1041 OFFCURVE",
"586 1041 CURVE SMOOTH",
"297 1040 OFFCURVE",
"119 830 OFFCURVE",
"119 512 CURVE SMOOTH"
);
},
{
closed = 1;
nodes = (
"300 1241 OFFCURVE",
"416 1163 OFFCURVE",
"568 1163 CURVE SMOOTH",
"721 1163 OFFCURVE",
"838 1240 OFFCURVE",
"838 1406 CURVE",
"668 1406 LINE",
"668 1345 OFFCURVE",
"642 1321 OFFCURVE",
"568 1321 CURVE SMOOTH",
"494 1321 OFFCURVE",
"468 1345 OFFCURVE",
"468 1406 CURVE",
"300 1406 LINE"
);
},
{
closed = 1;
nodes = (
"384 613 LINE",
"403 774 OFFCURVE",
"484 854 OFFCURVE",
"587 854 CURVE SMOOTH",
"704 854 OFFCURVE",
"774 760 OFFCURVE",
"778 613 CURVE"
);
}
);
width = 1119;
}
);
unicode = 0115;
},
{
glyphname = ecaron;
layers = (
{
layerId = "280E06E1-9336-45D2-8B5F-14710EC8A5A0";
name = Bold;
paths = (
{
closed = 1;
nodes = (
"119 183 OFFCURVE",
"308 -18 OFFCURVE",
"623 -18 CURVE SMOOTH",
"779 -18 OFFCURVE",
"883 2 OFFCURVE",
"979 63 CURVE",
"944 243 LINE",
"902 224 OFFCURVE",
"810 174 OFFCURVE",
"647 174 CURVE SMOOTH",
"474 174 OFFCURVE",
"391 273 OFFCURVE",
"378 448 CURVE",
"1011 448 LINE",
"1011 448 OFFCURVE",
"1018 543 OFFCURVE",
"1018 558 CURVE SMOOTH",
"1018 840 OFFCURVE",
"865 1041 OFFCURVE",
"586 1041 CURVE SMOOTH",
"297 1040 OFFCURVE",
"119 830 OFFCURVE",
"119 512 CURVE SMOOTH"
);
},
{
closed = 1;
nodes = (
"474 1163 LINE",
"664 1163 LINE",
"912 1500 LINE",
"706 1500 LINE",
"556 1329 LINE",
"426 1500 LINE",
"226 1500 LINE"
);
},
{
closed = 1;
nodes = (
"384 613 LINE",
"403 774 OFFCURVE",
"484 854 OFFCURVE",
"587 854 CURVE SMOOTH",
"704 854 OFFCURVE",
"774 760 OFFCURVE",
"778 613 CURVE"
);
}
);
width = 1119;
}
);
unicode = 011B;
},
{
glyphname = ecircumflex;
layers = (
{
layerId = "280E06E1-9336-45D2-8B5F-14710EC8A5A0";
name = Bold;
paths = (
{
closed = 1;
nodes = (
"119 183 OFFCURVE",
"308 -18 OFFCURVE",
"623 -18 CURVE SMOOTH",
"779 -18 OFFCURVE",
"883 2 OFFCURVE",
"979 63 CURVE",
"944 243 LINE",
"902 224 OFFCURVE",
"810 174 OFFCURVE",
"647 174 CURVE SMOOTH",
"474 174 OFFCURVE",
"391 273 OFFCURVE",
"378 448 CURVE",
"1011 448 LINE",
"1011 448 OFFCURVE",
"1018 543 OFFCURVE",
"1018 558 CURVE SMOOTH",
"1018 840 OFFCURVE",
"865 1041 OFFCURVE",
"586 1041 CURVE SMOOTH",
"297 1040 OFFCURVE",
"119 830 OFFCURVE",
"119 512 CURVE SMOOTH"
);
},
{
closed = 1;
nodes = (
"235 1163 LINE",
"416 1163 LINE",
"558 1357 LINE",
"716 1163 LINE",
"902 1163 LINE",
"666 1531 LINE",
"470 1531 LINE"
);
},
{
closed = 1;
nodes = (
"384 613 LINE",
"403 774 OFFCURVE",
"484 854 OFFCURVE",
"587 854 CURVE SMOOTH",
"704 854 OFFCURVE",
"774 760 OFFCURVE",
"778 613 CURVE"
);
}
);
width = 1119;
}
);
unicode = 00EA;
},
{
glyphname = edieresis;
layers = (
{
layerId = "280E06E1-9336-45D2-8B5F-14710EC8A5A0";
name = Bold;
paths = (
{
closed = 1;
nodes = (
"119 183 OFFCURVE",
"308 -18 OFFCURVE",
"623 -18 CURVE SMOOTH",
"779 -18 OFFCURVE",
"883 2 OFFCURVE",
"979 63 CURVE",
"944 243 LINE",
"902 224 OFFCURVE",
"810 174 OFFCURVE",
"647 174 CURVE SMOOTH",
"474 174 OFFCURVE",
"391 273 OFFCURVE",
"378 448 CURVE",
"1011 448 LINE",
"1011 448 OFFCURVE",
"1018 543 OFFCURVE",
"1018 558 CURVE SMOOTH",
"1018 840 OFFCURVE",
"865 1041 OFFCURVE",
"586 1041 CURVE SMOOTH",
"297 1040 OFFCURVE",
"119 830 OFFCURVE",
"119 512 CURVE SMOOTH"
);
},
{
closed = 1;
nodes = (
"284 1163 LINE",
"478 1163 LINE",
"478 1408 LINE",
"284 1408 LINE"
);
},
{
closed = 1;
nodes = (
"660 1163 LINE",
"853 1163 LINE",
"853 1408 LINE",
"660 1408 LINE"
);
},
{
closed = 1;
nodes = (
"384 613 LINE",
"403 774 OFFCURVE",
"484 854 OFFCURVE",
"587 854 CURVE SMOOTH",
"704 854 OFFCURVE",
"774 760 OFFCURVE",
"778 613 CURVE"
);
}
);
width = 1119;
}
);
unicode = 00EB;
},
{
glyphname = edotaccent;
layers = (
{
layerId = "280E06E1-9336-45D2-8B5F-14710EC8A5A0";
name = Bold;
paths = (
{
closed = 1;
nodes = (
"119 183 OFFCURVE",
"308 -18 OFFCURVE",
"623 -18 CURVE SMOOTH",
"779 -18 OFFCURVE",
"883 2 OFFCURVE",
"979 63 CURVE",
"944 243 LINE",
"902 224 OFFCURVE",
"810 174 OFFCURVE",
"647 174 CURVE SMOOTH",
"474 174 OFFCURVE",
"391 273 OFFCURVE",
"378 448 CURVE",
"1011 448 LINE",
"1011 448 OFFCURVE",
"1018 543 OFFCURVE",
"1018 558 CURVE SMOOTH",
"1018 840 OFFCURVE",
"865 1041 OFFCURVE",
"586 1041 CURVE SMOOTH",
"297 1040 OFFCURVE",
"119 830 OFFCURVE",
"119 512 CURVE SMOOTH"
);
},
{
closed = 1;
nodes = (
"470 1163 LINE",
"668 1163 LINE",
"668 1375 LINE",
"470 1375 LINE"
);
},
{
closed = 1;
nodes = (
"384 613 LINE",
"403 774 OFFCURVE",
"484 854 OFFCURVE",
"587 854 CURVE SMOOTH",
"704 854 OFFCURVE",
"774 760 OFFCURVE",
"778 613 CURVE"
);
}
);
width = 1119;
}
);
unicode = 0117;
},
{
glyphname = egrave;
layers = (
{
layerId = "280E06E1-9336-45D2-8B5F-14710EC8A5A0";
name = Bold;
paths = (
{
closed = 1;
nodes = (
"119 183 OFFCURVE",
"308 -18 OFFCURVE",
"623 -18 CURVE SMOOTH",
"779 -18 OFFCURVE",
"883 2 OFFCURVE",
"979 63 CURVE",
"944 243 LINE",
"902 224 OFFCURVE",
"810 174 OFFCURVE",
"647 174 CURVE SMOOTH",
"474 174 OFFCURVE",
"391 273 OFFCURVE",
"378 448 CURVE",
"1011 448 LINE",
"1011 448 OFFCURVE",
"1018 543 OFFCURVE",
"1018 558 CURVE SMOOTH",
"1018 840 OFFCURVE",
"865 1041 OFFCURVE",
"586 1041 CURVE SMOOTH",
"297 1040 OFFCURVE",
"119 830 OFFCURVE",
"119 512 CURVE SMOOTH"
);
},
{
closed = 1;
nodes = (
"486 1163 LINE",
"651 1163 LINE",
"474 1524 LINE",
"175 1524 LINE"
);
},
{
closed = 1;
nodes = (
"384 613 LINE",
"403 774 OFFCURVE",
"484 854 OFFCURVE",
"587 854 CURVE SMOOTH",
"704 854 OFFCURVE",
"774 760 OFFCURVE",
"778 613 CURVE"
);
}
);
width = 1119;
}
);
unicode = 00E8;
},
{
glyphname = emacron;
layers = (
{
layerId = "280E06E1-9336-45D2-8B5F-14710EC8A5A0";
name = Bold;
paths = (
{
closed = 1;
nodes = (
"119 183 OFFCURVE",
"308 -18 OFFCURVE",
"623 -18 CURVE SMOOTH",
"779 -18 OFFCURVE",
"883 2 OFFCURVE",
"979 63 CURVE",
"944 243 LINE",
"902 224 OFFCURVE",
"810 174 OFFCURVE",
"647 174 CURVE SMOOTH",
"474 174 OFFCURVE",
"391 273 OFFCURVE",
"378 448 CURVE",
"1011 448 LINE",
"1011 448 OFFCURVE",
"1018 543 OFFCURVE",
"1018 558 CURVE SMOOTH",
"1018 840 OFFCURVE",
"865 1041 OFFCURVE",
"586 1041 CURVE SMOOTH",
"297 1040 OFFCURVE",
"119 830 OFFCURVE",
"119 512 CURVE SMOOTH"
);
},
{
closed = 1;
nodes = (
"244 1163 LINE",
"893 1163 LINE",
"893 1322 LINE",
"244 1322 LINE"
);
},
{
closed = 1;
nodes = (
"384 613 LINE",
"403 774 OFFCURVE",
"484 854 OFFCURVE",
"587 854 CURVE SMOOTH",
"704 854 OFFCURVE",
"774 760 OFFCURVE",
"778 613 CURVE"
);
}
);
width = 1119;
}
);
unicode = 0113;
},
{
glyphname = eogonek;
layers = (
{
layerId = "280E06E1-9336-45D2-8B5F-14710EC8A5A0";
name = Bold;
paths = (
{
closed = 1;
nodes = (
"604 -18 LINE SMOOTH",
"623 -18 LINE SMOOTH",
"779 -18 OFFCURVE",
"883 2 OFFCURVE",
"979 63 CURVE",
"944 243 LINE",
"902 224 OFFCURVE",
"810 174 OFFCURVE",
"647 174 CURVE SMOOTH",
"474 174 OFFCURVE",
"391 273 OFFCURVE",
"378 448 CURVE",
"1011 448 LINE",
"1011 448 OFFCURVE",
"1018 543 OFFCURVE",
"1018 558 CURVE SMOOTH",
"1018 840 OFFCURVE",
"865 1041 OFFCURVE",
"586 1041 CURVE SMOOTH",
"297 1040 OFFCURVE",
"119 830 OFFCURVE",
"119 512 CURVE SMOOTH",
"119 225 OFFCURVE",
"262 36 OFFCURVE",
"508 -8 CURVE",
"510 -7 OFFCURVE",
"513 -5 OFFCURVE",
"515 -4 CURVE"
);
},
{
closed = 1;
nodes = (
"341 -357 OFFCURVE",
"432 -411 OFFCURVE",
"536 -411 CURVE SMOOTH",
"595 -411 OFFCURVE",
"656 -396 OFFCURVE",
"711 -375 CURVE",
"711 -375 OFFCURVE",
"704 -234 OFFCURVE",
"703 -234 CURVE SMOOTH",
"691 -239 OFFCURVE",
"632 -265 OFFCURVE",
"580 -265 CURVE SMOOTH",
"542 -265 OFFCURVE",
"516 -230 OFFCURVE",
"516 -196 CURVE SMOOTH",
"516 -141 OFFCURVE",
"548 -77 OFFCURVE",
"622 -20 CURVE",
"604 -18 LINE",
"571 -17 OFFCURVE",
"538 -13 OFFCURVE",
"508 -8 CURVE",
"437 -50 OFFCURVE",
"341 -124 OFFCURVE",
"341 -243 CURVE SMOOTH"
);
},
{
closed = 1;
nodes = (
"384 613 LINE",
"403 774 OFFCURVE",
"484 854 OFFCURVE",
"587 854 CURVE SMOOTH",
"704 854 OFFCURVE",
"774 760 OFFCURVE",
"778 613 CURVE"
);
}
);
width = 1119;
}
);
unicode = 0119;
},
{
glyphname = f;
lastChange = "2013-02-09 21:39:56 -0800";
layers = (
{
layerId = "280E06E1-9336-45D2-8B5F-14710EC8A5A0";
name = Bold;
paths = (
{
closed = 1;
nodes = (
"248 0 LINE",
"504 0 LINE",
"504 898 LINE",
"464 839 LINE",
"732 839 LINE",
"732 1016 LINE",
"454 1016 LINE",
"504 965 LINE",
"504 1074 LINE SMOOTH",
"504 1201 OFFCURVE",
"553 1219 OFFCURVE",
"635 1219 CURVE SMOOTH",
"675 1219 OFFCURVE",
"724 1213 OFFCURVE",
"754 1208 CURVE",
"777 1401 LINE",
"710 1414 OFFCURVE",
"648 1420 OFFCURVE",
"589 1420 CURVE SMOOTH",
"394 1420 OFFCURVE",
"248 1350 OFFCURVE",
"248 1061 CURVE SMOOTH",
"248 963 LINE",
"293 1020 LINE",
"107 998 LINE",
"102 839 LINE",
"288 839 LINE",
"248 902 LINE"
);
}
);
width = 825;
}
);
unicode = 0066;
},
{
glyphname = g;
lastChange = "2013-02-09 21:40:14 -0800";
layers = (
{
anchors = (
{
name = top;
position = "{608, 0}";
}
);
layerId = "280E06E1-9336-45D2-8B5F-14710EC8A5A0";
name = Bold;
paths = (
{
closed = 1;
nodes = (
"274 -414 OFFCURVE",
"409 -439 OFFCURVE",
"556 -439 CURVE SMOOTH",
"936 -439 OFFCURVE",
"1049 -235 OFFCURVE",
"1049 149 CURVE SMOOTH",
"1049 1017 LINE",
"822 1017 LINE",
"804 844 LINE",
"839 853 LINE",
"772 1005 OFFCURVE",
"665 1041 OFFCURVE",
"533 1041 CURVE SMOOTH",
"298 1041 OFFCURVE",
"106 854 OFFCURVE",
"106 519 CURVE SMOOTH",
"106 213 OFFCURVE",
"264 0 OFFCURVE",
"524 0 CURVE SMOOTH",
"662 0 OFFCURVE",
"799 79 OFFCURVE",
"849 239 CURVE",
"800 249 LINE",
"801 29 LINE",
"801 -143 OFFCURVE",
"749 -237 OFFCURVE",
"531 -237 CURVE SMOOTH",
"429 -237 OFFCURVE",
"291 -222 OFFCURVE",
"255 -216 CURVE",
"266 -411 LINE"
);
},
{
closed = 1;
nodes = (
"802 323 OFFCURVE",
"755 195 OFFCURVE",
"585 195 CURVE SMOOTH",
"436 195 OFFCURVE",
"362 343 OFFCURVE",
"362 526 CURVE SMOOTH",
"362 716 OFFCURVE",
"432 843 OFFCURVE",
"598 843 CURVE",
"741 841 OFFCURVE",
"804 733 OFFCURVE",
"804 536 CURVE SMOOTH",
"804 508 LINE"
);
}
);
width = 1207;
}
);
unicode = 0067;
},
{
glyphname = gbreve;
layers = (
{
layerId = "280E06E1-9336-45D2-8B5F-14710EC8A5A0";
name = Bold;
paths = (
{
closed = 1;
nodes = (
"281 -405 OFFCURVE",
"378 -439 OFFCURVE",
"525 -439 CURVE SMOOTH",
"905 -439 OFFCURVE",
"1056 -166 OFFCURVE",
"1056 185 CURVE SMOOTH",
"1056 1017 LINE",
"829 1017 LINE",
"816 893 LINE",
"760 1005 OFFCURVE",
"678 1041 OFFCURVE",
"546 1041 CURVE SMOOTH",
"311 1041 OFFCURVE",
"119 854 OFFCURVE",
"119 519 CURVE SMOOTH",
"119 213 OFFCURVE",
"277 0 OFFCURVE",
"537 0 CURVE SMOOTH",
"675 0 OFFCURVE",
"767 70 OFFCURVE",
"805 156 CURVE",
"807 139 OFFCURVE",
"808 103 OFFCURVE",
"808 87 CURVE SMOOTH",
"808 -85 OFFCURVE",
"718 -237 OFFCURVE",
"500 -237 CURVE SMOOTH",
"398 -237 OFFCURVE",
"346 -215 OFFCURVE",
"289 -207 CURVE",
"273 -402 LINE"
);
},
{
closed = 1;
nodes = (
"318 1241 OFFCURVE",
"434 1163 OFFCURVE",
"586 1163 CURVE SMOOTH",
"739 1163 OFFCURVE",
"856 1240 OFFCURVE",
"856 1406 CURVE",
"688 1406 LINE",
"688 1345 OFFCURVE",
"660 1321 OFFCURVE",
"586 1321 CURVE SMOOTH",
"512 1321 OFFCURVE",
"486 1345 OFFCURVE",
"486 1406 CURVE",
"318 1406 LINE"
);
},
{
closed = 1;
nodes = (
"809 323 OFFCURVE",
"768 195 OFFCURVE",
"598 195 CURVE SMOOTH",
"449 195 OFFCURVE",
"375 343 OFFCURVE",
"375 526 CURVE SMOOTH",
"375 716 OFFCURVE",
"445 843 OFFCURVE",
"611 843 CURVE",
"754 841 OFFCURVE",
"811 733 OFFCURVE",
"811 536 CURVE SMOOTH",
"811 508 LINE"
);
}
);
width = 1212;
}
);
unicode = 011F;
},
{
glyphname = gcaron;
layers = (
{
layerId = "280E06E1-9336-45D2-8B5F-14710EC8A5A0";
name = Bold;
paths = (
{
closed = 1;
nodes = (
"281 -405 OFFCURVE",
"378 -439 OFFCURVE",
"525 -439 CURVE SMOOTH",
"905 -439 OFFCURVE",
"1056 -166 OFFCURVE",
"1056 185 CURVE SMOOTH",
"1056 1017 LINE",
"829 1017 LINE",
"816 893 LINE",
"760 1005 OFFCURVE",
"678 1041 OFFCURVE",
"546 1041 CURVE SMOOTH",
"311 1041 OFFCURVE",
"119 854 OFFCURVE",
"119 519 CURVE SMOOTH",
"119 213 OFFCURVE",
"277 0 OFFCURVE",
"537 0 CURVE SMOOTH",
"675 0 OFFCURVE",
"767 70 OFFCURVE",
"805 156 CURVE",
"807 139 OFFCURVE",
"808 103 OFFCURVE",
"808 87 CURVE SMOOTH",
"808 -85 OFFCURVE",
"718 -237 OFFCURVE",
"500 -237 CURVE SMOOTH",
"398 -237 OFFCURVE",
"346 -215 OFFCURVE",
"289 -207 CURVE",
"273 -402 LINE"
);
},
{
closed = 1;
nodes = (
"492 1163 LINE",
"682 1163 LINE",
"930 1500 LINE",
"726 1500 LINE",
"576 1329 LINE",
"446 1500 LINE",
"244 1500 LINE"
);
},
{
closed = 1;
nodes = (
"809 323 OFFCURVE",
"768 195 OFFCURVE",
"598 195 CURVE SMOOTH",
"449 195 OFFCURVE",
"375 343 OFFCURVE",
"375 526 CURVE SMOOTH",
"375 716 OFFCURVE",
"445 843 OFFCURVE",
"611 843 CURVE",
"754 841 OFFCURVE",
"811 733 OFFCURVE",
"811 536 CURVE SMOOTH",
"811 508 LINE"
);
}
);
width = 1212;
}
);
unicode = 01E7;
},
{
glyphname = gcircumflex;
layers = (
{
layerId = "280E06E1-9336-45D2-8B5F-14710EC8A5A0";
name = Bold;
paths = (
{
closed = 1;
nodes = (
"281 -405 OFFCURVE",
"378 -439 OFFCURVE",
"525 -439 CURVE SMOOTH",
"905 -439 OFFCURVE",
"1056 -166 OFFCURVE",
"1056 185 CURVE SMOOTH",
"1056 1017 LINE",
"829 1017 LINE",
"816 893 LINE",
"760 1005 OFFCURVE",
"678 1041 OFFCURVE",
"546 1041 CURVE SMOOTH",
"311 1041 OFFCURVE",
"119 854 OFFCURVE",
"119 519 CURVE SMOOTH",
"119 213 OFFCURVE",
"277 0 OFFCURVE",
"537 0 CURVE SMOOTH",
"675 0 OFFCURVE",
"767 70 OFFCURVE",
"805 156 CURVE",
"807 139 OFFCURVE",
"808 103 OFFCURVE",
"808 87 CURVE SMOOTH",
"808 -85 OFFCURVE",
"718 -237 OFFCURVE",
"500 -237 CURVE SMOOTH",
"398 -237 OFFCURVE",
"346 -215 OFFCURVE",
"289 -207 CURVE",
"273 -402 LINE"
);
},
{
closed = 1;
nodes = (
"254 1163 LINE",
"435 1163 LINE",
"577 1357 LINE",
"735 1163 LINE",
"921 1163 LINE",
"685 1531 LINE",
"489 1531 LINE"
);
},
{
closed = 1;
nodes = (
"809 323 OFFCURVE",
"768 195 OFFCURVE",
"598 195 CURVE SMOOTH",
"449 195 OFFCURVE",
"375 343 OFFCURVE",
"375 526 CURVE SMOOTH",
"375 716 OFFCURVE",
"445 843 OFFCURVE",
"611 843 CURVE",
"754 841 OFFCURVE",
"811 733 OFFCURVE",
"811 536 CURVE SMOOTH",
"811 508 LINE"
);
}
);
width = 1212;
}
);
unicode = 011D;
},
{
glyphname = gcommaaccent;
layers = (
{
layerId = "280E06E1-9336-45D2-8B5F-14710EC8A5A0";
name = Bold;
paths = (
{
closed = 1;
nodes = (
"256 -405 OFFCURVE",
"369 -439 OFFCURVE",
"516 -439 CURVE SMOOTH",
"896 -439 OFFCURVE",
"1034 -166 OFFCURVE",
"1034 185 CURVE SMOOTH",
"1034 1017 LINE",
"807 1017 LINE",
"793 903 LINE",
"737 991 OFFCURVE",
"643 1041 OFFCURVE",
"511 1041 CURVE SMOOTH",
"276 1041 OFFCURVE",
"72 854 OFFCURVE",
"72 519 CURVE SMOOTH",
"72 213 OFFCURVE",
"263 0 OFFCURVE",
"523 0 CURVE SMOOTH",
"661 0 OFFCURVE",
"745 68 OFFCURVE",
"783 136 CURVE",
"785 119 OFFCURVE",
"786 103 OFFCURVE",
"786 87 CURVE SMOOTH",
"786 -85 OFFCURVE",
"709 -237 OFFCURVE",
"491 -237 CURVE SMOOTH",
"393 -237 OFFCURVE",
"275 -209 OFFCURVE",
"275 -209 CURVE",
"264 -207 LINE",
"248 -402 LINE",
"255 -405 LINE SMOOTH"
);
},
{
closed = 1;
nodes = (
"787 323 OFFCURVE",
"729 195 OFFCURVE",
"559 195 CURVE SMOOTH",
"410 195 OFFCURVE",
"327 343 OFFCURVE",
"327 526 CURVE SMOOTH",
"327 716 OFFCURVE",
"406 843 OFFCURVE",
"572 843 CURVE",
"715 841 OFFCURVE",
"789 733 OFFCURVE",
"789 536 CURVE SMOOTH",
"789 508 LINE"
);
},
{
closed = 1;
nodes = (
"388 1098 LINE",
"606 1098 LINE",
"707 1577 LINE",
"540 1577 LINE"
);
}
);
width = 1120;
}
);
unicode = 0123;
},
{
glyphname = gdotaccent;
layers = (
{
layerId = "280E06E1-9336-45D2-8B5F-14710EC8A5A0";
name = Bold;
paths = (
{
closed = 1;
nodes = (
"281 -405 OFFCURVE",
"378 -439 OFFCURVE",
"525 -439 CURVE SMOOTH",
"905 -439 OFFCURVE",
"1056 -166 OFFCURVE",
"1056 185 CURVE SMOOTH",
"1056 1017 LINE",
"829 1017 LINE",
"816 893 LINE",
"760 1005 OFFCURVE",
"678 1041 OFFCURVE",
"546 1041 CURVE SMOOTH",
"311 1041 OFFCURVE",
"119 854 OFFCURVE",
"119 519 CURVE SMOOTH",
"119 213 OFFCURVE",
"277 0 OFFCURVE",
"537 0 CURVE SMOOTH",
"675 0 OFFCURVE",
"767 70 OFFCURVE",
"805 156 CURVE",
"807 139 OFFCURVE",
"808 103 OFFCURVE",
"808 87 CURVE SMOOTH",
"808 -85 OFFCURVE",
"718 -237 OFFCURVE",
"500 -237 CURVE SMOOTH",
"398 -237 OFFCURVE",
"346 -215 OFFCURVE",
"289 -207 CURVE",
"273 -402 LINE"
);
},
{
closed = 1;
nodes = (
"809 323 OFFCURVE",
"768 195 OFFCURVE",
"598 195 CURVE SMOOTH",
"449 195 OFFCURVE",
"375 343 OFFCURVE",
"375 526 CURVE SMOOTH",
"375 716 OFFCURVE",
"445 843 OFFCURVE",
"611 843 CURVE",
"754 841 OFFCURVE",
"811 733 OFFCURVE",
"811 536 CURVE SMOOTH",
"811 508 LINE"
);
},
{
closed = 1;
nodes = (
"488 1163 LINE",
"686 1163 LINE",
"686 1375 LINE",
"488 1375 LINE"
);
}
);
width = 1212;
}
);
unicode = 0121;
},
{
glyphname = h;
lastChange = "2013-02-09 21:37:16 -0800";
layers = (
{
anchors = (
{
name = center;
position = "{593, 0}";
},
{
name = top;
position = "{593, 0}";
}
);
layerId = "280E06E1-9336-45D2-8B5F-14710EC8A5A0";
name = Bold;
paths = (
{
closed = 1;
nodes = (
"166 0 LINE",
"419 0 LINE",
"419 491 LINE SMOOTH",
"419 699 OFFCURVE",
"460 844 OFFCURVE",
"649 844 CURVE SMOOTH",
"764 844 OFFCURVE",
"802 775 OFFCURVE",
"802 618 CURVE SMOOTH",
"802 0 LINE",
"1058 0 LINE",
"1058 641 LINE SMOOTH",
"1058 918 OFFCURVE",
"919 1041 OFFCURVE",
"705 1041 CURVE SMOOTH",
"561 1041 OFFCURVE",
"432 966 OFFCURVE",
"363 858 CURVE",
"412 838 LINE",
"422 1102 LINE",
"422 1393 LINE",
"166 1376 LINE"
);
}
);
width = 1196;
}
);
unicode = 0068;
},
{
glyphname = hbar;
layers = (
{
layerId = "280E06E1-9336-45D2-8B5F-14710EC8A5A0";
name = Bold;
paths = (
{
closed = 1;
nodes = (
"89 0 LINE",
"335 0 LINE",
"335 686 LINE",
"377 771 OFFCURVE",
"473 844 OFFCURVE",
"586 844 CURVE SMOOTH",
"707 844 OFFCURVE",
"734 772 OFFCURVE",
"734 605 CURVE SMOOTH",
"734 0 LINE",
"980 0 LINE",
"980 615 LINE SMOOTH",
"980 922 OFFCURVE",
"832 1034 OFFCURVE",
"641 1034 CURVE SMOOTH",
"517 1034 OFFCURVE",
"413 993 OFFCURVE",
"335 918 CURVE",
"335 1108 LINE",
"595 1108 LINE",
"595 1249 LINE",
"335 1249 LINE",
"335 1387 LINE",
"89 1369 LINE",
"89 1249 LINE",
"-1 1249 LINE",
"-1 1108 LINE",
"89 1108 LINE"
);
}
);
width = 1042;
}
);
unicode = 0127;
},
{
glyphname = hcircumflex;
layers = (
{
layerId = "280E06E1-9336-45D2-8B5F-14710EC8A5A0";
name = Bold;
paths = (
{
closed = 1;
nodes = (
"159 0 LINE",
"412 0 LINE",
"412 491 LINE SMOOTH",
"412 699 OFFCURVE",
"459 844 OFFCURVE",
"648 844 CURVE SMOOTH",
"763 844 OFFCURVE",
"801 775 OFFCURVE",
"801 618 CURVE SMOOTH",
"801 0 LINE",
"1057 0 LINE",
"1057 641 LINE SMOOTH",
"1057 918 OFFCURVE",
"918 1041 OFFCURVE",
"704 1041 CURVE SMOOTH",
"560 1041 OFFCURVE",
"466 979 OFFCURVE",
"408 918 CURVE",
"410 970 OFFCURVE",
"415 1074 OFFCURVE",
"415 1102 CURVE SMOOTH",
"415 1393 LINE",
"159 1376 LINE"
);
},
{
closed = 1;
nodes = (
"274 1515 LINE",
"456 1515 LINE",
"598 1709 LINE",
"756 1515 LINE",
"942 1515 LINE",
"706 1883 LINE",
"510 1883 LINE"
);
}
);
width = 1200;
}
);
unicode = 0125;
},
{
glyphname = i;
layers = (
{
layerId = "280E06E1-9336-45D2-8B5F-14710EC8A5A0";
name = Bold;
paths = (
{
closed = 1;
nodes = (
"168 0 LINE",
"424 0 LINE",
"424 1016 LINE",
"168 1016 LINE"
);
},
{
closed = 1;
nodes = (
"168 1157 LINE",
"424 1157 LINE",
"424 1375 LINE",
"168 1375 LINE"
);
}
);
width = 592;
}
);
unicode = 0069;
},
{
glyphname = dotlessi;
layers = (
{
anchors = (
{
name = ogonek;
position = "{432, 10}";
},
{
name = top;
position = "{240, 0}";
}
);
layerId = "280E06E1-9336-45D2-8B5F-14710EC8A5A0";
name = Bold;
paths = (
{
closed = 1;
nodes = (
"109 0 LINE",
"356 0 LINE",
"356 1016 LINE",
"109 1016 LINE"
);
}
);
width = 480;
}
);
unicode = 0131;
},
{
glyphname = iacute;
layers = (
{
layerId = "280E06E1-9336-45D2-8B5F-14710EC8A5A0";
name = Bold;
paths = (
{
closed = 1;
nodes = (
"109 0 LINE",
"356 0 LINE",
"356 1016 LINE",
"109 1016 LINE"
);
},
{
closed = 1;
nodes = (
"154 1163 LINE",
"311 1163 LINE",
"606 1524 LINE",
"314 1524 LINE"
);
}
);
width = 480;
}
);
unicode = 00ED;
},
{
glyphname = ibreve;
layers = (
{
layerId = "280E06E1-9336-45D2-8B5F-14710EC8A5A0";
name = Bold;
paths = (
{
closed = 1;
nodes = (
"-36 1241 OFFCURVE",
"80 1163 OFFCURVE",
"232 1163 CURVE SMOOTH",
"385 1163 OFFCURVE",
"502 1240 OFFCURVE",
"502 1406 CURVE",
"332 1406 LINE",
"332 1345 OFFCURVE",
"306 1321 OFFCURVE",
"232 1321 CURVE SMOOTH",
"158 1321 OFFCURVE",
"132 1345 OFFCURVE",
"132 1406 CURVE",
"-36 1406 LINE"
);
},
{
closed = 1;
nodes = (
"109 0 LINE",
"356 0 LINE",
"356 1016 LINE",
"109 1016 LINE"
);
}
);
width = 480;
}
);
unicode = 012D;
},
{
glyphname = icircumflex;
layers = (
{
layerId = "280E06E1-9336-45D2-8B5F-14710EC8A5A0";
name = Bold;
paths = (
{
closed = 1;
nodes = (
"-101 1163 LINE",
"80 1163 LINE",
"222 1357 LINE",
"380 1163 LINE",
"566 1163 LINE",
"330 1531 LINE",
"134 1531 LINE"
);
},
{
closed = 1;
nodes = (
"109 0 LINE",
"356 0 LINE",
"356 1016 LINE",
"109 1016 LINE"
);
}
);
width = 480;
}
);
unicode = 00EE;
},
{
glyphname = idieresis;
layers = (
{
layerId = "280E06E1-9336-45D2-8B5F-14710EC8A5A0";
name = Bold;
paths = (
{
closed = 1;
nodes = (
"-52 1163 LINE",
"142 1163 LINE",
"142 1408 LINE",
"-52 1408 LINE"
);
},
{
closed = 1;
nodes = (
"109 0 LINE",
"356 0 LINE",
"356 1016 LINE",
"109 1016 LINE"
);
},
{
closed = 1;
nodes = (
"324 1163 LINE",
"517 1163 LINE",
"517 1408 LINE",
"324 1408 LINE"
);
}
);
width = 480;
}
);
unicode = 00EF;
},
{
glyphname = igrave;
layers = (
{
layerId = "280E06E1-9336-45D2-8B5F-14710EC8A5A0";
name = Bold;
paths = (
{
closed = 1;
nodes = (
"150 1163 LINE",
"315 1163 LINE",
"138 1524 LINE",
"-161 1524 LINE"
);
},
{
closed = 1;
nodes = (
"109 0 LINE",
"356 0 LINE",
"356 1016 LINE",
"109 1016 LINE"
);
}
);
width = 480;
}
);
unicode = 00EC;
},
{
glyphname = ij;
layers = (
{
layerId = "280E06E1-9336-45D2-8B5F-14710EC8A5A0";
name = Bold;
paths = (
{
closed = 1;
nodes = (
"411 -379 LINE",
"471 -379 LINE SMOOTH",
"789 -379 OFFCURVE",
"851 -240 OFFCURVE",
"851 40 CURVE SMOOTH",
"851 1017 LINE",
"598 1017 LINE",
"598 -4 LINE SMOOTH",
"598 -149 OFFCURVE",
"585 -187 OFFCURVE",
"444 -187 CURVE SMOOTH",
"382 -187 LINE"
);
},
{
closed = 1;
nodes = (
"130 0 LINE",
"384 0 LINE",
"384 1017 LINE",
"130 1017 LINE"
);
},
{
closed = 1;
nodes = (
"130 1139 LINE",
"384 1139 LINE",
"384 1357 LINE",
"130 1357 LINE"
);
},
{
closed = 1;
nodes = (
"598 1139 LINE",
"851 1139 LINE",
"851 1357 LINE",
"598 1357 LINE"
);
}
);
width = 908;
}
);
unicode = 0133;
},
{
glyphname = imacron;
layers = (
{
layerId = "280E06E1-9336-45D2-8B5F-14710EC8A5A0";
name = Bold;
paths = (
{
closed = 1;
nodes = (
"109 0 LINE",
"356 0 LINE",
"356 1016 LINE",
"109 1016 LINE"
);
},
{
closed = 1;
nodes = (
"-92 1163 LINE",
"557 1163 LINE",
"557 1322 LINE",
"-92 1322 LINE"
);
}
);
width = 480;
}
);
unicode = 012B;
},
{
glyphname = iogonek;
layers = (
{
layerId = "280E06E1-9336-45D2-8B5F-14710EC8A5A0";
name = Bold;
paths = (
{
closed = 1;
nodes = (
"60 -339 OFFCURVE",
"150 -393 OFFCURVE",
"254 -393 CURVE SMOOTH",
"313 -393 OFFCURVE",
"375 -378 OFFCURVE",
"430 -357 CURVE",
"430 -357 OFFCURVE",
"423 -216 OFFCURVE",
"422 -216 CURVE SMOOTH",
"410 -221 OFFCURVE",
"350 -247 OFFCURVE",
"298 -247 CURVE SMOOTH",
"260 -247 OFFCURVE",
"234 -212 OFFCURVE",
"234 -178 CURVE SMOOTH",
"234 -123 OFFCURVE",
"266 -59 OFFCURVE",
"340 -2 CURVE",
"324 0 LINE",
"415 0 LINE",
"415 1016 LINE",
"159 1016 LINE",
"159 0 LINE",
"211 0 LINE",
"143 -43 OFFCURVE",
"60 -114 OFFCURVE",
"60 -225 CURVE SMOOTH"
);
},
{
closed = 1;
nodes = (
"159 1157 LINE",
"415 1157 LINE",
"415 1375 LINE",
"159 1375 LINE"
);
}
);
width = 574;
}
);
unicode = 012F;
},
{
glyphname = itilde;
layers = (
{
layerId = "280E06E1-9336-45D2-8B5F-14710EC8A5A0";
name = Bold;
paths = (
{
closed = 1;
nodes = (
"64 1163 LINE",
"64 1163 OFFCURVE",
"78 1253 OFFCURVE",
"99 1253 CURVE SMOOTH",
"156 1253 OFFCURVE",
"289 1163 OFFCURVE",
"390 1163 CURVE SMOOTH",
"538 1163 OFFCURVE",
"548 1405 OFFCURVE",
"548 1405 CURVE",
"398 1405 LINE",
"398 1405 OFFCURVE",
"386 1321 OFFCURVE",
"366 1320 CURVE",
"335 1320 OFFCURVE",
"200 1405 OFFCURVE",
"79 1405 CURVE SMOOTH",
"-69 1405 OFFCURVE",
"-83 1267 OFFCURVE",
"-83 1173 CURVE"
);
},
{
closed = 1;
nodes = (
"109 0 LINE",
"356 0 LINE",
"356 1016 LINE",
"109 1016 LINE"
);
}
);
width = 480;
}
);
unicode = 0129;
},
{
glyphname = j;
layers = (
{
layerId = "280E06E1-9336-45D2-8B5F-14710EC8A5A0";
name = Bold;
paths = (
{
closed = 1;
nodes = (
"31 -379 LINE",
"91 -379 LINE SMOOTH",
"409 -379 OFFCURVE",
"471 -240 OFFCURVE",
"471 40 CURVE SMOOTH",
"471 1017 LINE",
"218 1017 LINE",
"218 -4 LINE SMOOTH",
"218 -149 OFFCURVE",
"205 -187 OFFCURVE",
"64 -187 CURVE SMOOTH",
"2 -187 LINE"
);
},
{
closed = 1;
nodes = (
"218 1157 LINE",
"471 1157 LINE",
"471 1375 LINE",
"218 1375 LINE"
);
}
);
width = 591;
}
);
unicode = 006A;
},
{
glyphname = uni0237;
layers = (
{
anchors = (
{
name = top;
position = "{231, 0}";
}
);
layerId = "280E06E1-9336-45D2-8B5F-14710EC8A5A0";
name = Bold;
paths = (
{
closed = 1;
nodes = (
"-39 -322 LINE",
"6 -322 LINE SMOOTH",
"310 -322 OFFCURVE",
"379 -183 OFFCURVE",
"379 99 CURVE SMOOTH",
"379 988 LINE",
"148 988 LINE",
"148 61 LINE SMOOTH",
"148 -88 OFFCURVE",
"137 -127 OFFCURVE",
"-3 -127 CURVE SMOOTH",
"-44 -127 LINE"
);
}
);
width = 461;
}
);
unicode = 0237;
},
{
glyphname = jcircumflex;
layers = (
{
layerId = "280E06E1-9336-45D2-8B5F-14710EC8A5A0";
name = Bold;
paths = (
{
closed = 1;
nodes = (
"-39 -322 LINE",
"6 -322 LINE SMOOTH",
"310 -322 OFFCURVE",
"379 -183 OFFCURVE",
"379 99 CURVE SMOOTH",
"379 988 LINE",
"148 988 LINE",
"148 61 LINE SMOOTH",
"148 -88 OFFCURVE",
"137 -127 OFFCURVE",
"-3 -127 CURVE SMOOTH",
"-44 -127 LINE"
);
},
{
closed = 1;
nodes = (
"-166 1163 LINE",
"15 1163 LINE",
"157 1357 LINE",
"315 1163 LINE",
"501 1163 LINE",
"265 1531 LINE",
"69 1531 LINE"
);
}
);
width = 461;
}
);
unicode = 0135;
},
{
glyphname = k;
lastChange = "2013-02-09 21:40:40 -0800";
layers = (
{
anchors = (
{
name = bottom;
position = "{583, 0}";
}
);
layerId = "280E06E1-9336-45D2-8B5F-14710EC8A5A0";
name = Bold;
paths = (
{
closed = 1;
nodes = (
"166 0 LINE",
"422 0 LINE",
"422 421 LINE",
"362 294 LINE",
"550 473 LINE",
"477 473 LINE",
"825 0 LINE",
"1126 0 LINE",
"669 615 LINE",
"669 501 LINE",
"1102 1016 LINE",
"779 1016 LINE",
"372 529 LINE",
"415 529 LINE",
"422 785 LINE",
"422 1392 LINE",
"166 1376 LINE"
);
}
);
width = 1148;
}
);
unicode = 006B;
},
{
glyphname = kcommaaccent;
layers = (
{
layerId = "280E06E1-9336-45D2-8B5F-14710EC8A5A0";
name = Bold;
paths = (
{
closed = 1;
nodes = (
"159 0 LINE",
"415 0 LINE",
"415 354 LINE",
"499 432 LINE",
"818 0 LINE",
"1119 0 LINE",
"706 555 LINE",
"1095 1016 LINE",
"772 1016 LINE",
"410 582 LINE",
"415 785 LINE",
"415 1392 LINE",
"159 1376 LINE"
);
},
{
closed = 1;
nodes = (
"478 -601 LINE",
"646 -601 LINE",
"800 -122 LINE",
"578 -122 LINE"
);
}
);
width = 1158;
}
);
unicode = 0137;
},
{
glyphname = l;
lastChange = "2013-02-09 21:40:59 -0800";
layers = (
{
anchors = (
{
name = bottom;
position = "{318, 0}";
},
{
name = top;
position = "{318, 0}";
},
{
name = topright;
position = "{621, 0}";
}
);
layerId = "280E06E1-9336-45D2-8B5F-14710EC8A5A0";
name = Bold;
paths = (
{
closed = 1;
nodes = (
"168 124 OFFCURVE",
"231 -13 OFFCURVE",
"508 -13 CURVE SMOOTH",
"583 -13 OFFCURVE",
"614 4 OFFCURVE",
"621 7 CURVE",
"627 187 LINE",
"606 185 OFFCURVE",
"573 178 OFFCURVE",
"544 178 CURVE SMOOTH",
"459 178 OFFCURVE",
"424 205 OFFCURVE",
"424 404 CURVE SMOOTH",
"424 1393 LINE",
"168 1376 LINE",
"168 401 LINE SMOOTH"
);
}
);
width = 645;
}
);
unicode = 006C;
},
{
glyphname = lacute;
layers = (
{
layerId = "280E06E1-9336-45D2-8B5F-14710EC8A5A0";
name = Bold;
paths = (
{
closed = 1;
nodes = (
"159 124 OFFCURVE",
"222 -13 OFFCURVE",
"499 -13 CURVE SMOOTH",
"574 -13 OFFCURVE",
"642 4 OFFCURVE",
"649 7 CURVE",
"618 187 LINE",
"597 185 OFFCURVE",
"564 178 OFFCURVE",
"535 178 CURVE SMOOTH",
"450 178 OFFCURVE",
"415 205 OFFCURVE",
"415 404 CURVE SMOOTH",
"415 1393 LINE",
"159 1376 LINE",
"159 401 LINE SMOOTH"
);
},
{
closed = 1;
nodes = (
"326 1515 LINE",
"482 1515 LINE",
"778 1876 LINE",
"486 1876 LINE"
);
}
);
width = 729;
}
);
unicode = 013A;
},
{
glyphname = lcaron;
layers = (
{
layerId = "280E06E1-9336-45D2-8B5F-14710EC8A5A0";
name = Bold;
paths = (
{
closed = 1;
nodes = (
"159 124 OFFCURVE",
"222 -13 OFFCURVE",
"499 -13 CURVE SMOOTH",
"574 -13 OFFCURVE",
"642 4 OFFCURVE",
"649 7 CURVE",
"618 187 LINE",
"597 185 OFFCURVE",
"564 178 OFFCURVE",
"535 178 CURVE SMOOTH",
"450 178 OFFCURVE",
"415 205 OFFCURVE",
"415 404 CURVE SMOOTH",
"415 1393 LINE",
"159 1376 LINE",
"159 401 LINE SMOOTH"
);
},
{
closed = 1;
nodes = (
"838 913 LINE",
"983 913 LINE",
"1034 1393 LINE",
"832 1393 LINE"
);
}
);
width = 729;
}
);
unicode = 013E;
},
{
glyphname = lcommaaccent;
layers = (
{
layerId = "280E06E1-9336-45D2-8B5F-14710EC8A5A0";
name = Bold;
paths = (
{
closed = 1;
nodes = (
"159 124 OFFCURVE",
"222 -13 OFFCURVE",
"499 -13 CURVE SMOOTH",
"574 -13 OFFCURVE",
"642 4 OFFCURVE",
"649 7 CURVE",
"618 187 LINE",
"597 185 OFFCURVE",
"564 178 OFFCURVE",
"535 178 CURVE SMOOTH",
"450 178 OFFCURVE",
"415 205 OFFCURVE",
"415 404 CURVE SMOOTH",
"415 1393 LINE",
"159 1376 LINE",
"159 401 LINE SMOOTH"
);
},
{
closed = 1;
nodes = (
"242 -614 LINE",
"410 -614 LINE",
"566 -135 LINE",
"344 -135 LINE"
);
}
);
width = 729;
}
);
unicode = 013C;
},
{
glyphname = lslash;
layers = (
{
layerId = "280E06E1-9336-45D2-8B5F-14710EC8A5A0";
name = Bold;
paths = (
{
closed = 1;
nodes = (
"120 131 OFFCURVE",
"174 -13 OFFCURVE",
"464 -13 CURVE SMOOTH",
"506 -13 OFFCURVE",
"601 -2 OFFCURVE",
"612 -1 CURVE SMOOTH",
"621 0 LINE",
"605 189 LINE",
"595 188 LINE SMOOTH",
"584 187 OFFCURVE",
"515 181 OFFCURVE",
"505 181 CURVE SMOOTH",
"372 181 OFFCURVE",
"367 226 OFFCURVE",
"367 404 CURVE SMOOTH",
"367 771 LINE",
"507 859 LINE",
"507 1049 LINE",
"367 963 LINE",
"367 1384 LINE",
"366 1385 OFFCURVE",
"366 1386 OFFCURVE",
"365 1387 CURVE",
"120 1368 LINE",
"120 807 LINE",
"21 747 LINE",
"21 559 LINE",
"120 619 LINE",
"120 424 LINE SMOOTH"
);
}
);
width = 597;
}
);
unicode = 0142;
},
{
glyphname = m;
lastChange = "2013-02-09 21:36:32 -0800";
layers = (
{
layerId = "280E06E1-9336-45D2-8B5F-14710EC8A5A0";
name = Bold;
paths = (
{
closed = 1;
nodes = (
"166 0 LINE",
"422 0 LINE",
"422 494 LINE SMOOTH",
"422 694 OFFCURVE",
"445 844 OFFCURVE",
"629 844 CURVE SMOOTH",
"746 844 OFFCURVE",
"766 754 OFFCURVE",
"766 590 CURVE SMOOTH",
"766 0 LINE",
"1022 0 LINE",
"1022 596 LINE",
"1039 738 OFFCURVE",
"1078 844 OFFCURVE",
"1219 844 CURVE SMOOTH",
"1334 844 OFFCURVE",
"1361 762 OFFCURVE",
"1361 579 CURVE SMOOTH",
"1361 0 LINE",
"1617 0 LINE",
"1617 646 LINE SMOOTH",
"1617 897 OFFCURVE",
"1513 1041 OFFCURVE",
"1279 1041 CURVE SMOOTH",
"1149 1041 OFFCURVE",
"1029 981 OFFCURVE",
"948 847 CURVE",
"1005 847 LINE",
"943 980 OFFCURVE",
"859 1041 OFFCURVE",
"704 1041 CURVE SMOOTH",
"525 1041 OFFCURVE",
"416 950 OFFCURVE",
"358 851 CURVE",
"411 845 LINE",
"374 1016 LINE",
"166 1016 LINE"
);
}
);
width = 1755;
}
);
unicode = 006D;
},
{
glyphname = n;
lastChange = "2013-02-09 21:36:20 -0800";
layers = (
{
anchors = (
{
name = bottom;
position = "{612, 0}";
},
{
name = top;
position = "{612, 0}";
}
);
layerId = "280E06E1-9336-45D2-8B5F-14710EC8A5A0";
name = Bold;
paths = (
{
closed = 1;
nodes = (
"166 0 LINE",
"422 0 LINE",
"422 496 LINE SMOOTH",
"422 709 OFFCURVE",
"487 844 OFFCURVE",
"682 844 CURVE SMOOTH",
"808 844 OFFCURVE",
"838 761 OFFCURVE",
"839 612 CURVE",
"839 0 LINE",
"1095 0 LINE",
"1095 640 LINE SMOOTH",
"1095 891 OFFCURVE",
"982 1041 OFFCURVE",
"747 1041 CURVE SMOOTH",
"570 1041 OFFCURVE",
"446 963 OFFCURVE",
"358 841 CURVE",
"410 841 LINE",
"374 1016 LINE",
"166 1016 LINE"
);
}
);
width = 1233;
}
);
unicode = 006E;
},
{
glyphname = nacute;
layers = (
{
layerId = "280E06E1-9336-45D2-8B5F-14710EC8A5A0";
name = Bold;
paths = (
{
closed = 1;
nodes = (
"159 0 LINE",
"415 0 LINE",
"415 496 LINE SMOOTH",
"415 709 OFFCURVE",
"452 844 OFFCURVE",
"647 844 CURVE SMOOTH",
"773 844 OFFCURVE",
"803 761 OFFCURVE",
"804 612 CURVE",
"804 0 LINE",
"1060 0 LINE",
"1060 640 LINE SMOOTH",
"1060 891 OFFCURVE",
"947 1041 OFFCURVE",
"712 1041 CURVE SMOOTH",
"571 1041 OFFCURVE",
"471 979 OFFCURVE",
"391 902 CURVE",
"367 1016 LINE",
"159 1016 LINE"
);
},
{
closed = 1;
nodes = (
"531 1163 LINE",
"688 1163 LINE",
"983 1524 LINE",
"691 1524 LINE"
);
}
);
width = 1203;
}
);
unicode = 0144;
},
{
glyphname = ncaron;
layers = (
{
layerId = "280E06E1-9336-45D2-8B5F-14710EC8A5A0";
name = Bold;
paths = (
{
closed = 1;
nodes = (
"159 0 LINE",
"415 0 LINE",
"415 496 LINE SMOOTH",
"415 709 OFFCURVE",
"452 844 OFFCURVE",
"647 844 CURVE SMOOTH",
"773 844 OFFCURVE",
"803 761 OFFCURVE",
"804 612 CURVE",
"804 0 LINE",
"1060 0 LINE",
"1060 640 LINE SMOOTH",
"1060 891 OFFCURVE",
"947 1041 OFFCURVE",
"712 1041 CURVE SMOOTH",
"571 1041 OFFCURVE",
"471 979 OFFCURVE",
"391 902 CURVE",
"367 1016 LINE",
"159 1016 LINE"
);
},
{
closed = 1;
nodes = (
"514 1163 LINE",
"704 1163 LINE",
"952 1500 LINE",
"748 1500 LINE",
"598 1329 LINE",
"468 1500 LINE",
"266 1500 LINE"
);
}
);
width = 1203;
}
);
unicode = 0148;
},
